<?xml version="1.0" encoding="UTF-8" standalone="no"?>
<svg width="673px" height="667px" viewBox="0 0 673 667" version="1.1" xmlns="http://www.w3.org/2000/svg" xmlns:xlink="http://www.w3.org/1999/xlink" xmlns:sketch="http://www.bohemiancoding.com/sketch/ns">
    <!-- Generator: Sketch 3.3.1 (12005) - http://www.bohemiancoding.com/sketch -->
    <title>hero image</title>
    <desc>Created with Sketch.</desc>
    <defs></defs>
    <g id="Page-1" stroke="none" stroke-width="1" fill="none" fill-rule="evenodd" sketch:type="MSPage">
        <g id="hero-image" sketch:type="MSLayerGroup" transform="translate(-46.000000, -29.000000)">
            <g id="Background-Shapes" transform="translate(46.000000, 29.000000)" sketch:type="MSShapeGroup">
                <path d="M428.82,409.301 C428.82,417.763 421.961,424.623 413.498,424.623 L258.896,424.623 C250.434,424.623 243.574,417.763 243.574,409.301 L243.574,254.699 C243.574,246.237 250.434,239.377 258.896,239.377 L413.498,239.377 C421.961,239.377 428.82,246.237 428.82,254.699 L428.82,409.301 L428.82,409.301 Z" id="Shape" stroke="#FFFFFF" stroke-width="6"></path>
                <path d="M672.05,210.281 C672.05,220.749 663.565,229.237 653.095,229.237 L461.835,229.237 C451.366,229.237 442.879,220.75 442.879,210.281 L442.879,19.021 C442.879,8.552 451.366,0.065 461.835,0.065 L653.095,0.065 C663.565,0.065 672.05,8.551 672.05,19.021 L672.05,210.281 L672.05,210.281 Z" id="Shape" opacity="0.5" fill="#FFFFFF"></path>
                <path d="M671.05,647.351 C671.05,657.82 662.565,666.306 652.095,666.306 L460.835,666.306 C450.366,666.306 441.879,657.82 441.879,647.351 L441.879,456.091 C441.879,445.622 450.366,437.136 460.835,437.136 L652.095,437.136 C662.565,437.136 671.05,445.622 671.05,456.091 L671.05,647.351 L671.05,647.351 Z" id="Shape" opacity="0.5" fill="#FFFFFF"></path>
                <path d="M230.253,210.281 C230.253,220.749 221.768,229.237 211.298,229.237 L20.038,229.237 C9.569,229.237 1.082,220.75 1.082,210.281 L1.082,19.021 C1.082,8.552 9.569,0.065 20.038,0.065 L211.298,0.065 C221.768,0.065 230.253,8.551 230.253,19.021 L230.253,210.281 L230.253,210.281 Z" id="Shape" opacity="0.5" fill="#FFFFFF"></path>
                <path d="M229.253,647.351 C229.253,657.82 220.768,666.306 210.298,666.306 L19.038,666.306 C8.569,666.306 0.082,657.82 0.082,647.351 L0.082,456.091 C0.082,445.622 8.569,437.136 19.038,437.136 L210.298,437.136 C220.768,437.136 229.253,445.622 229.253,456.091 L229.253,647.351 L229.253,647.351 Z" id="Shape" opacity="0.5" fill="#FFFFFF"></path>
            </g>
            <g id="Text-Outlines" transform="translate(92.000000, 278.000000)" fill="#FFFFFF" sketch:type="MSShapeGroup">
                <path d="M26.976,29.4823 C27.1360008,29.4823 27.2719994,29.5382994 27.384,29.6503 L28.344,30.6823 C27.6399965,31.4343038 26.8720042,32.110297 26.04,32.7103 C25.2079958,33.310303 24.3000049,33.8222979 23.316,34.2463 C22.3319951,34.6703021 21.2520059,34.9982988 20.076,35.2303 C18.8999941,35.4623012 17.608007,35.5783 16.2,35.5783 C13.8479882,35.5783 11.6920098,35.1663041 9.732,34.3423 C7.7719902,33.5182959 6.092007,32.3503076 4.692,30.8383 C3.291993,29.3262924 2.20000392,27.4983107 1.416,25.3543 C0.63199608,23.2102893 0.24,20.8263131 0.24,18.2023 C0.24,15.6262871 0.64399596,13.2743106 1.452,11.1463 C2.26000404,9.01828936 3.39599268,7.19030764 4.86,5.6623 C6.32400732,4.13429236 8.0759898,2.9503042 10.116,2.1103 C12.1560102,1.2702958 14.4079877,0.8503 16.872,0.8503 C18.1040062,0.8503 19.2319949,0.94229908 20.256,1.1263 C21.2800051,1.31030092 22.2359956,1.57429828 23.124,1.9183 C24.0120044,2.26230172 24.8479961,2.69029744 25.632,3.2023 C26.4160039,3.71430256 27.1839962,4.30629664 27.936,4.9783 L27.192,6.0583 C27.0639994,6.25030096 26.8640014,6.3463 26.592,6.3463 C26.4479993,6.3463 26.2640011,6.26230084 26.04,6.0943 C25.8159989,5.92629916 25.5320017,5.71830124 25.188,5.4703 C24.8439983,5.22229876 24.4280024,4.95030148 23.94,4.6543 C23.4519976,4.35829852 22.8720034,4.08630124 22.2,3.8383 C21.5279966,3.59029876 20.7520044,3.38230084 19.872,3.2143 C18.9919956,3.04629916 17.9920056,2.9623 16.872,2.9623 C14.8079897,2.9623 12.9120086,3.31829644 11.184,4.0303 C9.45599136,4.74230356 7.96800624,5.7582934 6.72,7.0783 C5.47199376,8.3983066 4.50000348,9.9982906 3.804,11.8783 C3.10799652,13.7583094 2.76,15.8662883 2.76,18.2023 C2.76,20.602312 3.10399656,22.7462906 3.792,24.6343 C4.48000344,26.5223094 5.43199392,28.1182935 6.648,29.4223 C7.86400608,30.7263065 9.29999172,31.7262965 10.956,32.4223 C12.6120083,33.1183035 14.4079903,33.4663 16.344,33.4663 C17.5600061,33.4663 18.6439952,33.3863008 19.596,33.2263 C20.5480048,33.0662992 21.423996,32.8263016 22.224,32.5063 C23.024004,32.1862984 23.7679966,31.7943023 24.456,31.3303 C25.1440034,30.8662977 25.8239966,30.3223031 26.496,29.6983 C26.5760004,29.6342997 26.6519996,29.5823002 26.724,29.5423 C26.7960004,29.5022998 26.8799995,29.4823 26.976,29.4823 L26.976,29.4823 Z M34.92,35.1943 L34.92,0.2743 L37.2,0.2743 L37.2,15.3943 C38.3040055,14.0342932 39.5639929,12.950304 40.98,12.1423 C42.3960071,11.334296 43.9839912,10.9303 45.744,10.9303 C47.0560066,10.9303 48.211995,11.1382979 49.212,11.5543 C50.212005,11.9703021 51.0399967,12.5702961 51.696,13.3543 C52.3520033,14.1383039 52.8479983,15.0822945 53.184,16.1863 C53.5200017,17.2903055 53.688,18.538293 53.688,19.9303 L53.688,35.1943 L51.408,35.1943 L51.408,19.9303 C51.408,17.6902888 50.8960051,15.9343064 49.872,14.6623 C48.8479949,13.3902936 47.2800106,12.7543 45.168,12.7543 C43.5999922,12.7543 42.1440067,13.158296 40.8,13.9663 C39.4559933,14.774304 38.2560053,15.882293 37.2,17.2903 L37.2,35.1943 L34.92,35.1943 Z M69.984,10.9303 C71.6960086,10.9303 73.2279932,11.2222971 74.58,11.8063 C75.9320068,12.3903029 77.0719954,13.2182946 78,14.2903 C78.9280046,15.3623054 79.6359976,16.6542924 80.124,18.1663 C80.6120024,19.6783076 80.856,21.3702906 80.856,23.2423 C80.856,25.1143094 80.6120024,26.8022925 80.124,28.3063 C79.6359976,29.8103075 78.9280046,31.0982946 78,32.1703 C77.0719954,33.2423054 75.9320068,34.0662971 74.58,34.6423 C73.2279932,35.2183029 71.6960086,35.5063 69.984,35.5063 C68.2719914,35.5063 66.7400068,35.2183029 65.388,34.6423 C64.0359932,34.0662971 62.8920047,33.2423054 61.956,32.1703 C61.0199953,31.0982946 60.3080024,29.8103075 59.82,28.3063 C59.3319976,26.8022925 59.088,25.1143094 59.088,23.2423 C59.088,21.3702906 59.3319976,19.6783076 59.82,18.1663 C60.3080024,16.6542924 61.0199953,15.3623054 61.956,14.2903 C62.8920047,13.2182946 64.0359932,12.3903029 65.388,11.8063 C66.7400068,11.2222971 68.2719914,10.9303 69.984,10.9303 L69.984,10.9303 Z M69.984,33.7063 C71.4080071,33.7063 72.6519947,33.4623024 73.716,32.9743 C74.7800053,32.4862976 75.6679964,31.7863046 76.38,30.8743 C77.0920036,29.9622954 77.6239982,28.8623064 77.976,27.5743 C78.3280018,26.2862936 78.504,24.842308 78.504,23.2423 C78.504,21.6582921 78.3280018,20.2183065 77.976,18.9223 C77.6239982,17.6262935 77.0920036,16.5183046 76.38,15.5983 C75.6679964,14.6782954 74.7800053,13.9703025 73.716,13.4743 C72.6519947,12.9782975 71.4080071,12.7303 69.984,12.7303 C68.5599929,12.7303 67.3160053,12.9782975 66.252,13.4743 C65.1879947,13.9703025 64.3000036,14.6782954 63.588,15.5983 C62.8759964,16.5183046 62.3400018,17.6262935 61.98,18.9223 C61.6199982,20.2183065 61.44,21.6582921 61.44,23.2423 C61.44,24.842308 61.6199982,26.2862936 61.98,27.5743 C62.3400018,28.8623064 62.8759964,29.9622954 63.588,30.8743 C64.3000036,31.7863046 65.1879947,32.4862976 66.252,32.9743 C67.3160053,33.4623024 68.5599929,33.7063 69.984,33.7063 L69.984,33.7063 Z M89.808,11.3143 L89.808,35.1943 L87.528,35.1943 L87.528,11.3143 L89.808,11.3143 Z M90.816,3.0823 C90.816,3.37030144 90.7560006,3.63829876 90.636,3.8863 C90.5159994,4.13430124 90.360001,4.35429904 90.168,4.5463 C89.975999,4.73830096 89.7520013,4.89029944 89.496,5.0023 C89.2399987,5.11430056 88.9680014,5.1703 88.68,5.1703 C88.3919986,5.1703 88.1200013,5.11430056 87.864,5.0023 C87.6079987,4.89029944 87.384001,4.73830096 87.192,4.5463 C86.999999,4.35429904 86.8480006,4.13430124 86.736,3.8863 C86.6239994,3.63829876 86.568,3.37030144 86.568,3.0823 C86.568,2.79429856 86.6239994,2.51830132 86.736,2.2543 C86.8480006,1.99029868 86.999999,1.76230096 87.192,1.5703 C87.384001,1.37829904 87.6079987,1.22630056 87.864,1.1143 C88.1200013,1.00229944 88.3919986,0.9463 88.68,0.9463 C88.9680014,0.9463 89.2399987,1.00229944 89.496,1.1143 C89.7520013,1.22630056 89.975999,1.37829904 90.168,1.5703 C90.360001,1.76230096 90.5159994,1.99029868 90.636,2.2543 C90.7560006,2.51830132 90.816,2.79429856 90.816,3.0823 L90.816,3.0823 Z M113.976,14.5063 C113.896,14.5863004 113.82,14.6542997 113.748,14.7103 C113.676,14.7663003 113.576001,14.7943 113.448,14.7943 C113.287999,14.7943 113.068001,14.6863011 112.788,14.4703 C112.507999,14.2542989 112.136002,14.0183013 111.672,13.7623 C111.207998,13.5062987 110.628003,13.2703011 109.932,13.0543 C109.235997,12.8382989 108.392005,12.7303 107.4,12.7303 C106.023993,12.7303 104.804005,12.9742976 103.74,13.4623 C102.675995,13.9503024 101.780004,14.6502954 101.052,15.5623 C100.323996,16.4743046 99.7680019,17.5782935 99.384,18.8743 C98.9999981,20.1703065 98.808,21.6262919 98.808,23.2423 C98.808,24.9223084 99.003998,26.4102935 99.396,27.7063 C99.788002,29.0023065 100.343996,30.0942956 101.064,30.9823 C101.784004,31.8703044 102.655995,32.5462977 103.68,33.0103 C104.704005,33.4743023 105.839994,33.7063 107.088,33.7063 C108.240006,33.7063 109.203996,33.5703014 109.98,33.2983 C110.756004,33.0262986 111.395997,32.7303016 111.9,32.4103 C112.404003,32.0902984 112.803999,31.7943014 113.1,31.5223 C113.396001,31.2502986 113.631999,31.1143 113.808,31.1143 C114.016001,31.1143 114.175999,31.1942992 114.288,31.3543 L114.912,32.1223 C114.543998,32.6023024 114.080003,33.0502979 113.52,33.4663 C112.959997,33.8823021 112.328004,34.2422985 111.624,34.5463 C110.919996,34.8503015 110.156004,35.0862992 109.332,35.2543 C108.507996,35.4223008 107.648004,35.5063 106.752,35.5063 C105.231992,35.5063 103.844006,35.2303028 102.588,34.6783 C101.331994,34.1262972 100.252005,33.3263052 99.348,32.2783 C98.4439955,31.2302948 97.7400025,29.9463076 97.236,28.4263 C96.7319975,26.9062924 96.48,25.1783097 96.48,23.2423 C96.48,21.4182909 96.7199976,19.7543075 97.2,18.2503 C97.6800024,16.7462925 98.3799954,15.4503054 99.3,14.3623 C100.220005,13.2742946 101.347993,12.430303 102.684,11.8303 C104.020007,11.230297 105.551991,10.9303 107.28,10.9303 C108.832008,10.9303 110.211994,11.1782975 111.42,11.6743 C112.628006,12.1703025 113.679996,12.8422958 114.576,13.6903 L113.976,14.5063 Z M129.096,10.9303 C130.440007,10.9303 131.683994,11.1622977 132.828,11.6263 C133.972006,12.0903023 134.963996,12.7662956 135.804,13.6543 C136.644004,14.5423044 137.299998,15.6342935 137.772,16.9303 C138.244002,18.2263065 138.48,19.7142916 138.48,21.3943 C138.48,21.7463018 138.428001,21.9862994 138.324,22.1143 C138.219999,22.2423006 138.056001,22.3063 137.832,22.3063 L120.576,22.3063 L120.576,22.7623 C120.576,24.554309 120.783998,26.1302932 121.2,27.4903 C121.616002,28.8503068 122.207996,29.9902954 122.976,30.9103 C123.744004,31.8303046 124.671995,32.5222977 125.76,32.9863 C126.848005,33.4503023 128.063993,33.6823 129.408,33.6823 C130.608006,33.6823 131.647996,33.5503013 132.528,33.2863 C133.408004,33.0222987 134.147997,32.7263016 134.748,32.3983 C135.348003,32.0702984 135.823998,31.7743013 136.176,31.5103 C136.528002,31.2462987 136.783999,31.1143 136.944,31.1143 C137.152001,31.1143 137.311999,31.1942992 137.424,31.3543 L138.048,32.1223 C137.663998,32.6023024 137.156003,33.0502979 136.524,33.4663 C135.891997,33.8823021 135.188004,34.2382985 134.412,34.5343 C133.635996,34.8303015 132.804004,35.0662991 131.916,35.2423 C131.027996,35.4183009 130.136004,35.5063 129.24,35.5063 C127.607992,35.5063 126.120007,35.2223028 124.776,34.6543 C123.431993,34.0862972 122.280005,33.2583054 121.32,32.1703 C120.359995,31.0822946 119.620003,29.7503079 119.1,28.1743 C118.579997,26.5982921 118.32,24.7943102 118.32,22.7623 C118.32,21.0502914 118.563998,19.4703072 119.052,18.0223 C119.540002,16.5742928 120.243995,15.3263052 121.164,14.2783 C122.084005,13.2302948 123.211993,12.410303 124.548,11.8183 C125.884007,11.226297 127.399992,10.9303 129.096,10.9303 L129.096,10.9303 Z M129.12,12.6343 C127.887994,12.6343 126.784005,12.8262981 125.808,13.2103 C124.831995,13.5943019 123.988004,14.1462964 123.276,14.8663 C122.563996,15.5863036 121.988002,16.450295 121.548,17.4583 C121.107998,18.466305 120.816001,19.5942938 120.672,20.8423 L136.416,20.8423 C136.416,19.5622936 136.240002,18.4143051 135.888,17.3983 C135.535998,16.3822949 135.040003,15.5223035 134.4,14.8183 C133.759997,14.1142965 132.992004,13.5743019 132.096,13.1983 C131.199996,12.8222981 130.208005,12.6343 129.12,12.6343 L129.12,12.6343 Z" id="Choice"></path>
                <path d="M5.892,154.8343 L5.892,170.1943 L3.444,170.1943 L3.444,136.2343 L12.108,136.2343 C16.0280196,136.2343 18.9559903,136.990292 20.892,138.5023 C22.8280097,140.014308 23.796,142.234285 23.796,145.1623 C23.796,146.458306 23.5720022,147.642295 23.124,148.7143 C22.6759978,149.786305 22.0320042,150.726296 21.192,151.5343 C20.3519958,152.342304 19.3400059,153.006297 18.156,153.5263 C16.9719941,154.046303 15.6360074,154.386299 14.148,154.5463 C14.5320019,154.786301 14.8759985,155.106298 15.18,155.5063 L26.868,170.1943 L24.732,170.1943 C24.4759987,170.1943 24.2560009,170.1463 24.072,170.0503 C23.8879991,169.9543 23.7080009,169.794301 23.532,169.5703 L12.66,155.7943 C12.3879986,155.442298 12.0960016,155.194301 11.784,155.0503 C11.4719984,154.906299 10.9880033,154.8343 10.332,154.8343 L5.892,154.8343 Z M5.892,153.0103 L11.796,153.0103 C13.3000075,153.0103 14.647994,152.830302 15.84,152.4703 C17.032006,152.110298 18.0399959,151.594303 18.864,150.9223 C19.6880041,150.250297 20.3159978,149.442305 20.748,148.4983 C21.1800022,147.554295 21.396,146.490306 21.396,145.3063 C21.396,142.890288 20.6040079,141.098306 19.02,139.9303 C17.4359921,138.762294 15.1320151,138.1783 12.108,138.1783 L5.892,138.1783 L5.892,153.0103 Z M40.86,145.9303 C42.2040067,145.9303 43.4479943,146.162298 44.592,146.6263 C45.7360057,147.090302 46.7279958,147.766296 47.568,148.6543 C48.4080042,149.542304 49.0639976,150.634294 49.536,151.9303 C50.0080024,153.226306 50.244,154.714292 50.244,156.3943 C50.244,156.746302 50.1920005,156.986299 50.088,157.1143 C49.9839995,157.242301 49.8200011,157.3063 49.596,157.3063 L32.34,157.3063 L32.34,157.7623 C32.34,159.554309 32.5479979,161.130293 32.964,162.4903 C33.3800021,163.850307 33.9719962,164.990295 34.74,165.9103 C35.5080038,166.830305 36.4359946,167.522298 37.524,167.9863 C38.6120054,168.450302 39.8279933,168.6823 41.172,168.6823 C42.372006,168.6823 43.4119956,168.550301 44.292,168.2863 C45.1720044,168.022299 45.911997,167.726302 46.512,167.3983 C47.112003,167.070298 47.5879982,166.774301 47.94,166.5103 C48.2920018,166.246299 48.5479992,166.1143 48.708,166.1143 C48.916001,166.1143 49.0759994,166.194299 49.188,166.3543 L49.812,167.1223 C49.4279981,167.602302 48.9200032,168.050298 48.288,168.4663 C47.6559968,168.882302 46.9520039,169.238299 46.176,169.5343 C45.3999961,169.830301 44.5680044,170.066299 43.68,170.2423 C42.7919956,170.418301 41.9000045,170.5063 41.004,170.5063 C39.3719918,170.5063 37.8840067,170.222303 36.54,169.6543 C35.1959933,169.086297 34.0440048,168.258305 33.084,167.1703 C32.1239952,166.082295 31.3840026,164.750308 30.864,163.1743 C30.3439974,161.598292 30.084,159.79431 30.084,157.7623 C30.084,156.050291 30.3279976,154.470307 30.816,153.0223 C31.3040024,151.574293 32.0079954,150.326305 32.928,149.2783 C33.8480046,148.230295 34.9759933,147.410303 36.312,146.8183 C37.6480067,146.226297 39.1639915,145.9303 40.86,145.9303 L40.86,145.9303 Z M40.884,147.6343 C39.6519938,147.6343 38.5480049,147.826298 37.572,148.2103 C36.5959951,148.594302 35.7520036,149.146296 35.04,149.8663 C34.3279964,150.586304 33.7520022,151.450295 33.312,152.4583 C32.8719978,153.466305 32.5800007,154.594294 32.436,155.8423 L48.18,155.8423 C48.18,154.562294 48.0040018,153.414305 47.652,152.3983 C47.2999982,151.382295 46.8040032,150.522304 46.164,149.8183 C45.5239968,149.114296 44.7560045,148.574302 43.86,148.1983 C42.9639955,147.822298 41.9720054,147.6343 40.884,147.6343 L40.884,147.6343 Z M56.388,178.6423 L56.388,146.3143 L57.636,146.3143 C57.844001,146.3143 58.0119994,146.3583 58.14,146.4463 C58.2680006,146.5343 58.3399999,146.690299 58.356,146.9143 L58.572,150.6103 C59.6280053,149.170293 60.8639929,148.026304 62.28,147.1783 C63.6960071,146.330296 65.2839912,145.9063 67.044,145.9063 C69.9880147,145.9063 72.2759918,146.92229 73.908,148.9543 C75.5400082,150.98631 76.356,154.03428 76.356,158.0983 C76.356,159.842309 76.1280023,161.470292 75.672,162.9823 C75.2159977,164.494308 74.5480044,165.806294 73.668,166.9183 C72.7879956,168.030306 71.7040064,168.906297 70.416,169.5463 C69.1279936,170.186303 67.6440084,170.5063 65.964,170.5063 C64.3319918,170.5063 62.9240059,170.210303 61.74,169.6183 C60.5559941,169.026297 59.5320043,168.146306 58.668,166.9783 L58.668,178.6423 L56.388,178.6423 Z M66.396,147.7543 C64.8119921,147.7543 63.3760064,148.166296 62.088,148.9903 C60.7999936,149.814304 59.660005,150.962293 58.668,152.4343 L58.668,164.9623 C59.5800046,166.338307 60.5919944,167.306297 61.704,167.8663 C62.8160056,168.426303 64.0839929,168.7063 65.508,168.7063 C66.916007,168.7063 68.1479947,168.450303 69.204,167.9383 C70.2600053,167.426297 71.1439964,166.702305 71.856,165.7663 C72.5680036,164.830295 73.1039982,163.710307 73.464,162.4063 C73.8240018,161.102293 74.004,159.666308 74.004,158.0983 C74.004,154.546282 73.3520065,151.934308 72.048,150.2623 C70.7439935,148.590292 68.8600123,147.7543 66.396,147.7543 L66.396,147.7543 Z M91.164,145.9303 C92.8760086,145.9303 94.4079932,146.222297 95.76,146.8063 C97.1120068,147.390303 98.2519954,148.218295 99.18,149.2903 C100.108005,150.362305 100.815998,151.654292 101.304,153.1663 C101.792002,154.678308 102.036,156.370291 102.036,158.2423 C102.036,160.114309 101.792002,161.802292 101.304,163.3063 C100.815998,164.810308 100.108005,166.098295 99.18,167.1703 C98.2519954,168.242305 97.1120068,169.066297 95.76,169.6423 C94.4079932,170.218303 92.8760086,170.5063 91.164,170.5063 C89.4519914,170.5063 87.9200068,170.218303 86.568,169.6423 C85.2159932,169.066297 84.0720047,168.242305 83.136,167.1703 C82.1999953,166.098295 81.4880024,164.810308 81,163.3063 C80.5119976,161.802292 80.268,160.114309 80.268,158.2423 C80.268,156.370291 80.5119976,154.678308 81,153.1663 C81.4880024,151.654292 82.1999953,150.362305 83.136,149.2903 C84.0720047,148.218295 85.2159932,147.390303 86.568,146.8063 C87.9200068,146.222297 89.4519914,145.9303 91.164,145.9303 L91.164,145.9303 Z M91.164,168.7063 C92.5880071,168.7063 93.8319947,168.462302 94.896,167.9743 C95.9600053,167.486298 96.8479964,166.786305 97.56,165.8743 C98.2720036,164.962295 98.8039982,163.862306 99.156,162.5743 C99.5080018,161.286294 99.684,159.842308 99.684,158.2423 C99.684,156.658292 99.5080018,155.218306 99.156,153.9223 C98.8039982,152.626294 98.2720036,151.518305 97.56,150.5983 C96.8479964,149.678295 95.9600053,148.970302 94.896,148.4743 C93.8319947,147.978298 92.5880071,147.7303 91.164,147.7303 C89.7399929,147.7303 88.4960053,147.978298 87.432,148.4743 C86.3679947,148.970302 85.4800036,149.678295 84.768,150.5983 C84.0559964,151.518305 83.5200018,152.626294 83.16,153.9223 C82.7999982,155.218306 82.62,156.658292 82.62,158.2423 C82.62,159.842308 82.7999982,161.286294 83.16,162.5743 C83.5200018,163.862306 84.0559964,164.962295 84.768,165.8743 C85.4800036,166.786305 86.3679947,167.486298 87.432,167.9743 C88.4960053,168.462302 89.7399929,168.7063 91.164,168.7063 L91.164,168.7063 Z M108.036,170.1943 L108.036,146.3143 L109.236,146.3143 C109.508001,146.3143 109.703999,146.370299 109.824,146.4823 C109.944001,146.594301 110.012,146.786299 110.028,147.0583 L110.22,152.0983 C110.988004,150.16229 112.011994,148.646305 113.292,147.5503 C114.572006,146.454295 116.147991,145.9063 118.02,145.9063 C118.740004,145.9063 119.403997,145.982299 120.012,146.1343 C120.620003,146.286301 121.195997,146.506299 121.74,146.7943 L121.428,148.3783 C121.38,148.634301 121.220001,148.7623 120.948,148.7623 C120.852,148.7623 120.716001,148.7303 120.54,148.6663 C120.363999,148.6023 120.144001,148.5303 119.88,148.4503 C119.615999,148.3703 119.292002,148.2983 118.908,148.2343 C118.523998,148.1703 118.084002,148.1383 117.588,148.1383 C115.779991,148.1383 114.296006,148.698294 113.136,149.8183 C111.975994,150.938306 111.036004,152.554289 110.316,154.6663 L110.316,170.1943 L108.036,170.1943 Z M133.62,170.5783 C132.003992,170.5783 130.744005,170.130304 129.84,169.2343 C128.935995,168.338296 128.484,166.954309 128.484,165.0823 L128.484,148.7623 L125.052,148.7623 C124.875999,148.7623 124.732001,148.7143 124.62,148.6183 C124.507999,148.5223 124.452,148.386301 124.452,148.2103 L124.452,147.3223 L128.532,147.0343 L129.108,138.4903 C129.124,138.346299 129.183999,138.218301 129.288,138.1063 C129.392001,137.994299 129.531999,137.9383 129.708,137.9383 L130.788,137.9383 L130.788,147.0583 L138.3,147.0583 L138.3,148.7623 L130.788,148.7623 L130.788,164.9623 C130.788,165.618303 130.871999,166.182298 131.04,166.6543 C131.208001,167.126302 131.439999,167.514298 131.736,167.8183 C132.032001,168.122302 132.379998,168.346299 132.78,168.4903 C133.180002,168.634301 133.611998,168.7063 134.076,168.7063 C134.652003,168.7063 135.147998,168.622301 135.564,168.4543 C135.980002,168.286299 136.339998,168.102301 136.644,167.9023 C136.948002,167.702299 137.195999,167.518301 137.388,167.3503 C137.580001,167.182299 137.731999,167.0983 137.844,167.0983 C137.972001,167.0983 138.099999,167.178299 138.228,167.3383 L138.852,168.3463 C138.243997,169.018303 137.472005,169.558298 136.536,169.9663 C135.599995,170.374302 134.628005,170.5783 133.62,170.5783 L133.62,170.5783 Z" id="Report"></path>
                <path d="M493.476,153.008 C493.476,155.632013 493.084004,157.99199 492.3,160.088 C491.515996,162.18401 490.412007,163.967993 488.988,165.44 C487.563993,166.912007 485.86001,168.039996 483.876,168.824 C481.89199,169.608004 479.692012,170 477.276,170 L464.892,170 L464.892,136.04 L477.276,136.04 C479.692012,136.04 481.89199,136.431996 483.876,137.216 C485.86001,138.000004 487.563993,139.127993 488.988,140.6 C490.412007,142.072007 491.515996,143.85599 492.3,145.952 C493.084004,148.04801 493.476,150.399987 493.476,153.008 L493.476,153.008 Z M490.932,153.008 C490.932,150.639988 490.604003,148.528009 489.948,146.672 C489.291997,144.815991 488.368006,143.248006 487.176,141.968 C485.983994,140.687994 484.548008,139.712003 482.868,139.04 C481.187992,138.367997 479.32401,138.032 477.276,138.032 L467.364,138.032 L467.364,168.008 L477.276,168.008 C479.32401,168.008 481.187992,167.672003 482.868,167 C484.548008,166.327997 485.983994,165.352006 487.176,164.072 C488.368006,162.791994 489.291997,161.224009 489.948,159.368 C490.604003,157.511991 490.932,155.392012 490.932,153.008 L490.932,153.008 Z M515.46,170 C514.979998,170 514.684001,169.776002 514.572,169.328 L514.236,166.28 C513.579997,166.920003 512.928003,167.495997 512.28,168.008 C511.631997,168.520003 510.956004,168.951998 510.252,169.304 C509.547996,169.656002 508.788004,169.923999 507.972,170.108 C507.155996,170.292001 506.260005,170.384 505.284,170.384 C504.467996,170.384 503.676004,170.264001 502.908,170.024 C502.139996,169.783999 501.460003,169.416002 500.868,168.92 C500.275997,168.423998 499.800002,167.788004 499.44,167.012 C499.079998,166.235996 498.9,165.304005 498.9,164.216 C498.9,163.207995 499.187997,162.272004 499.764,161.408 C500.340003,160.543996 501.239994,159.792003 502.464,159.152 C503.688006,158.511997 505.26399,158.000002 507.192,157.616 C509.12001,157.231998 511.435986,157.008 514.14,156.944 L514.14,154.448 C514.14,152.239989 513.664005,150.540006 512.712,149.348 C511.759995,148.155994 510.348009,147.56 508.476,147.56 C507.323994,147.56 506.344004,147.719998 505.536,148.04 C504.727996,148.360002 504.044003,148.711998 503.484,149.096 C502.923997,149.480002 502.468002,149.831998 502.116,150.152 C501.763998,150.472002 501.468001,150.632 501.228,150.632 C500.907998,150.632 500.668001,150.488001 500.508,150.2 L500.1,149.504 C501.348006,148.255994 502.659993,147.312003 504.036,146.672 C505.412007,146.031997 506.971991,145.712 508.716,145.712 C509.996006,145.712 511.115995,145.915998 512.076,146.324 C513.036005,146.732002 513.831997,147.315996 514.464,148.076 C515.096003,148.836004 515.571998,149.755995 515.892,150.836 C516.212002,151.916005 516.372,153.119993 516.372,154.448 L516.372,170 L515.46,170 Z M505.86,168.728 C506.788005,168.728 507.639996,168.628001 508.416,168.428 C509.192004,168.227999 509.911997,167.948002 510.576,167.588 C511.240003,167.227998 511.859997,166.800002 512.436,166.304 C513.012003,165.807998 513.579997,165.272003 514.14,164.696 L514.14,158.48 C511.867989,158.544 509.912008,158.715999 508.272,158.996 C506.631992,159.276001 505.280005,159.655998 504.216,160.136 C503.151995,160.616002 502.368003,161.187997 501.864,161.852 C501.359997,162.516003 501.108,163.271996 501.108,164.12 C501.108,164.920004 501.239999,165.611997 501.504,166.196 C501.768001,166.780003 502.115998,167.259998 502.548,167.636 C502.980002,168.012002 503.483997,168.287999 504.06,168.464 C504.636003,168.640001 505.235997,168.728 505.86,168.728 L505.86,168.728 Z M530.1,170.384 C528.483992,170.384 527.224005,169.936004 526.32,169.04 C525.415995,168.143996 524.964,166.760009 524.964,164.888 L524.964,148.568 L521.532,148.568 C521.355999,148.568 521.212001,148.52 521.1,148.424 C520.987999,148.328 520.932,148.192001 520.932,148.016 L520.932,147.128 L525.012,146.84 L525.588,138.296 C525.604,138.151999 525.663999,138.024001 525.768,137.912 C525.872001,137.799999 526.011999,137.744 526.188,137.744 L527.268,137.744 L527.268,146.864 L534.78,146.864 L534.78,148.568 L527.268,148.568 L527.268,164.768 C527.268,165.424003 527.351999,165.987998 527.52,166.46 C527.688001,166.932002 527.919999,167.319998 528.216,167.624 C528.512001,167.928002 528.859998,168.151999 529.26,168.296 C529.660002,168.440001 530.091998,168.512 530.556,168.512 C531.132003,168.512 531.627998,168.428001 532.044,168.26 C532.460002,168.091999 532.819998,167.908001 533.124,167.708 C533.428002,167.507999 533.675999,167.324001 533.868,167.156 C534.060001,166.987999 534.211999,166.904 534.324,166.904 C534.452001,166.904 534.579999,166.983999 534.708,167.144 L535.332,168.152 C534.723997,168.824003 533.952005,169.363998 533.016,169.772 C532.079995,170.180002 531.108005,170.384 530.1,170.384 L530.1,170.384 Z M555.924,170 C555.443998,170 555.148001,169.776002 555.036,169.328 L554.7,166.28 C554.043997,166.920003 553.392003,167.495997 552.744,168.008 C552.095997,168.520003 551.420004,168.951998 550.716,169.304 C550.011996,169.656002 549.252004,169.923999 548.436,170.108 C547.619996,170.292001 546.724005,170.384 545.748,170.384 C544.931996,170.384 544.140004,170.264001 543.372,170.024 C542.603996,169.783999 541.924003,169.416002 541.332,168.92 C540.739997,168.423998 540.264002,167.788004 539.904,167.012 C539.543998,166.235996 539.364,165.304005 539.364,164.216 C539.364,163.207995 539.651997,162.272004 540.228,161.408 C540.804003,160.543996 541.703994,159.792003 542.928,159.152 C544.152006,158.511997 545.72799,158.000002 547.656,157.616 C549.58401,157.231998 551.899986,157.008 554.604,156.944 L554.604,154.448 C554.604,152.239989 554.128005,150.540006 553.176,149.348 C552.223995,148.155994 550.812009,147.56 548.94,147.56 C547.787994,147.56 546.808004,147.719998 546,148.04 C545.191996,148.360002 544.508003,148.711998 543.948,149.096 C543.387997,149.480002 542.932002,149.831998 542.58,150.152 C542.227998,150.472002 541.932001,150.632 541.692,150.632 C541.371998,150.632 541.132001,150.488001 540.972,150.2 L540.564,149.504 C541.812006,148.255994 543.123993,147.312003 544.5,146.672 C545.876007,146.031997 547.435991,145.712 549.18,145.712 C550.460006,145.712 551.579995,145.915998 552.54,146.324 C553.500005,146.732002 554.295997,147.315996 554.928,148.076 C555.560003,148.836004 556.035998,149.755995 556.356,150.836 C556.676002,151.916005 556.836,153.119993 556.836,154.448 L556.836,170 L555.924,170 Z M546.324,168.728 C547.252005,168.728 548.103996,168.628001 548.88,168.428 C549.656004,168.227999 550.375997,167.948002 551.04,167.588 C551.704003,167.227998 552.323997,166.800002 552.9,166.304 C553.476003,165.807998 554.043997,165.272003 554.604,164.696 L554.604,158.48 C552.331989,158.544 550.376008,158.715999 548.736,158.996 C547.095992,159.276001 545.744005,159.655998 544.68,160.136 C543.615995,160.616002 542.832003,161.187997 542.328,161.852 C541.823997,162.516003 541.572,163.271996 541.572,164.12 C541.572,164.920004 541.703999,165.611997 541.968,166.196 C542.232001,166.780003 542.579998,167.259998 543.012,167.636 C543.444002,168.012002 543.947997,168.287999 544.524,168.464 C545.100003,168.640001 545.699997,168.728 546.324,168.728 L546.324,168.728 Z" id="Data"></path>
                <path d="M494.2081,1.2343 L494.2081,3.3223 L482.2801,3.3223 L482.2801,35.1943 L479.8321,35.1943 L479.8321,3.3223 L467.8321,3.3223 L467.8321,1.2343 L494.2081,1.2343 Z M502.7761,10.9303 C504.120107,10.9303 505.364094,11.1622977 506.5081,11.6263 C507.652106,12.0903023 508.644096,12.7662956 509.4841,13.6543 C510.324104,14.5423044 510.980098,15.6342935 511.4521,16.9303 C511.924102,18.2263065 512.1601,19.7142916 512.1601,21.3943 C512.1601,21.7463018 512.108101,21.9862994 512.0041,22.1143 C511.900099,22.2423006 511.736101,22.3063 511.5121,22.3063 L494.2561,22.3063 L494.2561,22.7623 C494.2561,24.554309 494.464098,26.1302932 494.8801,27.4903 C495.296102,28.8503068 495.888096,29.9902954 496.6561,30.9103 C497.424104,31.8303046 498.352095,32.5222977 499.4401,32.9863 C500.528105,33.4503023 501.744093,33.6823 503.0881,33.6823 C504.288106,33.6823 505.328096,33.5503013 506.2081,33.2863 C507.088104,33.0222987 507.828097,32.7263016 508.4281,32.3983 C509.028103,32.0702984 509.504098,31.7743013 509.8561,31.5103 C510.208102,31.2462987 510.464099,31.1143 510.6241,31.1143 C510.832101,31.1143 510.992099,31.1942992 511.1041,31.3543 L511.7281,32.1223 C511.344098,32.6023024 510.836103,33.0502979 510.2041,33.4663 C509.572097,33.8823021 508.868104,34.2382985 508.0921,34.5343 C507.316096,34.8303015 506.484104,35.0662991 505.5961,35.2423 C504.708096,35.4183009 503.816104,35.5063 502.9201,35.5063 C501.288092,35.5063 499.800107,35.2223028 498.4561,34.6543 C497.112093,34.0862972 495.960105,33.2583054 495.0001,32.1703 C494.040095,31.0822946 493.300103,29.7503079 492.7801,28.1743 C492.260097,26.5982921 492.0001,24.7943102 492.0001,22.7623 C492.0001,21.0502914 492.244098,19.4703072 492.7321,18.0223 C493.220102,16.5742928 493.924095,15.3263052 494.8441,14.2783 C495.764105,13.2302948 496.892093,12.410303 498.2281,11.8183 C499.564107,11.226297 501.080092,10.9303 502.7761,10.9303 L502.7761,10.9303 Z M502.8001,12.6343 C501.568094,12.6343 500.464105,12.8262981 499.4881,13.2103 C498.512095,13.5943019 497.668104,14.1462964 496.9561,14.8663 C496.244096,15.5863036 495.668102,16.450295 495.2281,17.4583 C494.788098,18.466305 494.496101,19.5942938 494.3521,20.8423 L510.0961,20.8423 C510.0961,19.5622936 509.920102,18.4143051 509.5681,17.3983 C509.216098,16.3822949 508.720103,15.5223035 508.0801,14.8183 C507.440097,14.1142965 506.672104,13.5743019 505.7761,13.1983 C504.880096,12.8222981 503.888105,12.6343 502.8001,12.6343 L502.8001,12.6343 Z M531.4561,14.2663 C531.344099,14.4903011 531.168101,14.6023 530.9281,14.6023 C530.752099,14.6023 530.524101,14.502301 530.2441,14.3023 C529.964099,14.102299 529.596102,13.8783012 529.1401,13.6303 C528.684098,13.3822988 528.124103,13.158301 527.4601,12.9583 C526.796097,12.758299 525.984105,12.6583 525.0241,12.6583 C524.160096,12.6583 523.372104,12.7822988 522.6601,13.0303 C521.948096,13.2783012 521.340103,13.6102979 520.8361,14.0263 C520.332097,14.4423021 519.940101,14.9262972 519.6601,15.4783 C519.380099,16.0303028 519.2401,16.610297 519.2401,17.2183 C519.2401,17.9703038 519.432098,18.5942975 519.8161,19.0903 C520.200102,19.5863025 520.704097,20.0102982 521.3281,20.3623 C521.952103,20.7143018 522.660096,21.0182987 523.4521,21.2743 C524.244104,21.5303013 525.056096,21.7862987 525.8881,22.0423 C526.720104,22.2983013 527.532096,22.5822984 528.3241,22.8943 C529.116104,23.2063016 529.824097,23.5942977 530.4481,24.0583 C531.072103,24.5223023 531.576098,25.0902966 531.9601,25.7623 C532.344102,26.4343034 532.5361,27.2502952 532.5361,28.2103 C532.5361,29.2503052 532.348102,30.2182955 531.9721,31.1143 C531.596098,32.0103045 531.052104,32.7862967 530.3401,33.4423 C529.628096,34.0983033 528.752105,34.6182981 527.7121,35.0023 C526.672095,35.3863019 525.488107,35.5783 524.1601,35.5783 C522.480092,35.5783 521.032106,35.3103027 519.8161,34.7743 C518.600094,34.2382973 517.512105,33.5383043 516.5521,32.6743 L517.1041,31.8583 C517.1841,31.7302994 517.2721,31.6343003 517.3681,31.5703 C517.4641,31.5062997 517.600099,31.4743 517.7761,31.4743 C517.984101,31.4743 518.240098,31.6022987 518.5441,31.8583 C518.848102,32.1143013 519.244098,32.3902985 519.7321,32.6863 C520.220102,32.9823015 520.828096,33.2582987 521.5561,33.5143 C522.284104,33.7703013 523.184095,33.8983 524.2561,33.8983 C525.264105,33.8983 526.152096,33.7583014 526.9201,33.4783 C527.688104,33.1982986 528.328097,32.8183024 528.8401,32.3383 C529.352103,31.8582976 529.740099,31.2943032 530.0041,30.6463 C530.268101,29.9982968 530.4001,29.3143036 530.4001,28.5943 C530.4001,27.794296 530.208102,27.1303026 529.8241,26.6023 C529.440098,26.0742974 528.936103,25.6263018 528.3121,25.2583 C527.688097,24.8902982 526.980104,24.5783013 526.1881,24.3223 C525.396096,24.0662987 524.580104,23.8103013 523.7401,23.5543 C522.900096,23.2982987 522.084104,23.0183015 521.2921,22.7143 C520.500096,22.4102985 519.792103,22.0263023 519.1681,21.5623 C518.544097,21.0982977 518.040102,20.5343033 517.6561,19.8703 C517.272098,19.2062967 517.0801,18.378305 517.0801,17.3863 C517.0801,16.5382958 517.264098,15.7223039 517.6321,14.9383 C518.000102,14.1542961 518.524097,13.466303 519.2041,12.8743 C519.884103,12.282297 520.712095,11.8103018 521.6881,11.4583 C522.664105,11.1062982 523.760094,10.9303 524.9761,10.9303 C526.432107,10.9303 527.724094,11.1382979 528.8521,11.5543 C529.980106,11.9703021 531.016095,12.6102957 531.9601,13.4743 L531.4561,14.2663 Z M545.4721,35.5783 C543.856092,35.5783 542.596105,35.1303045 541.6921,34.2343 C540.788095,33.3382955 540.3361,31.9543094 540.3361,30.0823 L540.3361,13.7623 L536.9041,13.7623 C536.728099,13.7623 536.584101,13.7143005 536.4721,13.6183 C536.360099,13.5222995 536.3041,13.3863009 536.3041,13.2103 L536.3041,12.3223 L540.3841,12.0343 L540.9601,3.4903 C540.9761,3.34629928 541.036099,3.21830056 541.1401,3.1063 C541.244101,2.99429944 541.384099,2.9383 541.5601,2.9383 L542.6401,2.9383 L542.6401,12.0583 L550.1521,12.0583 L550.1521,13.7623 L542.6401,13.7623 L542.6401,29.9623 C542.6401,30.6183033 542.724099,31.1822976 542.8921,31.6543 C543.060101,32.1263024 543.292099,32.5142985 543.5881,32.8183 C543.884101,33.1223015 544.232098,33.3462993 544.6321,33.4903 C545.032102,33.6343007 545.464098,33.7063 545.9281,33.7063 C546.504103,33.7063 547.000098,33.6223008 547.4161,33.4543 C547.832102,33.2862992 548.192098,33.102301 548.4961,32.9023 C548.800102,32.702299 549.048099,32.5183008 549.2401,32.3503 C549.432101,32.1822992 549.584099,32.0983 549.6961,32.0983 C549.824101,32.0983 549.952099,32.1782992 550.0801,32.3383 L550.7041,33.3463 C550.096097,34.0183034 549.324105,34.558298 548.3881,34.9663 C547.452095,35.374302 546.480105,35.5783 545.4721,35.5783 L545.4721,35.5783 Z" id="Test"></path>
            </g>
            <g id="Clipboard" transform="translate(322.000000, 286.000000)" fill="#FFFFFF" sketch:type="MSShapeGroup">
                <path d="M95.26,147.195 L20.335,147.195 C9.269,147.195 0.379,138.304 0.379,127.238 L0.379,39.251 C0.379,28.185 9.269,19.295 20.335,19.295 C21.423,19.295 22.149,20.02 22.149,21.109 C22.149,22.197 21.423,22.922 20.335,22.922 C11.264,22.922 4.007,30.179 4.007,39.25 L4.007,127.237 C4.007,136.309 11.263,143.565 20.335,143.565 L95.442,143.565 C104.512,143.565 111.769,136.309 111.769,127.237 L111.769,39.25 C111.769,30.179 104.512,22.922 95.442,22.922 C94.353,22.922 93.628,22.197 93.628,21.109 C93.628,20.02 94.354,19.295 95.442,19.295 C106.508,19.295 115.397,28.184 115.397,39.251 L115.397,127.238 C115.216,138.305 106.326,147.195 95.26,147.195 L95.26,147.195 Z" id="Shape"></path>
                <path d="M70.224,29.637 L45.37,29.637 C40.29,29.637 36.299,25.646 36.299,20.566 L36.299,16.756 C36.299,11.676 40.29,7.686 45.37,7.686 C46.458,7.686 47.184,8.412 47.184,9.5 C47.184,10.588 46.458,11.314 45.37,11.314 C42.286,11.314 39.928,13.671 39.928,16.756 L39.928,20.566 C39.928,23.65 42.286,26.008 45.37,26.008 L70.405,26.008 C73.489,26.008 75.848,23.65 75.848,20.566 L75.848,16.756 C75.848,13.672 73.49,11.314 70.405,11.314 C69.317,11.314 68.591,10.588 68.591,9.5 C68.591,8.412 69.317,7.686 70.405,7.686 C75.485,7.686 79.476,11.677 79.476,16.756 L79.476,20.566 C79.295,25.464 75.304,29.637 70.224,29.637 L70.224,29.637 Z" id="Shape"></path>
                <path d="M57.706,16.574 C53.352,16.574 49.724,12.946 49.724,8.592 C49.724,4.238 53.352,0.61 57.706,0.61 C62.06,0.61 65.688,4.238 65.688,8.592 C65.688,12.946 62.06,16.574 57.706,16.574 L57.706,16.574 Z M57.706,4.419 C55.348,4.419 53.352,6.415 53.352,8.773 C53.352,11.131 55.347,13.127 57.706,13.127 C60.065,13.127 62.06,11.132 62.06,8.773 C62.06,6.415 60.064,4.419 57.706,4.419 L57.706,4.419 Z" id="Shape"></path>
                <path d="M67.685,106.558 C66.959,106.558 66.233,106.196 66.052,105.469 L60.246,90.775 L58.069,97.125 C57.887,97.851 57.162,98.395 56.436,98.395 L23.781,98.395 C22.692,98.395 21.967,97.669 21.967,96.581 C21.967,95.493 22.692,94.767 23.781,94.767 L54.985,94.767 L58.432,85.153 C58.613,84.427 59.339,83.882 60.064,83.882 L60.064,83.882 C60.79,83.882 61.516,84.245 61.697,84.971 L67.322,99.303 L73.852,76.445 C74.034,75.719 74.76,75.175 75.666,75.175 L75.666,75.175 C76.574,75.175 77.117,75.719 77.299,76.627 L81.109,94.768 L92.357,94.768 C93.445,94.768 94.171,95.495 94.171,96.582 C94.171,97.671 93.445,98.396 92.357,98.396 L79.658,98.396 C78.751,98.396 78.025,97.852 77.844,96.945 L75.123,84.609 L69.136,105.653 C69.317,106.014 68.591,106.558 67.685,106.558 L67.685,106.558 L67.685,106.558 Z" id="Shape"></path>
                <path d="M95.804,146.469 C94.715,146.469 93.99,145.743 93.99,144.656 L93.99,133.045 C93.99,128.873 97.438,125.426 101.61,125.426 L113.22,125.426 C114.309,125.426 115.034,126.152 115.034,127.239 C115.034,128.328 114.308,129.054 113.22,129.054 L101.61,129.054 C99.432,129.054 97.619,130.867 97.619,133.044 L97.619,144.655 C97.618,145.562 96.711,146.469 95.804,146.469 L95.804,146.469 Z" id="Shape"></path>
                <path d="M32.126,67.008 C31.038,67.008 30.312,66.283 30.312,65.195 L30.312,44.332 C30.312,43.243 31.038,42.518 32.126,42.518 C33.215,42.518 33.94,43.243 33.94,44.332 L33.94,65.195 C33.94,66.102 33.215,67.008 32.126,67.008 L32.126,67.008 Z" id="Shape"></path>
                <path d="M32.126,67.008 C31.038,67.008 30.312,66.283 30.312,65.195 L30.312,44.332 C30.312,43.243 31.038,42.518 32.126,42.518 C33.215,42.518 33.94,43.243 33.94,44.332 L33.94,65.195 C33.94,66.102 33.215,67.008 32.126,67.008 L32.126,67.008 Z" id="Shape"></path>
                <path d="M42.648,56.487 L21.785,56.487 C20.697,56.487 19.971,55.761 19.971,54.673 C19.971,53.585 20.697,52.859 21.785,52.859 L42.648,52.859 C43.736,52.859 44.462,53.585 44.462,54.673 C44.462,55.761 43.555,56.487 42.648,56.487 L42.648,56.487 Z" id="Shape"></path>
                <path d="M91.632,48.867 L57.706,48.867 C56.618,48.867 55.892,48.141 55.892,47.053 C55.892,45.965 56.618,45.239 57.706,45.239 L91.632,45.239 C92.72,45.239 93.445,45.965 93.445,47.053 C93.445,48.141 92.539,48.867 91.632,48.867 L91.632,48.867 Z" id="Shape"></path>
                <path d="M91.632,56.124 L57.706,56.124 C56.618,56.124 55.892,55.398 55.892,54.31 C55.892,53.222 56.618,52.496 57.706,52.496 L91.632,52.496 C92.72,52.496 93.445,53.222 93.445,54.31 C93.445,55.398 92.539,56.124 91.632,56.124 L91.632,56.124 Z" id="Shape"></path>
                <path d="M91.632,63.38 L57.706,63.38 C56.618,63.38 55.892,62.654 55.892,61.566 C55.892,60.477 56.618,59.752 57.706,59.752 L91.632,59.752 C92.72,59.752 93.445,60.477 93.445,61.566 C93.445,62.655 92.539,63.38 91.632,63.38 L91.632,63.38 Z" id="Shape"></path>
            </g>
            <g id="choice" transform="translate(60.000000, 49.000000)" fill="#FFFFFF" sketch:type="MSShapeGroup">
                <path d="M151.81,109.293 C150.468,109.293 149.35,109.517 148.008,109.74 C145.996,104.596 140.852,100.796 135.038,100.796 C133.697,100.796 132.579,101.019 131.237,101.243 C129.224,96.099 124.081,92.299 118.266,92.299 C117.372,92.299 116.476,92.299 115.358,92.523 L115.358,76.868 C115.358,69.265 109.097,62.78 101.27,62.78 C93.443,62.78 87.182,69.041 87.182,76.868 L87.182,109.741 L72.422,124.725 C71.304,125.843 70.857,127.184 70.857,128.749 L70.857,167.885 C70.857,169.45 71.528,170.792 72.422,171.909 L87.63,187.116 L87.63,196.061 C87.63,199.192 90.089,201.652 93.221,201.652 C96.351,201.652 98.812,199.193 98.812,196.061 L98.812,184.879 C98.812,183.314 98.141,181.972 97.246,180.855 L82.04,165.647 L82.04,130.985 L87.631,125.394 L87.631,151.111 C87.631,154.241 90.09,156.702 93.222,156.702 C96.352,156.702 98.813,154.242 98.813,151.111 L98.813,77.09 C98.813,75.525 100.154,74.183 101.719,74.183 C103.284,74.183 104.626,75.525 104.626,77.09 L104.626,128.748 C104.626,131.879 107.086,134.339 110.216,134.339 C113.347,134.339 115.807,131.88 115.807,128.748 L115.807,106.386 C115.807,104.821 117.149,103.479 118.715,103.479 C120.28,103.479 121.622,104.821 121.622,106.386 L121.622,128.748 C121.622,131.879 124.082,134.339 127.213,134.339 C130.344,134.339 132.804,131.88 132.804,128.748 L132.804,114.66 C132.804,113.095 134.145,111.753 135.711,111.753 C137.277,111.753 138.619,113.095 138.619,114.66 L138.619,128.748 C138.619,131.879 141.078,134.339 144.21,134.339 C147.34,134.339 149.8,131.88 149.8,128.748 L149.8,123.157 C149.8,121.592 151.142,120.25 152.708,120.25 C154.273,120.25 155.615,121.592 155.615,123.157 L155.615,166.989 L150.248,182.866 C150.024,183.537 150.024,183.984 150.024,184.655 L150.024,191.811 L150.024,195.836 C150.024,198.967 152.484,201.427 155.615,201.427 C158.745,201.427 161.205,198.968 161.205,195.836 L161.205,185.55 L166.572,169.673 C166.796,169.002 166.796,168.555 166.796,167.884 L166.796,123.157 C165.898,115.555 159.413,109.293 151.81,109.293 L151.81,109.293 Z" id="Shape"></path>
                <path d="M157.4,0.164 C132.801,0.164 112.674,20.29 112.674,44.889 C112.674,69.488 132.8,89.615 157.4,89.615 C182,89.615 202.125,69.489 202.125,44.889 C202.125,20.289 182,0.164 157.4,0.164 L157.4,0.164 Z M157.4,78.434 C138.839,78.434 123.855,63.45 123.855,44.889 C123.855,26.328 138.839,11.346 157.4,11.346 C175.961,11.346 190.943,26.328 190.943,44.889 C190.943,63.45 175.961,78.434 157.4,78.434 L157.4,78.434 Z" id="Shape"></path>
                <path d="M169.252,25.21 L157.4,37.062 L145.548,25.21 L137.721,33.037 L149.574,44.889 L137.721,56.742 L145.548,64.568 L157.4,52.716 L169.252,64.568 L177.079,56.742 L165.227,44.889 L177.079,33.037 L169.252,25.21 Z" id="Shape"></path>
                <path d="M90.312,44.889 C90.312,20.29 70.186,0.164 45.586,0.164 C20.987,0.164 0.861,20.29 0.861,44.889 C0.861,69.488 20.987,89.615 45.586,89.615 C70.186,89.615 90.312,69.488 90.312,44.889 L90.312,44.889 Z M45.586,78.434 C27.025,78.434 12.043,63.45 12.043,44.889 C12.043,26.328 27.025,11.346 45.586,11.346 C64.147,11.346 79.131,26.328 79.131,44.889 C79.131,63.45 64.147,78.434 45.586,78.434 L45.586,78.434 Z" id="Shape"></path>
                <path d="M61.688,28.341 L41.785,48.244 L29.933,36.392 L22.105,44.219 L41.785,63.897 L69.515,36.392 L61.688,28.341 Z" id="Shape"></path>
            </g>
            <g id="data" transform="translate(503.000000, 508.000000)" fill="#FFFFFF" sketch:type="MSShapeGroup">
                <path d="M143.554,85.16 C144.259,81.109 144.649,76.949 144.649,72.695 C144.649,33.468 113.38,1.565 74.411,0.496 L74.411,71.053 L143.554,85.16 L143.554,85.16 Z" id="Shape"></path>
                <path d="M6.004,49.756 L69.317,75.785 L95.559,139.006 C88.109,141.613 80.326,142.934 72.395,142.934 C33.666,142.934 2.156,111.425 2.156,72.696 C2.158,64.844 3.451,57.137 6.004,49.756 L6.004,49.756 Z M4.828,47.096 C1.811,55.055 0.145,63.679 0.145,72.696 C0.145,112.598 32.493,144.947 72.397,144.947 C81.501,144.947 90.205,143.248 98.226,140.174 L70.945,74.456 L70.746,74.308 L70.384,74.048 L4.828,47.096 L4.828,47.096 Z" id="Shape"></path>
                <path d="M68.369,2.596 L68.369,66.687 L9.072,42.312 C14.429,31.166 22.635,21.625 32.904,14.627 C43.431,7.456 55.651,3.317 68.369,2.596 L68.369,2.596 Z M70.384,0.496 C41.787,1.28 17.353,18.666 6.363,43.374 L70.384,69.691 L70.384,0.496 L70.384,0.496 Z" id="Shape"></path>
                <path d="M79.025,78.158 L140.291,90.658 C135.095,110.32 121.344,127.008 102.998,135.91 L79.025,78.158 L79.025,78.158 Z M75.71,75.428 L101.945,138.625 C122.27,129.5 137.604,111.265 142.752,89.105 L75.71,75.428 L75.71,75.428 Z" id="Shape"></path>
                <g id="Group" transform="translate(162.000000, 51.000000)">
                    <rect id="Rectangle-path" x="0.193" y="0.969" width="8.63" height="8.63"></rect>
                    <path d="M35.11,7.801 L14.396,7.801 C13.007,7.801 11.88,6.674 11.88,5.283 C11.88,3.893 13.007,2.767 14.396,2.767 L35.11,2.767 C36.501,2.767 37.628,3.893 37.628,5.283 C37.628,6.674 36.501,7.801 35.11,7.801 L35.11,7.801 Z" id="Shape"></path>
                </g>
                <g id="Group" transform="translate(162.000000, 64.000000)">
                    <g id="Rectangle-path">
                        <rect x="0.193" y="0.731" width="8.63" height="8.63"></rect>
                    </g>
                    <path d="M35.11,7.564 L14.396,7.564 C13.007,7.564 11.88,6.436 11.88,5.046 C11.88,3.655 13.007,2.528 14.396,2.528 L35.11,2.528 C36.501,2.528 37.628,3.655 37.628,5.046 C37.628,6.437 36.501,7.564 35.11,7.564 L35.11,7.564 Z" id="Shape"></path>
                </g>
                <g id="Group" transform="translate(162.000000, 77.000000)">
                    <g>
                        <rect id="Rectangle-path" x="0.193" y="0.492" width="8.63" height="8.63"></rect>
                        <path d="M7.315,2.003 L7.315,7.611 L1.705,7.611 L1.705,2.003 L7.315,2.003 L7.315,2.003 Z M8.825,0.492 L0.195,0.492 L0.195,9.122 L8.825,9.122 L8.825,0.492 L8.825,0.492 Z" id="Shape"></path>
                    </g>
                    <path d="M35.11,7.324 L14.396,7.324 C13.007,7.324 11.88,6.199 11.88,4.807 C11.88,3.417 13.007,2.29 14.396,2.29 L35.11,2.29 C36.501,2.29 37.628,3.417 37.628,4.807 C37.628,6.199 36.501,7.324 35.11,7.324 L35.11,7.324 Z" id="Shape"></path>
                </g>
                <g id="Group" transform="translate(162.000000, 90.000000)">
                    <g>
                        <rect id="Rectangle-path" x="0.193" y="0.254" width="8.63" height="8.631"></rect>
                        <path d="M7.315,1.764 L7.315,7.373 L1.705,7.373 L1.705,1.764 L7.315,1.764 L7.315,1.764 Z M8.825,0.254 L0.195,0.254 L0.195,8.885 L8.825,8.885 L8.825,0.254 L8.825,0.254 Z" id="Shape"></path>
                    </g>
                    <path d="M35.11,7.086 L14.396,7.086 C13.007,7.086 11.88,5.959 11.88,4.568 C11.88,3.177 13.007,2.05 14.396,2.05 L35.11,2.05 C36.501,2.05 37.628,3.177 37.628,4.568 C37.628,5.959 36.501,7.086 35.11,7.086 L35.11,7.086 Z" id="Shape"></path>
                </g>
            </g>
            <g id="test" transform="translate(546.000000, 39.000000)" fill="#FFFFFF" sketch:type="MSShapeGroup">
                <path d="M86.767,160.122 C82.166,162.166 73.986,165.746 68.618,167.79 C80.633,173.925 91.881,180.06 99.549,187.473 L84.212,187.473 C81.911,182.105 76.543,178.271 70.408,178.271 C64.272,178.271 58.904,182.105 56.603,187.473 L25.417,187.473 C33.597,179.293 46.123,172.647 59.415,166.256 C60.949,165.489 62.482,164.722 64.017,163.955 C71.174,160.376 78.587,156.798 85.489,152.963 C104.662,141.971 120.765,128.168 120.765,105.928 C120.765,75.509 90.602,60.683 64.017,47.646 C47.913,39.722 32.32,32.053 23.372,21.828 L61.204,21.828 C63.505,27.196 68.873,30.775 75.009,30.775 C81.144,30.775 86.511,27.196 88.812,21.828 L101.593,21.828 C95.202,28.986 85.489,35.12 73.219,41.511 C71.43,42.533 69.641,43.301 67.851,44.323 C70.408,45.345 73.475,46.879 76.542,47.902 C80.376,49.692 84.211,51.225 86,51.992 C106.45,40.744 124.344,26.685 124.344,3.167 L109.006,3.167 C109.006,6.235 108.495,9.046 107.729,11.603 L89.58,11.603 C87.79,5.212 81.911,0.867 75.01,0.867 C68.108,0.867 62.484,5.213 60.439,11.603 L17.239,11.603 C16.216,9.046 15.705,5.979 15.705,3.167 L0.368,3.167 C0.623,33.586 30.787,48.412 57.372,61.449 C66.83,66.05 76.288,70.652 84.213,75.764 L40.757,75.764 C45.358,72.697 50.47,70.14 55.838,67.328 L40.501,58.125 C20.817,69.117 3.946,83.176 3.946,105.927 C3.946,128.678 20.817,142.738 40.245,153.729 L55.583,144.527 C49.703,141.46 44.079,138.392 39.223,135.069 L85.491,135.069 C79.356,139.159 72.455,142.738 65.297,146.317 C62.741,147.595 59.93,148.873 57.117,150.407 C50.982,153.474 44.592,156.542 38.457,159.865 C28.231,165.489 18.773,171.88 11.616,179.548 C4.715,187.472 0.113,196.93 0.113,208.434 L15.45,208.434 C15.45,204.6 16.217,201.021 17.751,197.698 L18.518,197.698 L55.329,197.698 C57.118,203.833 62.998,208.434 69.643,208.434 C76.289,208.434 82.169,203.832 83.958,197.698 L105.941,197.698 C107.475,201.021 108.242,204.6 108.242,208.434 L123.58,208.434 C124.344,185.172 106.706,171.113 86.767,160.122 L86.767,160.122 Z M72.708,11.604 C73.475,11.093 74.241,11.093 75.009,11.093 C75.776,11.093 76.798,11.348 77.309,11.604 C78.843,12.371 79.866,13.904 79.866,15.694 C79.866,18.25 77.821,20.551 75.01,20.551 C72.453,20.551 70.153,18.506 70.153,15.694 C70.151,13.904 71.174,12.37 72.708,11.604 L72.708,11.604 Z M27.974,85.734 L95.714,85.734 L96.736,85.734 C100.826,90.08 103.893,94.937 104.916,100.56 L60.949,100.56 C58.903,94.681 53.28,90.591 46.889,90.591 C40.498,90.591 34.874,94.681 32.829,100.56 L20.048,100.56 C21.071,95.192 23.883,90.336 27.974,85.734 L27.974,85.734 Z M51.746,105.673 C51.746,108.229 49.445,110.53 46.89,110.53 C44.333,110.53 42.033,108.485 42.033,105.673 C42.033,103.117 44.078,100.816 46.89,100.816 C49.445,101.072 51.746,103.117 51.746,105.673 L51.746,105.673 Z M27.206,124.845 C23.628,120.755 21.071,116.154 20.049,111.041 L32.83,111.041 C34.875,116.92 40.499,121.01 46.89,121.01 C53.281,121.01 58.904,116.92 60.95,111.041 L104.917,111.041 C103.895,116.153 101.339,120.754 97.76,124.845 L27.206,124.845 L27.206,124.845 Z M72.196,197.698 C71.684,197.954 70.918,198.209 70.151,198.209 C69.384,198.209 68.617,197.954 68.106,197.698 C66.572,196.931 65.294,195.397 65.294,193.352 C65.294,190.796 67.34,188.495 70.151,188.495 C72.708,188.495 75.008,190.54 75.008,193.352 C75.009,195.397 73.729,196.931 72.196,197.698 L72.196,197.698 Z" id="Shape"></path>
            </g>
            <g id="Information" transform="translate(66.000000, 491.000000)" fill="#FFFFFF" sketch:type="MSShapeGroup">
                <g id="Group">
                    <g transform="translate(0.000000, 60.000000)">
                        <rect id="Rectangle-path" x="0.305" y="120.829" width="179.974" height="7.998"></rect>
                        <path d="M55.896,128.827 L21.901,128.827 L21.901,60.837 L55.496,60.837 L55.496,128.827 L55.896,128.827 L55.896,128.827 Z M29.901,120.829 L47.498,120.829 L47.498,68.835 L29.901,68.835 L29.901,120.829 L29.901,120.829 Z" id="Shape"></path>
                        <path d="M107.089,128.827 L73.494,128.827 L73.494,0.846 L107.089,0.846 L107.089,128.827 L107.089,128.827 Z M81.493,120.829 L99.09,120.829 L99.09,8.845 L81.493,8.845 L81.493,120.829 L81.493,120.829 Z" id="Shape"></path>
                        <path d="M158.682,128.827 L125.087,128.827 L125.087,40.84 L158.682,40.84 L158.682,128.827 L158.682,128.827 Z M132.686,120.829 L150.283,120.829 L150.283,48.84 L132.686,48.84 L132.686,120.829 L132.686,120.829 Z" id="Shape"></path>
                    </g>
                    <g transform="translate(38.000000, 0.000000)" id="Shape">
                        <path d="M43.894,110.838 L43.894,110.838 C28.296,110.838 13.498,102.44 5.899,88.842 C-6.1,67.645 1.1,40.848 21.897,28.851 C28.696,24.851 36.295,22.851 43.894,22.851 C59.491,22.851 74.289,31.25 81.888,44.849 C87.887,54.846 89.487,66.845 86.287,78.043 C83.087,89.24 75.888,98.841 65.89,104.839 C59.091,108.84 51.492,110.838 43.894,110.838 L43.894,110.838 Z M43.493,30.85 C37.094,30.85 31.095,32.45 25.495,35.649 C8.298,45.648 2.299,67.645 12.297,84.842 C18.696,96.04 30.694,102.84 43.492,102.84 L43.492,102.84 C49.891,102.84 55.89,101.24 61.489,98.04 C69.888,93.241 75.887,85.642 78.287,76.043 C80.686,66.845 79.487,57.246 74.687,48.848 C68.289,37.649 56.691,30.85 43.493,30.85 L43.493,30.85 Z"></path>
                        <path d="M93.886,56.445 L92.686,50.846 C91.886,47.246 90.686,44.047 88.686,40.847 C86.686,37.649 84.687,34.849 81.887,32.449 L77.888,28.85 L122.281,2.853 C124.68,1.254 127.48,0.854 130.28,0.854 C135.879,0.854 141.478,4.053 144.278,8.852 C148.677,16.451 145.878,26.45 138.279,30.849 L93.886,56.445 L93.886,56.445 Z M91.086,30.45 C92.686,32.449 94.286,34.849 95.885,36.848 C97.085,39.248 98.284,41.647 99.085,44.047 L134.279,23.651 C138.279,21.252 139.479,16.451 137.079,12.852 C135.079,9.252 129.88,7.653 126.281,10.052 L91.086,30.45 L91.086,30.45 Z"></path>
                    </g>
                </g>
            </g>
        </g>
    </g>
</svg>