<?xml version="1.0" encoding="UTF-8" standalone="no"?>
<svg width="750px" height="750px" viewBox="0 0 750 750" version="1.1" xmlns="http://www.w3.org/2000/svg" xmlns:xlink="http://www.w3.org/1999/xlink" xmlns:sketch="http://www.bohemiancoding.com/sketch/ns">
    <!-- Generator: Sketch 3.4.4 (17249) - http://www.bohemiancoding.com/sketch -->
    <title>Bounding Box</title>
    <desc>Created with Sketch.</desc>
    <defs></defs>
    <g id="Page-1" stroke="none" stroke-width="1" fill="none" fill-rule="evenodd" sketch:type="MSPage">
        <rect id="Bounding-Box" stroke="#FFFFFF" stroke-width="6" sketch:type="MSShapeGroup" x="5" y="4" width="741" height="741" rx="48"></rect>
        <g id="Technology-Solutions" sketch:type="MSLayerGroup" transform="translate(99.000000, 39.000000)" fill="#FFFFFF">
            <ellipse id="Oval" sketch:type="MSShapeGroup" cx="233.519192" cy="624.890787" rx="9.94890411" ry="9.94314607"></ellipse>
            <path d="M206.371795,473.793506 L260.658877,473.793506 C267.993301,473.793506 273.931795,467.850742 273.931795,460.52827 C273.931795,453.205798 267.993301,447.263034 260.658877,447.263034 L206.371795,447.263034 C199.03737,447.263034 193.098877,453.205798 193.098877,460.52827 C193.098877,467.843034 199.03737,473.793506 206.371795,473.793506 L206.371795,473.793506 Z" id="Shape" sketch:type="MSShapeGroup"></path>
            <path d="M530.274178,222.748337 L415.969753,222.748337 C402.881932,222.748337 392.238918,233.385191 392.238918,246.45773 L392.238918,274.653101 L314.475507,238.164067 L314.475507,203.902607 C314.475507,201.821483 314.005055,199.879101 313.310945,198.036921 C314.005055,195.917258 314.475507,193.689685 314.475507,191.315663 L314.475507,22.2436404 C314.475507,10.2039551 304.673137,0.399550562 292.611055,0.399550562 L21.9391644,0.399550562 C9.88479452,0.399550562 0.0824246575,10.1962472 0.0824246575,22.2436404 L0.0824246575,191.315663 C0.0824246575,193.681978 0.560589041,195.909551 1.25469863,198.036921 C0.552876712,199.879101 0.0824246575,201.821483 0.0824246575,203.902607 L0.0824246575,311.103596 C0.0824246575,321.524629 9.48375342,329.386652 21.9391644,329.386652 L166.969507,329.386652 L187.360904,411.722067 L176.355411,411.722067 C163.275301,411.722067 152.632288,422.358921 152.632288,435.423753 L152.632288,650.426944 C152.632288,663.491775 163.275301,674.128629 176.355411,674.128629 L290.67526,674.128629 C303.75537,674.128629 314.398384,663.491775 314.398384,650.426944 L314.398384,490.989753 L392.238918,424.185685 L392.238918,461.445506 C392.238918,474.518045 402.881932,485.154899 415.969753,485.154899 L530.274178,485.154899 C543.354288,485.154899 553.997301,474.518045 553.997301,461.445506 L553.997301,246.45773 C553.997301,233.385191 543.362,222.748337 530.274178,222.748337 L530.274178,222.748337 Z M26.6128356,26.9223146 L287.929671,26.9223146 L287.929671,185.627258 L26.6128356,185.627258 L26.6128356,26.9223146 L26.6128356,26.9223146 Z M26.6128356,302.848472 L26.6128356,212.15773 L287.929671,212.165438 L287.929671,302.85618 L26.6128356,302.848472 L26.6128356,302.848472 Z M287.86026,647.605865 L179.170411,647.605865 L179.170411,438.237124 L287.86026,438.237124 L287.86026,647.605865 L287.86026,647.605865 Z M392.238918,389.238225 L314.398384,456.034584 L314.398384,435.416045 C314.398384,422.351213 303.75537,411.71436 290.67526,411.71436 L214.693397,411.71436 L194.302,329.378944 L292.603342,329.378944 C305.066466,329.378944 314.467795,321.516921 314.467795,311.095888 L314.467795,267.453955 L392.231205,303.950697 L392.231205,389.238225 L392.238918,389.238225 Z M527.459178,458.639843 L418.777041,458.639843 L418.777041,249.271101 L527.459178,249.271101 L527.459178,458.639843 L527.459178,458.639843 Z" id="Shape" sketch:type="MSShapeGroup"></path>
            <path d="M436.515397,391.966809 L442.700685,391.966809 C448.816562,391.966809 453.767877,387.010652 453.767877,380.906022 C453.767877,374.801393 448.816562,369.845236 442.700685,369.845236 L436.515397,369.845236 C430.399521,369.845236 425.440493,374.801393 425.440493,380.906022 C425.440493,387.010652 430.399521,391.966809 436.515397,391.966809 L436.515397,391.966809 Z" id="Shape" sketch:type="MSShapeGroup"></path>
            <path d="M470.033178,391.966809 L476.218466,391.966809 C482.334342,391.966809 487.29337,387.010652 487.29337,380.906022 C487.29337,374.801393 482.334342,369.845236 476.218466,369.845236 L470.033178,369.845236 C463.917301,369.845236 458.965986,374.801393 458.965986,380.906022 C458.965986,387.010652 463.917301,391.966809 470.033178,391.966809 L470.033178,391.966809 Z" id="Shape" sketch:type="MSShapeGroup"></path>
            <path d="M503.543247,391.966809 L509.736247,391.966809 C515.852123,391.966809 520.803438,387.010652 520.803438,380.906022 C520.803438,374.801393 515.852123,369.845236 509.736247,369.845236 L503.543247,369.845236 C497.42737,369.845236 492.483767,374.801393 492.483767,380.906022 C492.483767,387.010652 497.42737,391.966809 503.543247,391.966809 L503.543247,391.966809 Z" id="Shape" sketch:type="MSShapeGroup"></path>
            <path d="M436.515397,421.233573 L442.700685,421.233573 C448.816562,421.233573 453.767877,416.269708 453.767877,410.165079 C453.767877,404.060449 448.816562,399.112 442.700685,399.112 L436.515397,399.112 C430.399521,399.112 425.440493,404.060449 425.440493,410.165079 C425.440493,416.269708 430.399521,421.233573 436.515397,421.233573 L436.515397,421.233573 Z" id="Shape" sketch:type="MSShapeGroup"></path>
            <path d="M470.033178,421.233573 L476.218466,421.233573 C482.334342,421.233573 487.29337,416.269708 487.29337,410.165079 C487.29337,404.060449 482.334342,399.112 476.218466,399.112 L470.033178,399.112 C463.917301,399.112 458.965986,404.060449 458.965986,410.165079 C458.965986,416.269708 463.917301,421.233573 470.033178,421.233573 L470.033178,421.233573 Z" id="Shape" sketch:type="MSShapeGroup"></path>
            <path d="M503.543247,421.233573 L509.736247,421.233573 C515.852123,421.233573 520.803438,416.269708 520.803438,410.165079 C520.803438,404.060449 515.852123,399.112 509.736247,399.112 L503.543247,399.112 C497.42737,399.112 492.483767,404.060449 492.483767,410.165079 C492.483767,416.269708 497.42737,421.233573 503.543247,421.233573 L503.543247,421.233573 Z" id="Shape" sketch:type="MSShapeGroup"></path>
            <path d="M436.515397,450.492629 L442.700685,450.492629 C448.816562,450.492629 453.767877,445.54418 453.767877,439.439551 C453.767877,433.334921 448.816562,428.371056 442.700685,428.371056 L436.515397,428.371056 C430.399521,428.371056 425.440493,433.334921 425.440493,439.439551 C425.440493,445.54418 430.399521,450.492629 436.515397,450.492629 L436.515397,450.492629 Z" id="Shape" sketch:type="MSShapeGroup"></path>
            <path d="M470.033178,450.492629 L476.218466,450.492629 C482.334342,450.492629 487.29337,445.54418 487.29337,439.439551 C487.29337,433.334921 482.334342,428.371056 476.218466,428.371056 L470.033178,428.371056 C463.917301,428.371056 458.965986,433.334921 458.965986,439.439551 C458.965986,445.54418 463.917301,450.492629 470.033178,450.492629 L470.033178,450.492629 Z" id="Shape" sketch:type="MSShapeGroup"></path>
            <path d="M503.543247,450.492629 L509.736247,450.492629 C515.852123,450.492629 520.803438,445.54418 520.803438,439.439551 C520.803438,433.334921 515.852123,428.371056 509.736247,428.371056 L503.543247,428.371056 C497.42737,428.371056 492.483767,433.334921 492.483767,439.439551 C492.483767,445.54418 497.42737,450.492629 503.543247,450.492629 L503.543247,450.492629 Z" id="Shape" sketch:type="MSShapeGroup"></path>
            <path d="M52.0480959,239.520652 L58.2333836,239.520652 C64.3415479,239.520652 69.3005753,234.564494 69.3005753,228.459865 C69.3005753,222.355236 64.3415479,217.399079 58.2333836,217.399079 L52.0480959,217.399079 C45.9399315,217.399079 40.9809041,222.355236 40.9809041,228.459865 C40.9809041,234.564494 45.9322192,239.520652 52.0480959,239.520652 L52.0480959,239.520652 Z" id="Shape" sketch:type="MSShapeGroup"></path>
            <path d="M85.7509726,239.520652 L91.9362603,239.520652 C98.0444247,239.520652 103.003452,234.564494 103.003452,228.459865 C103.003452,222.355236 98.0444247,217.399079 91.9362603,217.399079 L85.7509726,217.399079 C79.6428082,217.399079 74.6837808,222.355236 74.6837808,228.459865 C74.6837808,234.564494 79.6428082,239.520652 85.7509726,239.520652 L85.7509726,239.520652 Z" id="Shape" sketch:type="MSShapeGroup"></path>
            <path d="M119.453849,239.520652 L125.646849,239.520652 C131.755014,239.520652 136.706329,234.564494 136.706329,228.459865 C136.706329,222.355236 131.755014,217.399079 125.646849,217.399079 L119.453849,217.399079 C113.345685,217.399079 108.386658,222.355236 108.386658,228.459865 C108.386658,234.564494 113.345685,239.520652 119.453849,239.520652 L119.453849,239.520652 Z" id="Shape" sketch:type="MSShapeGroup"></path>
            <path d="M153.156726,239.520652 L159.342014,239.520652 C165.450178,239.520652 170.409205,234.564494 170.409205,228.459865 C170.409205,222.355236 165.450178,217.399079 159.342014,217.399079 L153.156726,217.399079 C147.048562,217.399079 142.089534,222.355236 142.089534,228.459865 C142.089534,234.564494 147.048562,239.520652 153.156726,239.520652 L153.156726,239.520652 Z" id="Shape" sketch:type="MSShapeGroup"></path>
            <path d="M186.859603,239.520652 L193.04489,239.520652 C199.153055,239.520652 204.10437,234.564494 204.10437,228.459865 C204.10437,222.355236 199.153055,217.399079 193.04489,217.399079 L186.859603,217.399079 C180.751438,217.399079 175.792411,222.355236 175.792411,228.459865 C175.792411,234.564494 180.751438,239.520652 186.859603,239.520652 L186.859603,239.520652 Z" id="Shape" sketch:type="MSShapeGroup"></path>
            <path d="M220.570192,239.520652 L226.755479,239.520652 C232.863644,239.520652 237.822671,234.564494 237.822671,228.459865 C237.822671,222.355236 232.871356,217.399079 226.755479,217.399079 L220.570192,217.399079 C214.462027,217.399079 209.510712,222.355236 209.510712,228.459865 C209.510712,234.564494 214.454315,239.520652 220.570192,239.520652 L220.570192,239.520652 Z" id="Shape" sketch:type="MSShapeGroup"></path>
            <path d="M260.458356,217.399079 L254.273068,217.399079 C248.164904,217.399079 243.205877,222.355236 243.205877,228.459865 C243.205877,234.564494 248.164904,239.520652 254.273068,239.520652 L260.458356,239.520652 C266.566521,239.520652 271.525548,234.564494 271.525548,228.459865 C271.525548,222.355236 266.566521,217.399079 260.458356,217.399079 L260.458356,217.399079 Z" id="Shape" sketch:type="MSShapeGroup"></path>
            <path d="M210.004301,275.477843 L102.502151,275.477843 C96.3939863,275.477843 91.4349589,280.434 91.4349589,286.538629 C91.4349589,292.643258 96.3939863,297.599416 102.502151,297.599416 L210.004301,297.599416 C216.112466,297.599416 221.071493,292.643258 221.071493,286.538629 C221.071493,280.434 216.120178,275.477843 210.004301,275.477843 L210.004301,275.477843 Z" id="Shape" sketch:type="MSShapeGroup"></path>
            <path d="M252.838575,275.477843 L239.288014,275.477843 C233.179849,275.477843 228.228534,280.434 228.228534,286.538629 C228.228534,292.643258 233.179849,297.599416 239.288014,297.599416 L252.838575,297.599416 C258.94674,297.599416 263.905767,292.643258 263.905767,286.538629 C263.905767,280.434 258.94674,275.477843 252.838575,275.477843 L252.838575,275.477843 Z" id="Shape" sketch:type="MSShapeGroup"></path>
            <path d="M74.6297945,275.477843 L67.7735342,275.477843 C61.6653699,275.477843 56.7063425,280.434 56.7063425,286.538629 C56.7063425,292.643258 61.6576575,297.599416 67.7735342,297.599416 L74.6297945,297.599416 C80.7379589,297.599416 85.6969863,292.643258 85.6969863,286.538629 C85.6969863,280.434 80.7379589,275.477843 74.6297945,275.477843 L74.6297945,275.477843 Z" id="Shape" sketch:type="MSShapeGroup"></path>
            <path d="M69.3005753,257.503101 C69.3005753,251.390764 64.3415479,246.442315 58.2333836,246.442315 L52.0480959,246.442315 C45.9399315,246.442315 40.9809041,251.390764 40.9809041,257.503101 C40.9809041,263.60773 45.9322192,268.55618 52.0480959,268.55618 L58.2333836,268.55618 C64.3415479,268.55618 69.3005753,263.60773 69.3005753,257.503101 L69.3005753,257.503101 Z" id="Shape" sketch:type="MSShapeGroup"></path>
            <path d="M103.003452,257.503101 C103.003452,251.390764 98.0444247,246.442315 91.9362603,246.442315 L85.7509726,246.442315 C79.6428082,246.442315 74.6837808,251.390764 74.6837808,257.503101 C74.6837808,263.60773 79.6428082,268.55618 85.7509726,268.55618 L91.9362603,268.55618 C98.0444247,268.55618 103.003452,263.60773 103.003452,257.503101 L103.003452,257.503101 Z" id="Shape" sketch:type="MSShapeGroup"></path>
            <path d="M119.453849,268.55618 L125.646849,268.55618 C131.755014,268.55618 136.706329,263.60773 136.706329,257.503101 C136.706329,251.390764 131.755014,246.442315 125.646849,246.442315 L119.453849,246.442315 C113.345685,246.442315 108.386658,251.390764 108.386658,257.503101 C108.39437,263.60773 113.345685,268.55618 119.453849,268.55618 L119.453849,268.55618 Z" id="Shape" sketch:type="MSShapeGroup"></path>
            <path d="M153.156726,268.55618 L159.342014,268.55618 C165.450178,268.55618 170.409205,263.60773 170.409205,257.503101 C170.409205,251.390764 165.450178,246.442315 159.342014,246.442315 L153.156726,246.442315 C147.048562,246.442315 142.089534,251.390764 142.089534,257.503101 C142.089534,263.60773 147.048562,268.55618 153.156726,268.55618 L153.156726,268.55618 Z" id="Shape" sketch:type="MSShapeGroup"></path>
            <path d="M186.859603,268.55618 L193.04489,268.55618 C199.153055,268.55618 204.10437,263.60773 204.10437,257.503101 C204.10437,251.390764 199.153055,246.442315 193.04489,246.442315 L186.859603,246.442315 C180.751438,246.442315 175.792411,251.390764 175.792411,257.503101 C175.792411,263.60773 180.751438,268.55618 186.859603,268.55618 L186.859603,268.55618 Z" id="Shape" sketch:type="MSShapeGroup"></path>
            <path d="M237.814959,257.503101 C237.814959,251.390764 232.863644,246.442315 226.747767,246.442315 L220.562479,246.442315 C214.454315,246.442315 209.503,251.390764 209.503,257.503101 C209.503,263.60773 214.454315,268.55618 220.562479,268.55618 L226.747767,268.55618 C232.863644,268.55618 237.814959,263.60773 237.814959,257.503101 L237.814959,257.503101 Z" id="Shape" sketch:type="MSShapeGroup"></path>
            <path d="M260.458356,246.442315 L254.273068,246.442315 C248.164904,246.442315 243.205877,251.390764 243.205877,257.503101 C243.205877,263.60773 248.164904,268.55618 254.273068,268.55618 L260.458356,268.55618 C266.566521,268.55618 271.525548,263.60773 271.525548,257.503101 C271.517836,251.390764 266.566521,246.442315 260.458356,246.442315 L260.458356,246.442315 Z" id="Shape" sketch:type="MSShapeGroup"></path>
        </g>
    </g>
</svg>