<?xml version="1.0" encoding="UTF-8" standalone="no"?>
<svg width="235px" height="177px" viewBox="0 0 235 177" version="1.1" xmlns="http://www.w3.org/2000/svg" xmlns:xlink="http://www.w3.org/1999/xlink" xmlns:sketch="http://www.bohemiancoding.com/sketch/ns">
    <!-- Generator: Sketch 3.4.4 (17249) - http://www.bohemiancoding.com/sketch -->
    <title>Health_Systems</title>
    <desc>Created with Sketch.</desc>
    <defs></defs>
    <g id="Page-1" stroke="none" stroke-width="1" fill="none" fill-rule="evenodd" sketch:type="MSPage">
        <g id="icon-health-systems" sketch:type="MSLayerGroup" transform="translate(-1.000000, 0.000000)" fill="#111111">
            <g id="Page-1" sketch:type="MSShapeGroup">
                <g id="Health_Systems">
                    <path d="M103.416,42.5039059 L98.501,42.5039059 L93.509,42.5039059 L93.509,38.0341353 L93.509,32.1858471 C93.509,29.8629824 91.696,27.9753294 89.462,27.9753294 L66.799,27.9753294 C64.565,27.9753294 62.754,29.8629824 62.754,32.1858471 L62.754,38.0341353 L62.754,42.5039059 L58.844,42.5039059 L52.845,42.5039059 C50.605,42.5039059 48.798,44.3915588 48.798,46.7175471 L48.798,70.3137294 C48.798,72.6428412 50.608,74.5273706 52.845,74.5273706 L58.844,74.5273706 L62.754,74.5273706 L62.754,77.8955765 L62.754,84.8412647 C62.754,87.1714176 64.567,89.0590706 66.799,89.0590706 L89.462,89.0590706 C91.699,89.0590706 93.509,87.1714176 93.509,84.8412647 L93.509,77.8955765 L93.509,74.5273706 L98.501,74.5273706 L103.416,74.5273706 C105.656,74.5273706 107.464,72.6428412 107.464,70.3137294 L107.464,46.7185882 C107.464,44.3915588 105.654,42.5039059 103.416,42.5039059 L103.416,42.5039059 L103.416,42.5039059 Z M99.373,66.0969647 L98.501,66.0969647 L89.462,66.0969647 L85.415,66.0969647 L85.415,70.3137294 L85.415,77.8966176 L85.415,80.6317882 L70.846,80.6317882 L70.846,77.8966176 L70.846,70.3137294 L70.846,66.0969647 L66.799,66.0969647 L58.844,66.0969647 L56.892,66.0969647 L56.892,50.9291059 L58.844,50.9291059 L66.799,50.9291059 L70.846,50.9291059 L70.846,46.7185882 L70.846,38.0351765 L70.846,36.4015706 L85.415,36.4015706 L85.415,38.0351765 L85.415,46.7185882 L85.415,50.9291059 L89.462,50.9291059 L98.501,50.9291059 L99.373,50.9291059 L99.373,66.0969647 L99.373,66.0969647 L99.373,66.0969647 Z" id="Shape"></path>
                    <path d="M213.877,167.312656 L213.877,76.5993021 C213.877,73.9902561 212.065,71.8747819 209.831,71.8747819 L132.089,71.8747819 L132.089,4.72218647 C132.089,2.11430736 130.276,0 128.042,0 L28.22,0 C25.98,0 24.17,2.11430736 24.17,4.72218647 L24.17,167.316156 L5.014,167.316156 C2.78,167.316156 0.973,169.431631 0.973,172.034842 C0.973,174.646222 2.783,176.760529 5.014,176.760529 L26.908,176.760529 C27.776,176.725524 27.991,176.760529 28.218,176.760529 L128.036,176.760529 L148.487,176.760529 C150.724,176.760529 152.534,174.646222 152.534,172.034842 L152.534,129.038092 L185.333,129.038092 L185.333,172.034842 C185.333,174.646222 187.144,176.760529 189.38,176.760529 L209.828,176.760529 L231.722,176.760529 C233.954,176.760529 235.766,174.646222 235.766,172.034842 C235.768,169.431631 233.955,167.312656 231.724,167.312656 L213.877,167.312656 L213.877,167.312656 Z M32.264,9.44087244 L123.994,9.44087244 L123.994,76.5993021 L123.994,167.312656 L32.264,167.312656 L32.264,9.44087244 L32.264,9.44087244 L32.264,9.44087244 Z M189.383,119.593719 L148.489,119.593719 C146.252,119.593719 144.441,121.708026 144.441,124.319406 L144.441,167.312656 L132.088,167.312656 L132.088,81.3191549 L205.788,81.3191549 L205.788,167.312656 L193.43,167.312656 L193.43,124.319406 C193.43,121.712694 191.617,119.593719 189.383,119.593719 L189.383,119.593719 L189.383,119.593719 Z" id="Shape"></path>
                </g>
            </g>
        </g>
    </g>
</svg>