<?xml version="1.0" encoding="UTF-8" standalone="no"?>
<svg width="273px" height="365px" viewBox="0 0 273 365" version="1.1" xmlns="http://www.w3.org/2000/svg" xmlns:xlink="http://www.w3.org/1999/xlink" xmlns:sketch="http://www.bohemiancoding.com/sketch/ns">
    <!-- Generator: Sketch 3.5.1 (25234) - http://www.bohemiancoding.com/sketch -->
    <title>Practice</title>
    <desc>Created with Sketch.</desc>
    <defs></defs>
    <g id="Page-1" stroke="none" stroke-width="1" fill="none" fill-rule="evenodd" sketch:type="MSPage">
        <g id="Practice" sketch:type="MSLayerGroup" transform="translate(3.000000, 3.000000)">
            <path d="M38.381,242.847 L45.233,246.108 C49.289,248.018 50.518,249.072 50.518,251.507 C50.518,254.801 48.103,256.355 43.188,256.355 C40.504,256.355 38.425,256.062 36.339,255.991 L35.706,252.001 L29,252.001 L29,263.655 C31,264.134 36,264.768 40,264.965 L40,272 L50,272 L50,264.697 C57,263.444 62.456,258.868 62.448,251.13 C62.448,243.772 58.122,240.666 50.857,237.407 L44.295,234.535 C40.139,232.68 39.045,231.639 39.045,229.393 C39.045,226.297 41.556,225.328 46.252,225.328 C48.554,225.328 50.733,225.371 52.895,225.548 L53.52,229 L61,229 L61,218.379 C59,217.926 54,217.186 50,216.936 L50,210 L40,210 L40,217.246 C32,218.379 27.244,222.353 27.244,229.58 C27.244,237.158 31.909,239.8 38.381,242.847 L38.381,242.847 Z" id="Shape" fill="#FFFFFF" sketch:type="MSShapeGroup"></path>
            <g id="Group" transform="translate(97.000000, 130.000000)" stroke="#FFFFFF" fill="#145EA8" sketch:type="MSShapeGroup">
                <path d="M157.712,0.5 L16.446,0.5 C8.196,0.5 0.5,7.009 0.5,15.262 L0.5,216.52 C0.5,224.766 8.196,231.5 16.446,231.5 L157.712,231.5 C165.959,231.5 172.5,224.766 172.5,216.52 L172.5,15.262 C172.5,7.009 165.959,0.5 157.712,0.5 L157.712,0.5 Z M164.5,216.52 C164.5,220.76 161.952,225.5 157.712,225.5 L16.446,225.5 C12.201,225.5 8.5,220.76 8.5,216.52 L8.5,15.262 C8.5,11.015 12.201,7.5 16.446,7.5 L157.712,7.5 C161.952,7.5 164.5,11.015 164.5,15.262 L164.5,216.52 L164.5,216.52 Z" id="Shape"></path>
                <g transform="translate(29.000000, 40.000000)">
                    <g transform="translate(0.000000, 55.000000)">
                        <rect id="Rectangle-path" x="6.5" y="7.5" width="55" height="7"></rect>
                        <path d="M0.5,0.5 L0.5,21.5 L66.5,21.5 L66.5,0.5 L0.5,0.5 L0.5,0.5 Z M63.5,18.5 L3.5,18.5 L3.5,4.5 L63.5,4.5 L63.5,18.5 L63.5,18.5 Z" id="Shape"></path>
                        <path d="M6.5,7.5 L61.5,7.5 L61.5,14.5 L6.5,14.5 L6.5,7.5 L6.5,7.5 Z" id="Shape"></path>
                    </g>
                    <g transform="translate(0.000000, 81.000000)">
                        <rect id="Rectangle-path" x="6.5" y="6.5" width="106" height="9"></rect>
                        <path d="M0.5,0.5 L0.5,20.5 L118.5,20.5 L118.5,0.5 L0.5,0.5 L0.5,0.5 Z M115.5,17.5 L3.5,17.5 L3.5,4.5 L115.5,4.5 L115.5,17.5 L115.5,17.5 Z" id="Shape"></path>
                        <path d="M6.5,6.5 L112.5,6.5 L112.5,15.5 L6.5,15.5 L6.5,6.5 L6.5,6.5 Z" id="Shape"></path>
                    </g>
                    <g transform="translate(0.000000, 107.000000)">
                        <rect id="Rectangle-path" x="6.5" y="6.5" width="106" height="9"></rect>
                        <path d="M0.5,0.5 L0.5,21.5 L118.5,21.5 L118.5,0.5 L0.5,0.5 L0.5,0.5 Z M115.5,17.5 L3.5,17.5 L3.5,4.5 L115.5,4.5 L115.5,17.5 L115.5,17.5 Z" id="Shape"></path>
                        <path d="M6.5,6.5 L112.5,6.5 L112.5,15.5 L6.5,15.5 L6.5,6.5 L6.5,6.5 Z" id="Shape"></path>
                    </g>
                    <g transform="translate(0.000000, 133.000000)">
                        <rect id="Rectangle-path" x="6.5" y="6.5" width="106" height="8"></rect>
                        <path d="M0.5,0.5 L0.5,21.5 L118.5,21.5 L118.5,0.5 L0.5,0.5 L0.5,0.5 Z M115.5,17.5 L3.5,17.5 L3.5,4.5 L115.5,4.5 L115.5,17.5 L115.5,17.5 Z" id="Shape"></path>
                        <path d="M6.5,6.5 L112.5,6.5 L112.5,14.5 L6.5,14.5 L6.5,6.5 L6.5,6.5 Z" id="Shape"></path>
                    </g>
                    <path d="M0.5,0.5 L0.5,45.5 L27.5,45.5 L27.5,0.5 L0.5,0.5 L0.5,0.5 Z M20.5,38.5 L6.5,38.5 L6.5,6.5 L20.5,6.5 L20.5,38.5 L20.5,38.5 Z" id="Shape"></path>
                    <path d="M31.5,0.5 L31.5,45.5 L57.5,45.5 L57.5,0.5 L31.5,0.5 L31.5,0.5 Z M50.5,38.5 L37.5,38.5 L37.5,6.5 L50.5,6.5 L50.5,38.5 L50.5,38.5 Z" id="Shape"></path>
                    <path d="M61.5,0.5 L61.5,45.5 L88.5,45.5 L88.5,0.5 L61.5,0.5 L61.5,0.5 Z M81.5,38.5 L67.5,38.5 L67.5,6.5 L81.5,6.5 L81.5,38.5 L81.5,38.5 Z" id="Shape"></path>
                    <path d="M92.5,0.5 L92.5,45.5 L118.5,45.5 L118.5,0.5 L92.5,0.5 L92.5,0.5 Z M112.5,38.5 L99.5,38.5 L99.5,6.5 L112.5,6.5 L112.5,38.5 L112.5,38.5 Z" id="Shape"></path>
                </g>
            </g>
            <g id="Group" sketch:type="MSShapeGroup">
                <rect id="Rectangle-path" x="21" y="56" width="55" height="21"></rect>
                <rect id="Rectangle-path" x="21" y="84" width="55" height="21"></rect>
                <path d="M38.381,242.914 L45.233,246.242 C49.289,248.152 50.518,249.343 50.518,251.779 C50.518,255.072 48.103,256.9 43.188,256.9 C40.504,256.9 38.425,257.561 36.339,257.49 L35.706,255 L26,255 L26,263.654 C29,264.133 34,264.767 37,264.964 L37,274 L47,274 L47,264.697 C54,263.444 60.956,258.912 60.948,251.174 C60.948,243.815 57.916,240.754 50.65,237.495 L44.191,234.711 C40.036,232.855 38.994,231.989 38.994,229.746 C38.994,226.649 41.529,226.032 46.226,226.032 C48.527,226.032 50.717,226.871 52.879,227.048 L53.519,232 L58,232 L58,218.379 C57,217.926 52,217.186 47,216.936 L47,212 L37,212 L37,217.246 C30,218.379 25.744,222.387 25.744,229.615 C25.744,237.191 31.909,239.867 38.381,242.914 L38.381,242.914 Z" id="Shape"></path>
                <rect id="Rectangle-path" x="21" y="27" width="55" height="19"></rect>
                <path d="M0,0 L0,299 L81,299 L81,186 L25,186 L25,174 L81,174 L81,158 L25,158 L25,146 L83.6,146 C83.939,140 86.247,135 89.953,130 L25,130 L25,118 L113.438,118 L113.447,118 L137,118 L137,0 L0,0 L0,0 Z M37,217.246 L37,212 L47,212 L47,216.936 C52,217.186 57,217.926 58,218.379 L58,232 L53.52,232 L52.885,227.048 C50.723,226.871 48.536,226.062 46.236,226.062 C41.539,226.062 39.012,226.665 39.012,229.761 C39.012,232.004 40.073,232.862 44.228,234.719 L50.723,237.499 C57.989,240.758 60.949,243.816 60.949,251.176 C60.957,258.914 54.001,263.445 47.001,264.697 L47.001,274 L37.001,274 L37.001,264.964 C34.001,264.768 29.001,264.133 26.001,263.654 L26.001,255 L35.707,255 L36.34,257.49 C38.426,257.561 40.505,256.98 43.189,256.98 C48.104,256.98 50.519,255.112 50.519,251.819 C50.519,249.382 49.29,248.172 45.234,246.261 L38.382,242.923 C31.91,239.876 25.745,237.195 25.745,229.619 C25.744,222.392 30,218.379 37,217.246 L37,217.246 Z M76,105 L21,105 L21,84 L76,84 L76,105 L76,105 Z M76,77 L21,77 L21,56 L76,56 L76,77 L76,77 Z M76,46 L21,46 L21,27 L76,27 L76,46 L76,46 Z" id="Shape" stroke="#145EA8" stroke-width="6"></path>
            </g>
        </g>
    </g>
</svg>