<?xml version="1.0" encoding="UTF-8" standalone="no"?>
<svg width="747px" height="747px" viewBox="0 0 747 747" version="1.1" xmlns="http://www.w3.org/2000/svg" xmlns:xlink="http://www.w3.org/1999/xlink" xmlns:sketch="http://www.bohemiancoding.com/sketch/ns">
    <!-- Generator: Sketch 3.5.1 (25234) - http://www.bohemiancoding.com/sketch -->
    <title>Bounding-Box</title>
    <desc>Created with Sketch.</desc>
    <defs></defs>
    <g id="Page-1" stroke="none" stroke-width="1" fill="none" fill-rule="evenodd" sketch:type="MSPage">
        <g id="icon-practice-management" sketch:type="MSLayerGroup">
            <g id="Page-1" sketch:type="MSShapeGroup">
                <g id="Practice" transform="translate(125.000000, 42.000000)">
                    <g id="Group" transform="translate(178.551852, 239.171271)" stroke="#FFFFFF" fill="#FFFFFF">
                        <path d="M290.306904,0.919889503 L30.2728222,0.919889503 C15.0867111,0.919889503 0.92037037,12.895011 0.92037037,28.0787072 L0.92037037,398.34895 C0.92037037,413.519768 15.0867111,425.90884 30.2728222,425.90884 L290.306904,425.90884 C305.487493,425.90884 317.527778,413.519768 317.527778,398.34895 L317.527778,28.0787072 C317.527778,12.895011 305.487493,0.919889503 290.306904,0.919889503 L290.306904,0.919889503 Z M302.801852,398.34895 C302.801852,406.149613 298.111644,414.870166 290.306904,414.870166 L30.2728222,414.870166 C22.4588778,414.870166 15.6462963,406.149613 15.6462963,398.34895 L15.6462963,28.0787072 C15.6462963,20.2651657 22.4588778,13.7983425 30.2728222,13.7983425 L290.306904,13.7983425 C298.111644,13.7983425 302.801852,20.2651657 302.801852,28.0787072 L302.801852,398.34895 L302.801852,398.34895 Z" id="Shape"></path>
                        <g transform="translate(53.381481, 73.591160)">
                            <g transform="translate(0.000000, 101.187845)">
                                <rect id="Rectangle-path" x="11.9648148" y="13.7983425" width="101.240741" height="12.878453"></rect>
                                <path d="M0.92037037,0.919889503 L0.92037037,39.5552486 L122.409259,39.5552486 L122.409259,0.919889503 L0.92037037,0.919889503 L0.92037037,0.919889503 Z M116.887037,34.0359116 L6.44259259,34.0359116 L6.44259259,8.27900552 L116.887037,8.27900552 L116.887037,34.0359116 L116.887037,34.0359116 Z" id="Shape"></path>
                                <path d="M11.9648148,13.7983425 L113.205556,13.7983425 L113.205556,26.6767956 L11.9648148,26.6767956 L11.9648148,13.7983425 L11.9648148,13.7983425 Z" id="Shape"></path>
                            </g>
                            <g transform="translate(0.000000, 149.022099)">
                                <rect id="Rectangle-path" x="11.9648148" y="11.9585635" width="195.118519" height="16.558011"></rect>
                                <path d="M0.92037037,0.919889503 L0.92037037,37.7154696 L218.127778,37.7154696 L218.127778,0.919889503 L0.92037037,0.919889503 L0.92037037,0.919889503 Z M212.605556,32.1961326 L6.44259259,32.1961326 L6.44259259,8.27900552 L212.605556,8.27900552 L212.605556,32.1961326 L212.605556,32.1961326 Z" id="Shape"></path>
                                <path d="M11.9648148,11.9585635 L207.083333,11.9585635 L207.083333,28.5165746 L11.9648148,28.5165746 L11.9648148,11.9585635 L11.9648148,11.9585635 Z" id="Shape"></path>
                            </g>
                            <g transform="translate(0.000000, 196.856354)">
                                <rect id="Rectangle-path" x="11.9648148" y="11.9585635" width="195.118519" height="16.558011"></rect>
                                <path d="M0.92037037,0.919889503 L0.92037037,39.5552486 L218.127778,39.5552486 L218.127778,0.919889503 L0.92037037,0.919889503 L0.92037037,0.919889503 Z M212.605556,32.1961326 L6.44259259,32.1961326 L6.44259259,8.27900552 L212.605556,8.27900552 L212.605556,32.1961326 L212.605556,32.1961326 Z" id="Shape"></path>
                                <path d="M11.9648148,11.9585635 L207.083333,11.9585635 L207.083333,28.5165746 L11.9648148,28.5165746 L11.9648148,11.9585635 L11.9648148,11.9585635 Z" id="Shape"></path>
                            </g>
                            <g transform="translate(0.000000, 244.690608)">
                                <rect id="Rectangle-path" x="11.9648148" y="11.9585635" width="195.118519" height="14.718232"></rect>
                                <path d="M0.92037037,0.919889503 L0.92037037,39.5552486 L218.127778,39.5552486 L218.127778,0.919889503 L0.92037037,0.919889503 L0.92037037,0.919889503 Z M212.605556,32.1961326 L6.44259259,32.1961326 L6.44259259,8.27900552 L212.605556,8.27900552 L212.605556,32.1961326 L212.605556,32.1961326 Z" id="Shape"></path>
                                <path d="M11.9648148,11.9585635 L207.083333,11.9585635 L207.083333,26.6767956 L11.9648148,26.6767956 L11.9648148,11.9585635 L11.9648148,11.9585635 Z" id="Shape"></path>
                            </g>
                            <path d="M0.92037037,0.919889503 L0.92037037,83.7099448 L50.6203704,83.7099448 L50.6203704,0.919889503 L0.92037037,0.919889503 L0.92037037,0.919889503 Z M37.7351852,70.8314917 L11.9648148,70.8314917 L11.9648148,11.9585635 L37.7351852,11.9585635 L37.7351852,70.8314917 L37.7351852,70.8314917 Z" id="Shape"></path>
                            <path d="M57.9833333,0.919889503 L57.9833333,83.7099448 L105.842593,83.7099448 L105.842593,0.919889503 L57.9833333,0.919889503 L57.9833333,0.919889503 Z M92.9574074,70.8314917 L69.0277778,70.8314917 L69.0277778,11.9585635 L92.9574074,11.9585635 L92.9574074,70.8314917 L92.9574074,70.8314917 Z" id="Shape"></path>
                            <path d="M113.205556,0.919889503 L113.205556,83.7099448 L162.905556,83.7099448 L162.905556,0.919889503 L113.205556,0.919889503 L113.205556,0.919889503 Z M150.02037,70.8314917 L124.25,70.8314917 L124.25,11.9585635 L150.02037,11.9585635 L150.02037,70.8314917 L150.02037,70.8314917 Z" id="Shape"></path>
                            <path d="M170.268519,0.919889503 L170.268519,83.7099448 L218.127778,83.7099448 L218.127778,0.919889503 L170.268519,0.919889503 L170.268519,0.919889503 Z M207.083333,70.8314917 L183.153704,70.8314917 L183.153704,11.9585635 L207.083333,11.9585635 L207.083333,70.8314917 L207.083333,70.8314917 Z" id="Shape"></path>
                        </g>
                    </g>
                    <g id="Group">
                        <rect id="Rectangle-path" x="38.6555556" y="103.027624" width="101.240741" height="38.6353591"></rect>
                        <rect id="Rectangle-path" x="38.6555556" y="154.541436" width="101.240741" height="38.6353591"></rect>
                        <path d="M70.6494704,446.908077 L83.2622259,453.030862 C90.7282704,456.54484 92.9905407,458.736017 92.9905407,463.217718 C92.9905407,469.27611 88.5451519,472.639227 79.4979111,472.639227 C74.557363,472.639227 70.730463,473.85532 66.8906778,473.724696 L65.7254889,469.143646 L47.8592593,469.143646 L47.8592593,485.065094 C53.3814815,485.946348 62.5851852,487.112768 68.1074074,487.475204 L68.1074074,504.099448 L86.5148148,504.099448 L86.5148148,486.983983 C99.4,484.67874 112.204193,476.340862 112.189467,462.104652 C112.189467,448.565718 106.608341,442.934155 93.2335185,436.938315 L81.3441741,431.81637 C73.6958963,428.40174 71.7778444,426.808492 71.7778444,422.681867 C71.7778444,416.984072 76.4441222,415.848928 85.0900815,415.848928 C89.3256259,415.848928 93.3568481,417.392503 97.3365296,417.718144 L98.5146037,426.828729 L106.762963,426.828729 L106.762963,401.769099 C104.922222,400.93568 95.7185185,399.574243 86.5148148,399.114298 L86.5148148,390.033149 L68.1074074,390.033149 L68.1074074,399.68463 C55.2222222,401.769099 47.3880296,409.142934 47.3880296,422.440856 C47.3880296,436.379022 58.7361963,441.302271 70.6494704,446.908077 L70.6494704,446.908077 Z" id="Shape"></path>
                        <rect id="Rectangle-path" x="38.6555556" y="49.6740331" width="101.240741" height="34.9558011"></rect>
                        <path d="M0,0 L0,550.093923 L149.1,550.093923 L149.1,342.198895 L46.0185185,342.198895 L46.0185185,320.121547 L149.1,320.121547 L149.1,290.685083 L46.0185185,290.685083 L46.0185185,268.607735 L153.885926,268.607735 C154.509937,257.569061 158.758367,248.370166 165.580152,239.171271 L46.0185185,239.171271 L46.0185185,217.093923 L208.809948,217.093923 L208.826515,217.093923 L252.181481,217.093923 L252.181481,0 L0,0 L0,0 Z M68.1074074,399.68463 L68.1074074,390.033149 L86.5148148,390.033149 L86.5148148,399.114298 C95.7185185,399.574243 104.922222,400.93568 106.762963,401.769099 L106.762963,426.828729 L98.5164444,426.828729 L97.3475741,417.718144 C93.3678926,417.392503 89.3421926,415.904122 85.1084889,415.904122 C76.4625296,415.904122 71.8109778,417.013508 71.8109778,422.709464 C71.8109778,426.836088 73.7640037,428.414619 81.4122815,431.831088 L93.3678926,436.945674 C106.742715,442.941514 112.191307,448.567558 112.191307,462.108331 C112.206033,476.344541 99.4018407,484.68058 86.5166556,486.983983 L86.5166556,504.099448 L68.1092481,504.099448 L68.1092481,487.475204 C62.5870259,487.114608 53.3833222,485.946348 47.8611,485.065094 L47.8611,469.143646 L65.7273296,469.143646 L66.8925185,473.724696 C70.7323037,473.85532 74.5592037,472.786409 79.4997519,472.786409 C88.5469926,472.786409 92.9923815,469.349702 92.9923815,463.291309 C92.9923815,458.807768 90.7301111,456.581635 83.2640667,453.065818 L70.6513111,446.924635 C58.738037,441.318829 47.3898704,436.386381 47.3898704,422.448215 C47.3880296,409.152133 55.2222222,401.769099 68.1074074,399.68463 L68.1074074,399.68463 Z M139.896296,193.176796 L38.6555556,193.176796 L38.6555556,154.541436 L139.896296,154.541436 L139.896296,193.176796 L139.896296,193.176796 Z M139.896296,141.662983 L38.6555556,141.662983 L38.6555556,103.027624 L139.896296,103.027624 L139.896296,141.662983 L139.896296,141.662983 Z M139.896296,84.6298343 L38.6555556,84.6298343 L38.6555556,49.6740331 L139.896296,49.6740331 L139.896296,84.6298343 L139.896296,84.6298343 Z" id="Shape" stroke="#FFFFFF" stroke-width="6"></path>
                    </g>
                </g>
            </g>
        </g>
    </g>
</svg>