<?xml version="1.0" encoding="UTF-8" standalone="no"?>
<svg width="223px" height="207px" viewBox="0 0 223 207" version="1.1" xmlns="http://www.w3.org/2000/svg" xmlns:xlink="http://www.w3.org/1999/xlink" xmlns:sketch="http://www.bohemiancoding.com/sketch/ns">
    <!-- Generator: Sketch 3.4.4 (17249) - http://www.bohemiancoding.com/sketch -->
    <title>Untitled</title>
    <desc>Created with Sketch.</desc>
    <defs></defs>
    <g id="Page-1" stroke="none" stroke-width="1" fill="none" fill-rule="evenodd" sketch:type="MSPage">
        <g id="icon-payers" sketch:type="MSLayerGroup" fill="#111111">
            <g id="Page-1" sketch:type="MSShapeGroup">
                <g id="Payer---New">
                    <path d="M214.429455,199.038462 L214.429455,154.3185 L220.445393,150.699981 L216.359321,143.872962 L214.429455,145.035346 L214.429455,0 L150.894802,0 L150.894802,127.384615 L142.95297,116.767904 L142.95297,55.7307692 L79.4183168,55.7307692 L79.4183168,80.7260192 L37.3583762,94.7821154 L7.27471782,49.5406731 L0.667113861,53.9553462 L34.1181089,104.256346 L71.10719,91.895726 L79.4183168,89.1174808 L79.4183168,199.038462 L71.4764851,199.038462 L71.4764851,111.461538 L7.94183168,111.461538 L7.94183168,199.038462 L0,199.038462 L0,207 L7.94183168,207 L71.4764851,207 L79.4183168,207 L142.95297,207 L150.894802,207 L214.429455,207 L222.371287,207 L222.371287,199.038462 L214.429455,199.038462 L214.429455,199.038462 L214.429455,199.038462 Z M63.5346535,199.038462 L15.8836634,199.038462 L15.8836634,119.423077 L63.5346535,119.423077 L63.5346535,199.038462 L63.5346535,199.038462 L63.5346535,199.038462 Z M135.011139,199.038462 L87.3601485,199.038462 L87.3601485,86.4662885 L105.757402,80.3199808 L135.011139,119.423077 L135.011139,199.038462 L135.011139,199.038462 L135.011139,199.038462 Z M135.011139,106.155173 L108.672054,70.94925 L87.3601485,78.0708462 L87.3601485,63.6923077 L135.011139,63.6923077 L135.011139,106.155173 L135.011139,106.155173 L135.011139,106.155173 Z M150.894802,199.038462 L142.95297,199.038462 L142.95297,130.035808 L150.894802,140.652519 L150.894802,199.038462 L150.894802,199.038462 L150.894802,199.038462 Z M206.487624,199.038462 L158.836634,199.038462 L158.836634,151.269231 L177.662746,176.435654 L206.487624,159.095423 L206.487624,199.038462 L206.487624,199.038462 L206.487624,199.038462 Z M206.487624,149.812269 L179.71968,165.914481 L158.836634,138.001327 L158.836634,7.96153846 L206.487624,7.96153846 L206.487624,149.812269 L206.487624,149.812269 L206.487624,149.812269 Z" id="Shape"></path>
                </g>
            </g>
        </g>
    </g>
</svg>