<?xml version="1.0" encoding="UTF-8" standalone="no"?>
<svg width="145px" height="203px" viewBox="0 0 145 203" version="1.1" xmlns="http://www.w3.org/2000/svg" xmlns:xlink="http://www.w3.org/1999/xlink" xmlns:sketch="http://www.bohemiancoding.com/sketch/ns">
    <!-- Generator: Sketch 3.4.4 (17249) - http://www.bohemiancoding.com/sketch -->
    <title>icon-patients</title>
    <desc>Created with Sketch.</desc>
    <defs></defs>
    <g id="Page-1" stroke="none" stroke-width="1" fill="none" fill-rule="evenodd" sketch:type="MSPage">
        <g id="icon-patients" sketch:type="MSLayerGroup">
            <g id="Page-1" sketch:type="MSShapeGroup">
                <g id="Patients---New">
                    <g id="xray" transform="translate(0.000000, 81.321429)">
                        <g id="Group">
                            <path d="M132.053063,5.15929018 L102.176679,5.15929018 L102.171134,5.15929018 L102.162817,5.15929018 L42.4276071,5.15929018 L42.4202143,5.15929018 L42.4137455,5.15929018 L12.5401339,5.15929018 C8.42138839,5.15929018 5.07057589,8.51010268 5.07057589,12.6288482 L5.07057589,82.3444152 C5.07057589,86.4631607 8.42138839,89.8130491 12.5401339,89.8130491 L132.053063,89.8130491 C136.172732,89.8130491 139.522621,86.4631607 139.522621,82.3444152 L139.522621,12.6288482 C139.522621,8.51010268 136.172732,5.15929018 132.053063,5.15929018 L132.053063,5.15929018 L132.053063,5.15929018 Z" id="Shape"></path>
                            <path d="M132.053063,0.180200893 L102.762562,0.180200893 L41.8306339,0.180200893 L12.5401339,0.180200893 C5.67679018,0.180200893 0.0914866071,5.76550446 0.0914866071,12.6297723 L0.0914866071,82.3453393 C0.0914866071,89.2077589 5.67679018,94.7949107 12.5401339,94.7949107 L24.5313482,94.7949107 L44.9088348,94.7949107 L49.8888482,94.7949107 L94.7071205,94.7949107 L99.6862098,94.7949107 L117.934554,94.7949107 L132.053987,94.7949107 C138.91733,94.7949107 144.503558,89.2077589 144.503558,82.3453393 L144.503558,12.6297723 C144.502634,5.76550446 138.916406,0.180200893 132.053063,0.180200893 L132.053063,0.180200893 L132.053063,0.180200893 Z M139.522621,82.3453393 C139.522621,86.4640848 136.172732,89.8139732 132.053062,89.8139732 L12.5401339,89.8139732 C8.42138839,89.8139732 5.07057589,86.4640848 5.07057589,82.3453393 L5.07057589,12.6297723 C5.07057589,8.51102679 8.42138839,5.16021429 12.5401339,5.16021429 L42.4146696,5.16021429 L42.4211384,5.16021429 L42.4285313,5.16021429 L102.163741,5.16021429 L102.172058,5.16021429 L102.177603,5.16021429 L132.053987,5.16021429 C136.173656,5.16021429 139.523545,8.51102679 139.523545,12.6297723 L139.523545,82.3453393 L139.522621,82.3453393 L139.522621,82.3453393 Z" id="Shape" fill="#111111"></path>
                        </g>
                        <g id="Group" transform="translate(24.950893, 23.102679)" stroke-width="2" stroke="#111111">
                            <g id="Shape">
                                <path d="M21.458692,1.81402232 C29.8957902,1.81402232 35.7287545,9.62642411 31.8743036,17.4388259 C31.8743036,17.4388259 28.6454732,22.4391696 24.9998705,22.855942 C24.9998705,22.855942 27.082808,24.8353795 26.5616116,27.9588616 C26.1448393,31.0851161 24.37425,31.7098125 23.3327813,32.2300848 C23.3327813,32.2300848 29.9992902,33.5839018 29.9992902,44.9384063 C29.9992902,50.9802188 25.4157188,54.1055491 19.9995268,54.1055491 C15.3124554,54.1055491 10.1041875,51.7093393 6.87443304,46.9178438 C-0.104424107,36.5022321 -1.77058929,14.6267679 11.2500804,5.35520089 C14.895683,2.96083929 18.3333616,1.81402232 21.458692,1.81402232 L21.458692,1.81402232 L21.458692,1.81402232 Z M21.458692,0.460205357 L21.458692,0.460205357 C17.8130893,0.460205357 14.0621384,1.81494643 10.6244598,4.31465625 C-3.22975446,14.1064955 -1.35474107,37.0243527 5.83296429,47.7532366 C9.06087054,52.5447321 14.4779866,55.5656384 20.1030268,55.5656384 C26.8739598,55.5656384 31.4575313,51.2953393 31.4575313,45.0437545 C31.4575313,37.2313527 28.4357009,33.6901741 26.1439152,32.1275089 C26.8739598,31.3974643 27.6030804,30.1480714 27.9154286,28.273058 C28.2277768,26.3980446 27.7065804,24.8353795 27.186308,23.6894866 C30.3116384,22.2312455 32.7069241,18.6891429 33.0192723,18.2732946 L33.1236964,18.1688705 C35.1031339,14.2109196 34.8942857,9.93969643 32.706,6.50201786 C30.4160625,2.75199107 26.1448393,0.460205357 21.458692,0.460205357 L21.458692,0.460205357 L21.458692,0.460205357 L21.458692,0.460205357 Z"></path>
                                <path d="M34.8961339,61.7109509 C34.7907857,61.7109509 34.7907857,61.7109509 34.8961339,61.7109509 C34.4793616,61.7109509 34.1670134,61.3986027 34.2705134,60.9818304 C35.3119821,39.8354866 31.7698795,33.58575 29.583442,31.7107366 C28.2287009,30.5648438 27.082808,30.877192 27.082808,30.877192 C26.7713839,30.9816161 26.3536875,30.773692 26.2501875,30.3569196 C26.1457634,30.0445714 26.3536875,29.6277991 26.7713839,29.5242991 C26.8748839,29.5242991 28.5419732,29.1075268 30.4160625,30.5657679 C33.4378929,32.9619777 36.7711473,40.253183 35.7287545,60.9827545 C35.5208304,61.3986027 35.2084821,61.7109509 34.8961339,61.7109509 L34.8961339,61.7109509 L34.8961339,61.7109509 Z"></path>
                                <path d="M27.7075045,25.5654241 C27.3951563,25.5654241 27.0818839,25.2521518 27.0818839,24.9398036 C27.0818839,24.5230312 27.2907321,24.210683 27.7075045,24.210683 C29.8948661,24.1062589 36.1455268,23.3771384 38.1231161,22.1268214 C38.4363884,21.9188973 38.8531607,22.0233214 39.0610848,22.3356696 C39.269933,22.648942 39.1655089,23.0647902 38.8531607,23.2736384 C36.2499509,25.0433036 28.1252009,25.5654241 27.7075045,25.5654241 L27.7075045,25.5654241 L27.7075045,25.5654241 L27.7075045,25.5654241 Z"></path>
                                <path d="M38.4373125,28.6889063 L27.7084286,28.6889063 C27.2916563,28.6889063 27.082808,28.3774821 27.082808,28.0642098 C27.082808,27.7509375 27.3960804,27.4395134 27.7084286,27.4395134 L38.4373125,27.4395134 C38.8540848,27.4395134 39.0620089,27.7509375 39.0620089,28.0642098 C39.0620089,28.3774821 38.7505848,28.6889063 38.4373125,28.6889063 L38.4373125,28.6889063 L38.4373125,28.6889063 Z"></path>
                            </g>
                            <g id="Shape" transform="translate(54.522321, 0.000000)">
                                <path d="M18.3934286,1.81402232 C21.519683,1.81402232 24.9573616,2.85549107 28.4985402,5.356125 C41.5201339,14.6267679 39.8530446,36.6057321 32.8732634,46.9187679 C29.644433,51.7111875 24.4361652,54.1064732 19.7481696,54.1064732 C14.3319777,54.1064732 9.74840625,50.9811429 9.74840625,44.9393304 C9.74840625,33.5848259 16.4158393,32.2310089 16.4158393,32.2310089 C15.3743705,31.8142366 13.7063571,31.0860402 13.1860848,27.9597857 C12.7702366,24.8353795 14.7478259,22.8568661 14.7478259,22.8568661 C11.2066473,22.4400937 7.87431696,17.43975 7.87431696,17.43975 C4.12336607,9.73084821 9.95633036,1.81402232 18.3934286,1.81402232 L18.3934286,1.81402232 L18.3934286,1.81402232 Z M18.3934286,0.460205357 C13.7063571,0.460205357 9.43605804,2.64849107 7.14427232,6.39851786 C4.95691071,9.93969643 4.85248661,14.1064955 6.7275,18.0653705 C6.7275,18.0653705 6.7275,18.1688705 6.831,18.1688705 C7.14427232,18.5856429 9.53955804,22.1268214 12.6639643,23.5850625 C12.143692,24.6274554 11.6224955,26.1891964 11.9348438,28.1686339 C12.247192,30.0436473 12.9763125,31.2939643 13.705433,32.0230848 C11.4145714,33.5848259 8.39274107,37.1269286 8.39274107,44.9402545 C8.39274107,51.2953393 12.9763125,55.4612143 19.7472455,55.4612143 C25.2687857,55.4612143 30.7894018,52.440308 34.0182321,47.6497366 C41.3103616,36.8155045 43.0809509,14.0029955 29.3302366,4.21115625 C25.7899821,1.81402232 22.0399554,0.460205357 18.3934286,0.460205357 L18.3934286,0.460205357 L18.3934286,0.460205357 L18.3934286,0.460205357 L18.3934286,0.460205357 Z"></path>
                                <path d="M4.95691071,61.7109509 L4.95691071,61.7109509 C5.37275893,61.7109509 5.68510714,61.3986027 5.58160714,60.9818304 C4.54013839,39.8354866 8.08224107,33.58575 10.2686786,31.7107366 C11.6234196,30.5648438 12.7693125,30.877192 12.7693125,30.877192 C13.0816607,30.9816161 13.498433,30.773692 13.601933,30.3569196 C13.705433,30.0445714 13.498433,29.6277991 13.0816607,29.5242991 C12.9772366,29.5242991 11.3110714,29.1075268 9.43605804,30.5657679 C6.41422768,32.9619777 3.08189732,40.253183 4.12336607,60.9827545 C4.33221429,61.3986027 4.64363839,61.7109509 4.95691071,61.7109509 L4.95691071,61.7109509 L4.95691071,61.7109509 Z"></path>
                                <path d="M12.1446161,25.5654241 C12.4569643,25.5654241 12.7702366,25.2521518 12.7702366,24.9398036 C12.7702366,24.5230312 12.5613884,24.210683 12.1446161,24.210683 C9.95725446,24.1062589 3.70659375,23.3771384 1.72808036,22.1268214 C1.41573214,21.9188973 0.998959821,22.0233214 0.791035714,22.3356696 C0.5821875,22.648942 0.686611607,23.0647902 0.998959821,23.2736384 C3.60216964,25.0433036 11.7278438,25.5654241 12.1446161,25.5654241 L12.1446161,25.5654241 L12.1446161,25.5654241 L12.1446161,25.5654241 Z"></path>
                                <path d="M1.41480804,28.6889063 L12.143692,28.6889063 C12.5604643,28.6889063 12.7693125,28.3774821 12.7693125,28.0642098 C12.7693125,27.7509375 12.4560402,27.4395134 12.143692,27.4395134 L1.41480804,27.4395134 C0.998035714,27.4395134 0.790111607,27.7509375 0.790111607,28.0642098 C0.790111607,28.3774821 1.10153571,28.6889063 1.41480804,28.6889063 L1.41480804,28.6889063 L1.41480804,28.6889063 Z"></path>
                            </g>
                        </g>
                    </g>
                    <g id="patient" transform="translate(29.571429, 0.000000)">
                        <g id="Group" transform="translate(-0.000000, 0.000000)">
                            <path d="M41.6143929,61.1832857 C46.0953884,61.1832857 58.5458839,49.3935268 58.5458839,37.4790134 L58.5458839,23.9334509 C58.5458839,12.2250134 53.3228304,7.00195982 41.6143929,7.00195982 C29.9059554,7.00195982 24.6829018,12.2250134 24.6829018,23.9334509 L24.6829018,37.4790134 C24.6829018,49.3935268 37.1315491,61.1832857 41.6143929,61.1832857 L41.6143929,61.1832857 L41.6143929,61.1832857 Z" id="Shape"></path>
                            <path d="M53.2609152,74.0671875 C53.0603839,73.9267232 52.8598527,73.8019688 52.6916652,73.6236161 C52.5428839,73.4637455 52.4477009,73.2770759 52.3340357,73.0922545 C52.2175982,72.907433 52.0928437,72.7373973 52.0142946,72.5285491 C51.9274286,72.3012188 51.90525,72.0627991 51.871058,71.8216071 C51.8470312,71.6589643 51.7740268,71.5129554 51.7740268,71.3419955 L51.7740268,63.3364554 C48.2189866,66.2076563 44.55675,67.9579152 41.6143929,67.9579152 C38.6720357,67.9579152 35.0125714,66.2104286 31.455683,63.3364554 L31.455683,71.3447679 C31.455683,71.5157277 31.3817545,71.6617366 31.3586518,71.8243795 C31.3226116,72.0655714 31.3013571,72.3039911 31.2154152,72.5313214 C31.1368661,72.7373973 31.0093393,72.9111295 30.8956741,73.0950268 C30.7820089,73.2789241 30.6868259,73.4628214 30.5380446,73.6254643 C30.3726295,73.8047411 30.1693259,73.9294955 29.9687946,74.0699598 C29.833875,74.1651429 29.7359196,74.2945179 29.583442,74.3712188 L15.3281652,81.4988571 L67.9107857,81.4988571 L53.647192,74.3684464 C53.4937902,74.2926696 53.3995312,74.1623705 53.2609152,74.0671875 L53.2609152,74.0671875 L53.2609152,74.0671875 Z" id="Shape"></path>
                            <path d="M4.36548214,199.22179 C4.36548214,201.088487 5.88286607,202.607719 7.75233482,202.607719 C9.62087946,202.607719 11.1382634,201.087563 11.1382634,199.22179 L11.1382634,176.116339 L4.36548214,176.116339 L4.36548214,199.22179 L4.36548214,199.22179 L4.36548214,199.22179 Z" id="Shape" fill="#111111"></path>
                            <path d="M83.050433,81.5016295 L58.546808,69.2516652 L58.546808,57.7973571 C58.546808,57.3482411 58.4497768,56.9222277 58.2871339,56.5294821 C62.3458125,51.1086696 65.3195893,44.3358884 65.3195893,37.4799375 L65.3195893,23.934375 C65.3195893,9.08582143 57.8075223,0.939816964 43.5522455,0.275383929 C43.3738929,0.2458125 43.1890714,0.229178571 43.0024018,0.229178571 L40.2291562,0.229178571 C40.0415625,0.229178571 39.8576652,0.243040179 39.6793125,0.275383929 C25.426808,0.938892857 17.9119687,9.08582143 17.9119687,23.934375 L17.9119687,37.4799375 C17.9119687,44.3340402 20.8838973,51.1095937 24.9416518,56.5294821 C24.7817812,56.9222277 24.68475,57.3482411 24.68475,57.7973571 L24.68475,69.2516652 L0.181125,81.5016295 L83.050433,81.5016295 L83.050433,81.5016295 L83.050433,81.5016295 Z M24.6829018,37.4790134 L24.6829018,23.9334509 C24.6829018,12.2250134 29.9050313,7.00195982 41.6143929,7.00195982 C53.3237545,7.00195982 58.5458839,12.2250134 58.5458839,23.9334509 L58.5458839,37.4790134 C58.5458839,49.3935268 46.0953884,61.1832857 41.6143929,61.1832857 C37.1315491,61.1832857 24.6829018,49.3935268 24.6829018,37.4790134 L24.6829018,37.4790134 L24.6829018,37.4790134 Z M15.3281652,81.4988571 L29.583442,74.3712188 C29.7359196,74.2945179 29.8329509,74.1651429 29.9687946,74.0699598 C30.1693259,73.9294955 30.3726295,73.8047411 30.5380446,73.6254643 C30.6868259,73.4628214 30.7820089,73.2789241 30.8956741,73.0950268 C31.0093393,72.9111295 31.1368661,72.7373973 31.2154152,72.5313214 C31.3013571,72.3039911 31.3235357,72.0655714 31.3586518,71.8243795 C31.3826786,71.6617366 31.455683,71.5157277 31.455683,71.3447679 L31.455683,63.3364554 C35.0125714,66.2104286 38.6729598,67.9579152 41.6143929,67.9579152 C44.55675,67.9579152 48.2189866,66.2076563 51.7740268,63.3364554 L51.7740268,71.3419955 C51.7740268,71.5129554 51.8470312,71.6589643 51.871058,71.8216071 C51.9061741,72.0627991 51.9283527,72.3012188 52.0142946,72.5285491 C52.0928437,72.7373973 52.2175982,72.907433 52.3340357,73.0922545 C52.4477009,73.2761518 52.5428839,73.4628214 52.6916652,73.6236161 C52.8598527,73.8019688 53.0603839,73.9267232 53.2609152,74.0671875 C53.3986071,74.1623705 53.4937902,74.2926696 53.6481161,74.3684464 L67.9117098,81.4988571 L15.3281652,81.4988571 L15.3281652,81.4988571 L15.3281652,81.4988571 Z" id="Shape" fill="#111111"></path>
                            <path d="M72.0923705,199.22179 C72.0923705,201.088487 73.6125268,202.607719 75.4782991,202.607719 C77.3440714,202.607719 78.8651518,201.087563 78.8651518,199.22179 L78.8651518,176.116339 L72.0923705,176.116339 L72.0923705,199.22179 L72.0923705,199.22179 L72.0923705,199.22179 Z" id="Shape" fill="#111111"></path>
                            <rect id="Rectangle-path" fill="#88A80D" x="41.5219821" y="145.638362" width="-0.1" height="60.9541071"></rect>
                        </g>
                    </g>
                </g>
            </g>
        </g>
    </g>
</svg>