<?xml version="1.0" encoding="UTF-8" standalone="no"?>
<svg width="150px" height="207px" viewBox="0 0 150 207" version="1.1" xmlns="http://www.w3.org/2000/svg" xmlns:xlink="http://www.w3.org/1999/xlink" xmlns:sketch="http://www.bohemiancoding.com/sketch/ns">
    <!-- Generator: Sketch 3.5.1 (25234) - http://www.bohemiancoding.com/sketch -->
    <title>Page-1</title>
    <desc>Created with Sketch.</desc>
    <defs></defs>
    <g id="Page-1" stroke="none" stroke-width="1" fill="none" fill-rule="evenodd" sketch:type="MSPage">
        <g id="icon-patients" sketch:type="MSLayerGroup" fill="#FFFFFF">
            <g id="Page-1" sketch:type="MSShapeGroup">
                <g id="Patients">
                    <g id="Group">
                        <path d="M136.509251,80.9423077 L111.005286,80.9423077 L91.1894273,70.9850769 L90.5689427,56.7345865 C90.5689427,56.4075 90.673348,57.9182019 90.5405286,57.5970865 L90.1248899,57.1333269 L90.5689427,56.7345865 C95.1363436,50.6088462 97.7973568,43.7831538 97.7973568,37.5207404 L97.7973568,23.4838846 C97.7973568,8.47041346 90.2610132,0.952067308 75.9046256,0.276 C75.6647577,0.242163462 75.2636564,0.664125 75.1209251,0.664125 L72.2570485,0.664125 C72.1182819,0.664125 72.373348,0.239509615 72.2352423,0.262730769 C57.9674009,0.938134615 50.8810573,8.67741346 50.8810573,23.4838846 L50.8810573,37.5207404 C50.8810573,43.7851442 52.8634361,50.6088462 58.1497797,56.7345865 L58.1497797,57.1313365 L58.1557269,57.5931058 C58.0229075,57.916875 58.1497797,58.2479423 58.1497797,58.5750288 L58.1497797,70.9850769 L36.373348,80.9423077 L13.15837,80.9423077 C6.07665198,80.9423077 -4.26325641e-14,87.1702212 -4.26325641e-14,94.2858462 L-4.26325641e-14,166.52951 C-4.26325641e-14,173.641817 6.07665198,179.798077 13.1590308,179.798077 L25.535022,179.798077 L35.6828194,179.798077 L35.6828194,203.374183 C35.6828194,205.308173 37.0592511,206.882567 38.9867841,206.882567 C40.9143172,206.882567 42.2907489,205.306183 42.2907489,203.374183 L42.2907489,179.798077 L46.5674009,179.798077 L51.7063877,179.798077 L97.9638767,179.798077 L103.103524,179.798077 L105.066079,179.798077 L105.066079,203.374183 C105.066079,205.308173 106.444493,206.882567 108.370044,206.882567 C110.294273,206.882567 111.674009,205.306183 111.674009,203.374183 L111.674009,179.798077 L121.938106,179.798077 L136.509251,179.798077 C143.593612,179.798077 150,173.641817 150,166.52951 L150,94.2858462 C150,87.1702212 143.593612,80.9423077 136.509251,80.9423077 L136.509251,80.9423077 Z M56.8281938,23.4799038 C56.8281938,11.7983365 63.2008811,5.12590385 74.8361233,5.12590385 C86.4720264,5.12590385 93.1718062,11.7983365 93.1718062,23.4799038 L93.1718062,37.51875 C93.1718062,49.1605096 79.4398678,62.6898173 75.1665198,62.6898173 C70.892511,62.6898173 56.8281938,49.1598462 56.8281938,37.51875 L56.8281938,23.4799038 L56.8281938,23.4799038 Z M60.880837,74.7429231 C60.9984581,74.6288077 61.0737885,74.6719327 61.1570485,74.6128846 C61.4114537,74.4397212 61.5337004,74.4092019 61.6103524,74.3275962 C61.6929515,74.2360385 61.7491189,74.1597404 61.8125551,74.0569038 L61.9784141,73.7981538 C62.0491189,73.6886827 62.1112335,73.5977885 62.1403084,73.5188365 C62.1773128,73.4193173 62.1984581,73.2667212 62.2229075,73.0895769 C62.253304,72.8719615 62.2790749,72.7731058 62.3061674,72.6729231 L62.3279736,62.4761827 L63.7513216,63.6312692 C67.3486784,66.5518269 70.9718062,68.2250769 73.6896476,68.2250769 C76.404185,68.2250769 80.1218062,66.5511635 83.7211454,63.6312692 L85.2429515,62.4761827 L85.2429515,72.6085673 C85.2429515,72.7677981 85.222467,72.8706346 85.235022,72.9741346 C85.2786344,73.2819808 85.2488987,73.4272788 85.289207,73.5301154 C85.3196035,73.614375 85.3599119,73.7132308 85.4332599,73.8253558 L85.5918502,74.1040096 C85.6579295,74.2154712 85.7114537,74.313 85.7656388,74.3740385 C85.8482379,74.4616154 85.9671806,74.5465385 86.1092511,74.6420769 C86.3028634,74.7760962 86.3788546,74.6274808 86.457489,74.6958173 L99.3,80.9423077 L48.0905286,80.9423077 L60.880837,74.7429231 L60.880837,74.7429231 Z M144.713656,166.52951 L144.464537,166.642298 C144.464537,170.912337 140.761454,174.490385 136.509251,174.490385 L13.1590308,174.490385 C8.90947137,174.490385 4.62555066,170.798885 4.62555066,166.52951 L4.62555066,94.2858462 C4.62555066,90.0164712 8.90947137,86.9134615 13.1590308,86.9134615 L43.9936123,86.9134615 L44.0015419,86.9134615 L44.0081498,86.9134615 L105.662115,86.9134615 L105.668722,86.9134615 L105.67467,86.9134615 L136.509251,86.9134615 C140.762115,86.9134615 144.713656,90.0171346 144.713656,94.2858462 L144.713656,166.52951 L144.713656,166.52951 Z" id="Shape"></path>
                        <path d="M67.7345815,127.301019 C67.0030837,126.214269 65.384141,125.915048 64.3810573,126.584481 C63.5411894,127.116577 61.3427313,127.610856 59.1284141,127.959837 C59.846696,127.2015 60.5993392,126.305163 61.372467,125.227038 L61.5859031,125.019375 L61.7187225,124.753327 C64.0229075,120.126346 63.8325991,115.088683 61.2165198,110.961952 C58.5528634,106.580452 53.5328194,103.86026 48.1143172,103.86026 C44.0088106,103.86026 39.7863436,105.357692 35.926652,108.175413 C20.8176211,118.897615 22.6764317,143.820548 30.5385463,155.602962 C34.2092511,161.075192 40.407489,164.474106 46.7154185,164.474106 C53.214978,164.474106 58.1008811,160.975673 59.6550661,155.612913 C59.8281938,159.045663 59.8414097,163.145856 59.6002203,168.125135 C59.4997797,168.770683 59.661674,169.249038 60.0601322,169.75725 C60.4982379,170.321192 61.164978,170.510279 61.9024229,170.510279 L61.9830396,170.510279 C62.9656388,170.510279 63.8735683,170.027942 64.4081498,168.945173 L64.5700441,168.70301 L64.589207,168.736183 C65.4092511,152.348683 63.7460352,140.655173 59.6431718,137.337865 L65.6385463,137.337865 C66.9370044,137.337865 68.0332599,135.986394 68.0332599,134.682692 C68.0332599,133.336529 66.9812775,132.030173 65.6385463,132.030173 L64.5740088,132.030173 C65.546696,132.030173 66.4077093,131.253923 67.0440529,130.820019 C68.1621145,130.06301 68.476652,128.436202 67.7345815,127.301019 L67.7345815,127.301019 Z M48.1143172,108.771202 C51.8980176,108.771202 55.2422907,110.523404 57.057489,113.454577 C58.7140969,116.127663 58.8132159,119.279769 57.3429515,122.340981 C56.527533,123.573692 53.9174009,126.810058 51.5735683,127.079423 L47.9795154,127.506692 L50.5526432,130.079596 C50.6154185,130.141962 52.030837,131.587644 51.6528634,133.87924 C51.376652,135.94924 50.4819383,136.381154 49.5343612,136.838279 L44.9768722,139.1385 L49.6784141,140.252452 C49.9030837,140.304865 55.1834802,141.67226 55.1834802,151.709106 C55.1834802,157.424827 50.565859,159.453692 46.6110132,159.453692 C41.9127753,159.453692 37.2773128,156.895385 34.5165198,152.78325 C27.6488987,142.490308 26.3365639,120.881365 38.5381057,112.156183 C41.942511,109.909038 45.1651982,108.771202 48.1143172,108.771202 L48.1143172,108.771202 Z" id="Shape"></path>
                        <path d="M113.492511,108.047365 C109.460352,105.308596 105.220705,103.859596 101.226872,103.859596 C95.6887665,103.859596 90.7896476,106.472971 88.1273128,110.84651 C85.592511,114.964615 85.3863436,119.795942 87.5385463,124.463394 C87.6442731,124.769913 87.826652,125.038615 88.0625551,125.25026 C88.857489,126.346962 89.6240088,127.222067 90.3594714,127.979077 C88.088326,127.63076 85.8303965,127.135154 84.9911894,126.601731 C83.9068282,125.879885 82.3361233,126.209625 81.5980176,127.318269 C80.8651982,128.436202 81.1797357,130.065663 82.2911894,130.813385 C82.9288546,131.248615 83.795815,132.028846 84.7731278,132.028846 L83.7026432,132.028846 C82.3612335,132.028846 81.3105727,133.335202 81.3105727,134.681365 C81.3105727,135.985067 82.4048458,137.336538 83.7026432,137.336538 L89.6960352,137.336538 C85.5991189,140.653846 83.9312775,152.377875 84.7526432,168.777981 L84.7704846,168.966404 L84.9343612,169.040712 C85.4709251,170.122817 86.3801762,170.509615 87.3588106,170.509615 L87.2246696,170.509615 L87.2246696,170.758413 C87.2246696,170.734529 88.7372247,170.445923 89.1759912,169.881981 C89.572467,169.371779 89.7878855,168.750115 89.6894273,168.105231 C89.4455947,163.119317 89.4865639,159.024433 89.6596916,155.591683 C91.2026432,160.960413 96.0290749,164.361981 102.609251,164.361981 C108.91652,164.361981 115.123348,160.965721 118.798018,155.4915 C126.670044,143.74425 128.588987,118.839894 113.492511,108.047365 L113.492511,108.047365 Z M102.624449,159.451702 C98.6689427,159.451702 94.0506608,157.422837 94.0506608,151.707115 C94.0506608,141.67226 99.3317181,140.304865 99.5332599,140.259087 L105.261013,139.090731 L99.8319383,136.908606 C98.9986784,136.574221 97.9599119,136.158231 97.5832599,133.879904 C97.2799559,131.586981 98.6517621,130.112769 98.6986784,130.065 L101.248678,127.506029 L97.6671806,127.082077 C95.4138767,126.816692 92.7475771,123.584971 91.8872247,122.334346 C90.4837004,119.354077 90.622467,116.137615 92.2704846,113.491067 C94.1121145,110.537337 97.4603524,108.771865 101.226872,108.771865 C104.343833,108.771865 107.512335,109.899087 110.640529,112.117702 C122.969604,120.929798 121.636784,142.520163 114.721586,152.777942 C111.958811,156.895385 107.32467,159.451702 102.624449,159.451702 L102.624449,159.451702 Z" id="Shape"></path>
                    </g>
                </g>
            </g>
        </g>
    </g>
</svg>