<?xml version="1.0" encoding="UTF-8" standalone="no"?>
<svg width="223px" height="207px" viewBox="0 0 223 207" version="1.1" xmlns="http://www.w3.org/2000/svg" xmlns:xlink="http://www.w3.org/1999/xlink" xmlns:sketch="http://www.bohemiancoding.com/sketch/ns">
    <!-- Generator: Sketch 3.5.1 (25234) - http://www.bohemiancoding.com/sketch -->
    <title>Shape</title>
    <desc>Created with Sketch.</desc>
    <defs></defs>
    <g id="Page-1" stroke="none" stroke-width="1" fill="none" fill-rule="evenodd" sketch:type="MSPage">
        <g id="Payers" sketch:type="MSLayerGroup" fill="#FFFFFF">
            <path d="M0.305195513,206.939834 L222.69409,206.939834 L222.69409,200.755619 L214.686817,200.755619 L214.686817,154.236488 L220.413343,150.795561 L217.237737,145.491633 L214.687532,147.028734 L214.687532,0.128211073 L152.457667,0.128211073 L152.457667,130.367024 L142.614933,117.212855 L142.614933,56.3032837 L80.3879263,56.3032837 L80.3879263,81.2435606 L36.6842147,95.841 L6.47057372,50.4191834 L1.33514103,53.8465017 L34.1661731,103.202751 L80.3872115,87.7615536 L80.3872115,200.755619 L70.5430481,200.755619 L70.5430481,112.479073 L8.31532692,112.479073 L8.31532692,200.755619 L0.306625,200.755619 L0.306625,206.939834 L0.305195513,206.939834 Z M208.512147,200.755619 L158.630907,200.755619 L158.630907,148.919668 L178.766663,175.836114 L208.512147,157.945298 L208.512147,200.755619 L208.512147,200.755619 Z M152.456952,200.755619 L142.614218,200.755619 L142.614218,127.524176 L152.456952,140.675481 L152.456952,200.755619 L152.456952,200.755619 Z M136.441692,200.755619 L86.5590224,200.755619 L86.5590224,85.6987163 L106.363138,79.0868927 L136.441692,119.277841 L136.441692,200.755619 L136.441692,200.755619 Z M64.3690929,200.755619 L14.4857083,200.755619 L14.4857083,118.665436 L64.3690929,118.665436 L64.3690929,200.755619 L64.3690929,200.755619 Z M180.366974,167.662121 L158.631622,138.616941 L158.631622,6.31170934 L208.512862,6.31170934 L208.512862,150.734678 L180.366974,167.662121 L180.366974,167.662121 Z M136.441692,108.9701 L108.62816,71.8046471 L86.5590224,79.1757093 L86.5590224,62.4889308 L136.441692,62.4889308 L136.441692,108.9701 L136.441692,108.9701 Z" id="Shape" sketch:type="MSShapeGroup"></path>
        </g>
    </g>
</svg>