<?xml version="1.0" encoding="UTF-8" standalone="no"?>
<svg width="286px" height="286px" viewBox="0 0 286 286" version="1.1" xmlns="http://www.w3.org/2000/svg" xmlns:xlink="http://www.w3.org/1999/xlink" xmlns:sketch="http://www.bohemiancoding.com/sketch/ns">
    <!-- Generator: Sketch 3.3.1 (12005) - http://www.bohemiancoding.com/sketch -->
    <title>Payers</title>
    <desc>Created with Sketch.</desc>
    <defs></defs>
    <g id="Page-1" stroke="none" stroke-width="1" fill="none" fill-rule="evenodd" sketch:type="MSPage">
        <g id="Payer" sketch:type="MSLayerGroup" transform="translate(25.000000, 40.000000)" fill="#FFFFFF">
            <path d="M214.689,206.263 L20.948,206.263 C9.397,206.263 0,196.871 0,185.33 L0,57.937 C0,46.386 9.396,36.99 20.948,36.99 L214.689,36.99 C226.245,36.99 235.642,46.386 235.642,57.937 L235.642,185.331 C235.642,196.872 226.245,206.263 214.689,206.263 L214.689,206.263 Z M20.948,46.808 C14.811,46.808 9.819,51.8 9.819,57.937 L9.819,185.331 C9.819,191.457 14.812,196.445 20.948,196.445 L214.689,196.445 C220.825,196.445 225.823,191.457 225.823,185.331 L225.823,57.937 C225.823,51.8 220.825,46.808 214.689,46.808 L20.948,46.808 L20.948,46.808 L20.948,46.808 Z" id="Shape" sketch:type="MSShapeGroup"></path>
            <path d="M165.562,46.808 C162.847,46.808 160.653,44.609 160.653,41.898 L160.653,21.869 C160.653,15.738 155.655,10.755 149.519,10.755 L86.117,10.755 C79.98,10.755 74.988,15.743 74.988,21.869 L74.988,41.898 C74.988,44.608 72.789,46.808 70.079,46.808 C67.37,46.808 65.17,44.609 65.17,41.898 L65.17,21.869 C65.17,10.327 74.566,0.936 86.118,0.936 L149.52,0.936 C161.076,0.936 170.472,10.327 170.472,21.869 L170.472,41.898 C170.472,44.608 168.272,46.808 165.562,46.808 L165.562,46.808 Z" id="Shape" sketch:type="MSShapeGroup"></path>
            <path d="M165.562,126.548 L70.078,126.548 C67.369,126.548 65.169,124.353 65.169,121.638 C65.169,118.923 67.369,116.729 70.078,116.729 L165.562,116.729 C168.277,116.729 170.471,118.923 170.471,121.638 C170.471,124.353 168.272,126.548 165.562,126.548 L165.562,126.548 Z" id="Shape" sketch:type="MSShapeGroup"></path>
            <path d="M117.821,174.27 C115.111,174.27 112.911,172.075 112.911,169.361 L112.911,73.887 C112.911,71.177 115.111,68.977 117.821,68.977 C120.535,68.977 122.73,71.177 122.73,73.887 L122.73,169.361 C122.73,172.07 120.535,174.27 117.821,174.27 L117.821,174.27 Z" id="Shape" sketch:type="MSShapeGroup"></path>
        </g>
    </g>
</svg>