<?xml version="1.0" encoding="UTF-8" standalone="no"?>
<svg width="539px" height="660px" viewBox="0 0 539 660" version="1.1" xmlns="http://www.w3.org/2000/svg" xmlns:xlink="http://www.w3.org/1999/xlink" xmlns:sketch="http://www.bohemiancoding.com/sketch/ns">
    <!-- Generator: Sketch 3.5.1 (25234) - http://www.bohemiancoding.com/sketch -->
    <title>icon-technology-solutions-thin</title>
    <desc>Created with Sketch.</desc>
    <defs></defs>
    <g id="Page-1" stroke="none" stroke-width="1" fill="none" fill-rule="evenodd" sketch:type="MSPage">
        <g id="icon-technology-solutions-thin" sketch:type="MSLayerGroup">
            <g id="Page-1" sketch:type="MSShapeGroup">
                <g id="icon-practice-management">
                    <g id="Page-1">
                        <g id="Technology">
                            <g id="Group">
                                <g>
                                    <g transform="translate(12.600000, 12.607629)">
                                        <path d="M288,290.636477 C288,297.214057 281.2068,302.583106 272.5992,302.583106 L165.744,302.583106 L189.459,398.040872 L270.6768,398.040872 C280.0224,398.040872 288,405.664886 288,415.016144 L288,450.360733 L379.8,371.921466 L379.8,279.197755 L288,236.34082 L288,290.636477 L288,290.636477 L288,290.636477 Z" id="Shape"></path>
                                        <g>
                                            <path d="M288,290.636477 C288,297.214057 281.2068,302.583106 272.5992,302.583106 L165.744,302.583106 L189.459,398.040872 L270.6768,398.040872 C280.0224,398.040872 288,405.664886 288,415.016144 L288,450.360733 L379.8,371.921466 L379.8,279.197755 L288,236.34082 L288,290.636477 L288,290.636477 L288,290.636477 Z" id="Shape"></path>
                                            <rect id="Rectangle-path" x="0" y="0" width="273.6" height="171.103542"></rect>
                                        </g>
                                    </g>
                                    <g>
                                        <rect id="Rectangle-path" x="12.6" y="12.6076294" width="273.6" height="171.103542"></rect>
                                        <path d="M300.6,303.244106 C300.6,309.821687 293.8068,315.190736 285.1992,315.190736 L178.344,315.190736 L202.059,410.648501 L283.2768,410.648501 C292.6224,410.648501 300.6,418.272515 300.6,427.623774 L300.6,462.968362 L392.4,384.529095 L392.4,291.805384 L300.6,248.94845 L300.6,303.244106 L300.6,303.244106 L300.6,303.244106 Z" id="Shape"></path>
                                        <rect id="Rectangle-path" x="165.6" y="423.256131" width="120.6" height="223.33515"></rect>
                                        <g>
                                            <rect id="Rectangle-path" x="12.6" y="12.6076294" width="273.6" height="171.103542"></rect>
                                            <path d="M300.6,303.244106 C300.6,309.821687 293.8068,315.190736 285.1992,315.190736 L178.344,315.190736 L202.059,410.648501 L283.2768,410.648501 C292.6224,410.648501 300.6,418.272515 300.6,427.623774 L300.6,462.968362 L392.4,384.529095 L392.4,291.805384 L300.6,248.94845 L300.6,303.244106 L300.6,303.244106 L300.6,303.244106 Z" id="Shape"></path>
                                            <rect id="Rectangle-path" x="165.6" y="423.256131" width="120.6" height="223.33515"></rect>
                                            <rect id="Rectangle-path" x="403.2" y="234.141689" width="124.2" height="223.33515"></rect>
                                            <path d="M522.7074,221.53406 L408.4812,221.53406 C399.1266,221.53406 392.4,229.226515 392.4,238.577774 L392.4,277.42188 L300.6,234.570349 L300.6,196.001809 C300.6,194.939166 300.2202,193.836899 299.727,192.529308 L298.8072,190.294155 L299.6658,188.022981 C300.2202,186.33536 300.6018,184.826046 300.6018,183.406787 L300.6018,14.2556267 C300.6018,5.93279019 293.5332,2.13162821e-13 285.2118,2.13162821e-13 L14.7312,2.13162821e-13 C6.4152,2.13162821e-13 0,5.93279019 0,14.2556267 L0,183.406787 C0,184.79903 0.0918,186.277725 0.666,188.059003 L1.3068,190.328376 L0.5904,192.552722 C0.0972,193.844104 0,194.939166 0,196.001809 L0,303.258515 C0,309.828891 6.1308,315.190736 14.7312,315.190736 L164.943,315.190736 L188.6652,410.648501 L169.0362,410.648501 C159.6906,410.648501 151.2018,418.283322 151.2018,427.63458 L151.2018,642.736948 C151.2018,652.084605 159.6906,659.200711 169.0362,659.200711 L283.2786,659.200711 C292.6242,659.200711 300.6018,652.086406 300.6018,642.736948 L300.6018,480.120142 L392.4018,401.675471 L392.4018,453.665733 C392.4018,463.020594 399.1266,470.084469 408.483,470.084469 L522.7092,470.084469 C532.053,470.084469 538.2018,463.020594 538.2018,453.665733 L538.2018,238.577774 C538.2,229.226515 532.0512,221.53406 522.7074,221.53406 L522.7074,221.53406 L522.7074,221.53406 Z M12.6,12.6076294 L286.2,12.6076294 L286.2,183.711172 L12.6,183.711172 L12.6,12.6076294 L12.6,12.6076294 L12.6,12.6076294 Z M12.6,301.756406 L12.6,301.716782 L12.6,198.119891 L286.2,198.119891 L286.2,301.716782 L286.2,301.760008 L12.6,301.756406 L12.6,301.756406 L12.6,301.756406 Z M286.2,646.591281 L165.6,646.591281 L165.6,423.256131 L286.2,423.256131 L286.2,646.591281 L286.2,646.591281 L286.2,646.591281 Z M392.4,384.529095 L300.6,462.968362 L300.6,427.623774 C300.6,418.274316 292.6224,410.648501 283.2768,410.648501 L202.059,410.648501 L178.344,315.190736 L285.1992,315.190736 C293.805,315.190736 300.6,309.823488 300.6,303.244106 L300.6,248.94845 L392.4,291.805384 L392.4,384.529095 L392.4,384.529095 L392.4,384.529095 Z M527.4,457.476839 L403.2,457.476839 L403.2,234.141689 L527.4,234.141689 L527.4,457.476839 L527.4,457.476839 L527.4,457.476839 Z" id="Shape" fill="#145EA8"></path>
                                        </g>
                                    </g>
                                </g>
                                <g transform="translate(12.600000, 216.130790)" fill="#145EA8">
                                    <rect id="Rectangle-path" x="1.42108547e-13" y="85.6274169" width="273.6" height="0.826700272"></rect>
                                    <path d="M240.4764,28.8174387 L234.2952,28.8174387 C231.9246,28.8174387 229.9932,30.9535313 229.9932,33.3291689 C229.9932,35.6958011 231.9228,37.8228883 234.2952,37.8228883 L240.4764,37.8228883 C242.8488,37.8228883 244.782,35.6958011 244.782,33.3291689 C244.7802,30.9535313 242.8488,28.8174387 240.4764,28.8174387 L240.4764,28.8174387 L240.4764,28.8174387 Z" id="Shape"></path>
                                    <path d="M99.5742,37.8228883 L105.7644,37.8228883 C108.1314,37.8228883 110.0574,35.6958011 110.0574,33.3291689 C110.0574,30.9535313 108.1332,28.8174387 105.7644,28.8174387 L99.5742,28.8174387 C97.2036,28.8174387 95.2704,30.9535313 95.2704,33.3291689 C95.274,35.694 97.2036,37.8228883 99.5742,37.8228883 L99.5742,37.8228883 L99.5742,37.8228883 Z" id="Shape"></path>
                                    <path d="M38.394,0 L32.2146,0 C29.844,0 27.9162,2.13068937 27.9162,4.50632698 C27.9162,6.8783624 29.8422,9.00544959 32.2146,9.00544959 L38.394,9.00544959 C40.7664,9.00544959 42.6996,6.8783624 42.6996,4.50632698 C42.6996,2.13068937 40.7664,0 38.394,0 L38.394,0 L38.394,0 Z" id="Shape"></path>
                                    <path d="M72.0792,0 L65.898,0 C63.5238,0 61.5888,2.13068937 61.5888,4.50632698 C61.5888,6.8783624 63.522,9.00544959 65.898,9.00544959 L72.0792,9.00544959 C74.4534,9.00544959 76.3866,6.8783624 76.3866,4.50632698 C76.3866,2.13068937 74.4534,0 72.0792,0 L72.0792,0 L72.0792,0 Z" id="Shape"></path>
                                    <path d="M99.5742,9.00544959 L105.7644,9.00544959 C108.1314,9.00544959 110.0574,6.8783624 110.0574,4.50632698 C110.0574,2.13068937 108.1332,0 105.7644,0 L99.5742,0 C97.2036,0 95.2704,2.13068937 95.2704,4.50632698 C95.2722,6.8783624 97.2036,9.00544959 99.5742,9.00544959 L99.5742,9.00544959 L99.5742,9.00544959 Z" id="Shape"></path>
                                    <path d="M133.2576,9.00544959 L139.4352,9.00544959 C141.8058,9.00544959 143.739,6.8783624 143.739,4.50632698 C143.739,2.13068937 141.8076,0 139.4352,0 L133.2576,0 C130.8834,0 128.9502,2.13068937 128.9502,4.50632698 C128.952,6.8783624 130.8834,9.00544959 133.2576,9.00544959 L133.2576,9.00544959 L133.2576,9.00544959 Z" id="Shape"></path>
                                    <path d="M166.9302,9.00544959 L173.1096,9.00544959 C175.482,9.00544959 177.4152,6.8783624 177.4152,4.50632698 C177.4152,2.13068937 175.4838,0 173.1096,0 L166.9302,0 C164.5596,0 162.6318,2.13068937 162.6318,4.50632698 C162.6336,6.8783624 164.5596,9.00544959 166.9302,9.00544959 L166.9302,9.00544959 L166.9302,9.00544959 Z" id="Shape"></path>
                                    <path d="M206.8038,0 L200.6226,0 C198.252,0 196.3224,2.13068937 196.3224,4.50632698 C196.3224,6.8783624 198.2502,9.00544959 200.6226,9.00544959 L206.8038,9.00544959 C209.1762,9.00544959 211.1058,6.8783624 211.1058,4.50632698 C211.104,2.13068937 209.1762,0 206.8038,0 L206.8038,0 L206.8038,0 Z" id="Shape"></path>
                                    <path d="M422.964,140.485014 L416.781,140.485014 C414.4104,140.485014 412.4826,142.615703 412.4826,144.991341 C412.4826,147.363376 414.4086,149.490463 416.781,149.490463 L422.964,149.490463 C425.3346,149.490463 427.266,147.363376 427.266,144.991341 C427.266,142.615703 425.3364,140.485014 422.964,140.485014 L422.964,140.485014 L422.964,140.485014 Z" id="Shape"></path>
                                    <path d="M455.9886,140.485014 L449.8056,140.485014 C447.4368,140.485014 445.5072,142.615703 445.5072,144.991341 C445.5072,147.363376 447.435,149.490463 449.8056,149.490463 L455.9886,149.490463 C458.3592,149.490463 460.2906,147.363376 460.2906,144.991341 C460.2906,142.615703 458.361,140.485014 455.9886,140.485014 L455.9886,140.485014 L455.9886,140.485014 Z" id="Shape"></path>
                                    <path d="M489.0132,140.485014 L482.832,140.485014 C480.4614,140.485014 478.5318,142.615703 478.5318,144.991341 C478.5318,147.363376 480.4596,149.490463 482.832,149.490463 L489.0132,149.490463 C491.3856,149.490463 493.3152,147.363376 493.3152,144.991341 C493.3134,142.615703 491.3856,140.485014 489.0132,140.485014 L489.0132,140.485014 L489.0132,140.485014 Z" id="Shape"></path>
                                    <path d="M422.964,167.501362 L416.781,167.501362 C414.4104,167.501362 412.4826,169.630251 412.4826,172.005888 C412.4826,174.379725 414.4086,176.506812 416.781,176.506812 L422.964,176.506812 C425.3346,176.506812 427.266,174.379725 427.266,172.005888 C427.266,169.630251 425.3364,167.501362 422.964,167.501362 L422.964,167.501362 L422.964,167.501362 Z" id="Shape"></path>
                                    <path d="M455.9886,167.501362 L449.8056,167.501362 C447.4368,167.501362 445.5072,169.630251 445.5072,172.005888 C445.5072,174.379725 447.435,176.506812 449.8056,176.506812 L455.9886,176.506812 C458.3592,176.506812 460.2906,174.379725 460.2906,172.005888 C460.2906,169.630251 458.361,167.501362 455.9886,167.501362 L455.9886,167.501362 L455.9886,167.501362 Z" id="Shape"></path>
                                    <path d="M489.0132,167.501362 L482.832,167.501362 C480.4614,167.501362 478.5318,169.630251 478.5318,172.005888 C478.5318,174.379725 480.4596,176.506812 482.832,176.506812 L489.0132,176.506812 C491.3856,176.506812 493.3152,174.379725 493.3152,172.005888 C493.3134,169.630251 491.3856,167.501362 489.0132,167.501362 L489.0132,167.501362 L489.0132,167.501362 Z" id="Shape"></path>
                                    <path d="M422.964,198.119891 L416.781,198.119891 C414.4104,198.119891 412.4826,200.25058 412.4826,202.626218 C412.4826,204.998253 414.4086,207.125341 416.781,207.125341 L422.964,207.125341 C425.3346,207.125341 427.266,204.998253 427.266,202.626218 C427.266,200.25058 425.3364,198.119891 422.964,198.119891 L422.964,198.119891 L422.964,198.119891 Z" id="Shape"></path>
                                    <path d="M455.9886,198.119891 L449.8056,198.119891 C447.4368,198.119891 445.5072,200.25058 445.5072,202.626218 C445.5072,204.998253 447.435,207.125341 449.8056,207.125341 L455.9886,207.125341 C458.3592,207.125341 460.2906,204.998253 460.2906,202.626218 C460.2906,200.25058 458.361,198.119891 455.9886,198.119891 L455.9886,198.119891 L455.9886,198.119891 Z" id="Shape"></path>
                                    <path d="M489.0132,198.119891 L482.832,198.119891 C480.4614,198.119891 478.5318,200.25058 478.5318,202.626218 C478.5318,204.998253 480.4596,207.125341 482.832,207.125341 L489.0132,207.125341 C491.3856,207.125341 493.3152,204.998253 493.3152,202.626218 C493.3134,200.25058 491.3856,198.119891 489.0132,198.119891 L489.0132,198.119891 L489.0132,198.119891 Z" id="Shape"></path>
                                    <path d="M240.4764,0 L234.2952,0 C231.9246,0 229.9932,2.13068937 229.9932,4.50632698 C229.9932,6.8783624 231.9228,9.00544959 234.2952,9.00544959 L240.4764,9.00544959 C242.8488,9.00544959 244.782,6.8783624 244.782,4.50632698 C244.7802,2.13068937 242.8488,0 240.4764,0 L240.4764,0 L240.4764,0 Z" id="Shape"></path>
                                    <path d="M190.062,59.4359673 L82.6344,59.4359673 C80.262,59.4359673 78.3306,61.5648556 78.3306,63.9422943 C78.3306,66.3161308 80.2602,68.4414169 82.6344,68.4414169 L190.062,68.4414169 C192.4326,68.4414169 194.3622,66.3161308 194.3622,63.9422943 C194.3622,61.5648556 192.4326,59.4359673 190.062,59.4359673 L190.062,59.4359673 L190.062,59.4359673 Z" id="Shape"></path>
                                    <path d="M232.8642,59.4359673 L219.3264,59.4359673 C216.9576,59.4359673 215.0298,61.5648556 215.0298,63.9422943 C215.0298,66.3161308 216.9558,68.4414169 219.3264,68.4414169 L232.8642,68.4414169 C235.2366,68.4414169 237.1698,66.3161308 237.1698,63.9422943 C237.1698,61.5648556 235.2384,59.4359673 232.8642,59.4359673 L232.8642,59.4359673 L232.8642,59.4359673 Z" id="Shape"></path>
                                    <path d="M54.783,59.4359673 L47.9322,59.4359673 C45.5616,59.4359673 43.632,61.5648556 43.632,63.9422943 C43.632,66.3161308 45.5598,68.4414169 47.9322,68.4414169 L54.783,68.4414169 C57.1536,68.4414169 59.085,66.3161308 59.085,63.9422943 C59.0832,61.5648556 57.1536,59.4359673 54.783,59.4359673 L54.783,59.4359673 L54.783,59.4359673 Z" id="Shape"></path>
                                    <path d="M38.394,28.8174387 L32.2146,28.8174387 C29.844,28.8174387 27.9162,30.9535313 27.9162,33.3291689 C27.9162,35.6958011 29.8422,37.8228883 32.2146,37.8228883 L38.394,37.8228883 C40.7664,37.8228883 42.6996,35.6958011 42.6996,33.3291689 C42.6996,30.9535313 40.7664,28.8174387 38.394,28.8174387 L38.394,28.8174387 L38.394,28.8174387 Z" id="Shape"></path>
                                    <path d="M72.0792,28.8174387 L65.898,28.8174387 C63.5238,28.8174387 61.5888,30.9535313 61.5888,33.3291689 C61.5888,35.6958011 63.522,37.8228883 65.898,37.8228883 L72.0792,37.8228883 C74.4534,37.8228883 76.3866,35.6958011 76.3866,33.3291689 C76.3866,30.9535313 74.4534,28.8174387 72.0792,28.8174387 L72.0792,28.8174387 L72.0792,28.8174387 Z" id="Shape"></path>
                                    <path d="M133.2576,37.8228883 L139.4352,37.8228883 C141.8058,37.8228883 143.739,35.6958011 143.739,33.3291689 C143.739,30.9535313 141.8076,28.8174387 139.4352,28.8174387 L133.2576,28.8174387 C130.8834,28.8174387 128.9502,30.9535313 128.9502,33.3291689 C128.952,35.6958011 130.8834,37.8228883 133.2576,37.8228883 L133.2576,37.8228883 L133.2576,37.8228883 Z" id="Shape"></path>
                                    <path d="M166.9302,37.8228883 L173.1096,37.8228883 C175.482,37.8228883 177.4152,35.6958011 177.4152,33.3291689 C177.4152,30.9535313 175.4838,28.8174387 173.1096,28.8174387 L166.9302,28.8174387 C164.5596,28.8174387 162.6318,30.9535313 162.6318,33.3291689 C162.6336,35.6958011 164.5596,37.8228883 166.9302,37.8228883 L166.9302,37.8228883 L166.9302,37.8228883 Z" id="Shape"></path>
                                    <path d="M206.7912,28.8174387 L200.6082,28.8174387 C198.2448,28.8174387 196.3188,30.9535313 196.3188,33.3291689 C196.3188,35.6958011 198.243,37.8228883 200.6082,37.8228883 L206.7912,37.8228883 C209.1672,37.8228883 211.1022,35.6958011 211.1022,33.3291689 C211.1004,30.9535313 209.1672,28.8174387 206.7912,28.8174387 L206.7912,28.8174387 L206.7912,28.8174387 Z" id="Shape"></path>
                                </g>
                            </g>
                            <ellipse id="Oval" fill="#145EA8" cx="226.161" cy="619.416436" rx="9.9378" ry="9.94381744"></ellipse>
                            <path d="M250.1784,442.828575 C249.5862,442.828575 249.012,443.06812 248.4504,443.06812 L203.868,443.06812 C203.3064,443.06812 202.7322,442.828575 202.14,442.828575 C196.65,442.828575 192.2022,447.239444 192.2022,452.732768 C192.2022,458.226093 196.6518,462.880109 202.14,462.880109 L204.1506,462.880109 L248.166,462.880109 C248.814,462.880109 249.4872,462.860297 250.1766,462.860297 C255.6666,462.860297 260.1144,458.33776 260.1144,452.842635 C260.118,447.352913 255.6684,442.828575 250.1784,442.828575 L250.1784,442.828575 L250.1784,442.828575 Z" id="Shape" fill="#145EA8"></path>
                        </g>
                    </g>
                </g>
            </g>
        </g>
    </g>
</svg>