<?xml version="1.0" encoding="UTF-8" standalone="no"?>
<svg width="286px" height="286px" viewBox="0 0 286 286" version="1.1" xmlns="http://www.w3.org/2000/svg" xmlns:xlink="http://www.w3.org/1999/xlink" xmlns:sketch="http://www.bohemiancoding.com/sketch/ns">
    <!-- Generator: Sketch 3.3.1 (12005) - http://www.bohemiancoding.com/sketch -->
    <title>Box Slice</title>
    <desc>Created with Sketch.</desc>
    <defs></defs>
    <g id="Page-1" stroke="none" stroke-width="1" fill="none" fill-rule="evenodd" sketch:type="MSPage">
        <g id="Patients" sketch:type="MSLayerGroup" transform="translate(57.219844, 39.500000)" fill="#FFFFFF">
            <path d="M156.42837,70.8366887 L121.70714,70.8366887 L100.349895,60.159677 L100.349895,50.1761556 C100.349895,49.7847082 100.265323,49.4133969 100.123564,49.0710817 C103.661089,44.3463268 106.253019,38.4432023 106.253019,32.4675875 L106.253019,20.6613385 C106.253019,7.71940856 99.705537,0.619389105 87.2807043,0.0402723735 C87.1252529,0.0144980545 86.9641634,1.42108547e-14 86.801463,1.42108547e-14 L84.3843152,1.42108547e-14 C84.2208093,1.42108547e-14 84.0605253,0.0120817121 83.9050739,0.0402723735 C71.4826576,0.618583658 64.9327588,7.71940856 64.9327588,20.6613385 L64.9327588,32.4675875 C64.9327588,38.4415914 67.5230778,44.3471323 71.0597977,49.0710817 C70.9204553,49.4133969 70.8358833,49.7847082 70.8358833,50.1761556 L70.8358833,60.159677 L49.4786381,70.8366887 L14.7574086,70.8366887 C6.62077821,70.8366887 0,77.4574669 0,85.5940973 L0,168.23623 C0,176.371249 6.62077821,182.993638 14.7574086,182.993638 L53.1273152,182.993638 L53.1273152,203.654171 C53.1273152,205.281175 54.4498599,206.605331 56.0792802,206.605331 C57.7078949,206.605331 59.0304397,205.28037 59.0304397,203.654171 L59.0304397,182.993638 L112.157755,182.993638 L112.157755,203.654171 C112.157755,205.281175 113.482716,206.605331 115.108914,206.605331 C116.735113,206.605331 118.060879,205.28037 118.060879,203.654171 L118.060879,182.993638 L156.430786,182.993638 C164.565,182.993638 171.188195,176.370444 171.188195,168.23623 L171.188195,85.5940973 C171.185778,77.4574669 164.562584,70.8366887 156.42837,70.8366887 L156.42837,70.8366887 Z M70.8342724,20.6613385 C70.8342724,10.4563191 75.385856,5.90392996 85.5916809,5.90392996 C95.7975058,5.90392996 100.349089,10.4563191 100.349089,20.6613385 L100.349089,32.4675875 C100.349089,42.8522218 89.4972957,53.1281206 85.5916809,53.1281206 C81.6836498,53.1281206 70.8342724,42.8522218 70.8342724,32.4675875 L70.8342724,20.6613385 L70.8342724,20.6613385 Z M75.1055603,64.621856 C75.2384591,64.5550039 75.3230311,64.4422412 75.4414319,64.3592802 C75.616214,64.2368521 75.7934125,64.1281167 75.9375875,63.9718599 C76.0672646,63.8301012 76.1502257,63.6698171 76.2492957,63.5095331 C76.3483658,63.349249 76.4595175,63.1978249 76.5279805,63.0182101 C76.6028872,62.82007 76.6222179,62.6122646 76.6528249,62.4020428 C76.6737665,62.260284 76.7373969,62.1330233 76.7373969,61.9840156 L76.7373969,55.0040078 C79.8375642,57.5089494 83.0279416,59.0320506 85.5916809,59.0320506 C88.1562257,59.0320506 91.348214,57.5065331 94.4467704,55.0040078 L94.4467704,61.9815992 C94.4467704,62.130607 94.5104008,62.2578677 94.5313424,62.3996265 C94.5619494,62.6098482 94.5812802,62.8176537 94.6561868,63.0157938 C94.7246498,63.1978249 94.8333852,63.3460272 94.9348716,63.5071167 C95.0339416,63.6674008 95.1169027,63.8301012 95.2465798,63.970249 C95.3931712,64.1257004 95.5679533,64.2344358 95.7427354,64.3568638 C95.8627471,64.4398249 95.9457082,64.553393 96.0802179,64.6194397 L108.5123,70.8342724 L62.6815331,70.8342724 L75.1055603,64.621856 L75.1055603,64.621856 Z M165.282654,168.23623 C165.282654,173.118852 161.310992,177.090514 156.42837,177.090514 L14.7557977,177.090514 C9.8731751,177.090514 5.90070817,173.118852 5.90070817,168.23623 L5.90070817,85.5940973 C5.90070817,80.7114747 9.87236965,76.7390078 14.7557977,76.7390078 L50.1689066,76.7390078 L50.1761556,76.7390078 L50.185821,76.7390078 L120.996735,76.7390078 L121.005595,76.7390078 L121.012844,76.7390078 L156.42837,76.7390078 C161.310992,76.7390078 165.282654,80.7106693 165.282654,85.5940973 L165.282654,168.23623 L165.282654,168.23623 Z M121.010428,118.060879 L88.5436459,118.060879 L88.5436459,112.157755 L115.107304,112.157755 C116.734307,112.157755 118.059268,110.832794 118.059268,109.206595 C118.059268,107.577175 116.734307,106.25463 115.107304,106.25463 L88.5436459,106.25463 L88.5436459,100.351506 L109.204179,100.351506 C110.831183,100.351506 112.156144,99.0289611 112.156144,97.3995409 C112.156144,95.7709261 110.831183,94.4483813 109.204179,94.4483813 L88.5436459,94.4483813 L88.5436459,91.4964163 C88.5436459,89.8669961 87.2186848,88.5444514 85.5916809,88.5444514 C83.9630661,88.5444514 82.6405214,89.8669961 82.6405214,91.4964163 L82.6405214,94.4483813 L61.9799883,94.4483813 C60.3505681,94.4483813 59.0280233,95.7709261 59.0280233,97.3995409 C59.0280233,99.0289611 60.3505681,100.351506 61.9799883,100.351506 L82.6405214,100.351506 L82.6405214,106.25463 L56.0768638,106.25463 C54.4474436,106.25463 53.1248988,107.577175 53.1248988,109.206595 C53.1248988,110.833599 54.4474436,112.157755 56.0768638,112.157755 L82.6405214,112.157755 L82.6405214,118.060879 L50.1737393,118.060879 C48.5451245,118.060879 47.2217743,119.38584 47.2217743,121.012844 C47.2217743,122.639848 48.5443191,123.964809 50.1737393,123.964809 L82.6405214,123.964809 L82.6405214,132.819093 C82.6405214,134.446097 83.9630661,135.771058 85.5916809,135.771058 C87.2186848,135.771058 88.5436459,134.446097 88.5436459,132.819093 L88.5436459,123.964809 L121.010428,123.964809 C122.637432,123.964809 123.961588,122.639848 123.961588,121.012844 C123.961588,119.385035 122.636626,118.060879 121.010428,118.060879 L121.010428,118.060879 Z M67.8831128,141.672572 L50.1737393,141.672572 C48.5451245,141.672572 47.2217743,142.997533 47.2217743,144.624537 C47.2217743,146.251541 48.5443191,147.576502 50.1737393,147.576502 L67.8831128,147.576502 C69.5117276,147.576502 70.8350778,146.251541 70.8350778,144.624537 C70.8342724,142.997533 69.5117276,141.672572 67.8831128,141.672572 L67.8831128,141.672572 Z M121.010428,141.672572 L103.301054,141.672572 C101.674051,141.672572 100.349089,142.997533 100.349089,144.624537 C100.349089,146.251541 101.674051,147.576502 103.301054,147.576502 L121.010428,147.576502 C122.637432,147.576502 123.961588,146.251541 123.961588,144.624537 C123.961588,142.997533 122.636626,141.672572 121.010428,141.672572 L121.010428,141.672572 Z M67.8831128,153.478821 L56.0768638,153.478821 C54.4474436,153.478821 53.1248988,154.803782 53.1248988,156.430786 C53.1248988,158.05779 54.4474436,159.382751 56.0768638,159.382751 L67.8831128,159.382751 C69.5117276,159.382751 70.8350778,158.05779 70.8350778,156.430786 C70.8350778,154.803782 69.5117276,153.478821 67.8831128,153.478821 L67.8831128,153.478821 Z M115.107304,153.478821 L103.301054,153.478821 C101.674051,153.478821 100.349089,154.803782 100.349089,156.430786 C100.349089,158.05779 101.674051,159.382751 103.301054,159.382751 L115.107304,159.382751 C116.734307,159.382751 118.059268,158.05779 118.059268,156.430786 C118.059268,154.803782 116.733502,153.478821 115.107304,153.478821 L115.107304,153.478821 Z M73.7862374,129.867128 L50.1745447,129.867128 C48.54593,129.867128 47.2225798,131.192089 47.2225798,132.819093 C47.2225798,134.446097 48.5451245,135.771058 50.1745447,135.771058 L73.7862374,135.771058 C75.4156576,135.771058 76.7382023,134.446097 76.7382023,132.819093 C76.7382023,131.192089 75.4148521,129.867128 73.7862374,129.867128 L73.7862374,129.867128 Z M121.010428,129.867128 L97.39793,129.867128 C95.7709261,129.867128 94.445965,131.192089 94.445965,132.819093 C94.445965,134.446097 95.7709261,135.771058 97.39793,135.771058 L121.009623,135.771058 C122.636626,135.771058 123.960782,134.446097 123.960782,132.819093 C123.960782,131.192089 122.636626,129.867128 121.010428,129.867128 L121.010428,129.867128 Z" id="Shape" sketch:type="MSShapeGroup"></path>
        </g>
    </g>
</svg>