<?xml version="1.0" encoding="UTF-8" standalone="no"?>
<svg width="235px" height="177px" viewBox="0 0 235 177" version="1.1" xmlns="http://www.w3.org/2000/svg" xmlns:xlink="http://www.w3.org/1999/xlink" xmlns:sketch="http://www.bohemiancoding.com/sketch/ns">
    <!-- Generator: Sketch 3.5.1 (25234) - http://www.bohemiancoding.com/sketch -->
    <title>Box Slice</title>
    <desc>Created with Sketch.</desc>
    <defs></defs>
    <g id="Page-1" stroke="none" stroke-width="1" fill="none" fill-rule="evenodd" sketch:type="MSPage">
        <g id="icon-health-systems" sketch:type="MSLayerGroup" fill="#FFFFFF">
            <g id="Box-Slice" sketch:type="MSShapeGroup">
                <g id="Page-1">
                    <g id="Health-Systems">
                        <g id="Layer_1">
                            <path d="M103.564322,43.7309091 L98.600222,43.7309091 L93.7920561,43.7309091 L93.7920561,38.83796 L93.7920561,33.1685964 C93.7920561,30.9151273 91.7314136,29.4545455 89.4764019,29.4545455 L66.5962967,29.4545455 C64.341285,29.4545455 62.4953271,30.9145782 62.4953271,33.1685964 L62.4953271,38.83796 L62.4953271,43.7309091 L58.5634696,43.7309091 L52.5083762,43.7309091 C50.2462266,43.7309091 48.2196262,45.0031527 48.2196262,47.2593673 L48.2196262,70.1405345 C48.2196262,72.3983964 50.248972,75.0290909 52.5083762,75.0290909 L58.5634696,75.0290909 L62.4953271,75.0290909 L62.4953271,77.4928618 L62.4953271,84.22856 C62.4953271,86.4880691 64.3434813,88.7563636 66.5962967,88.7563636 L89.4764019,88.7563636 C91.7341589,88.7563636 93.7920561,86.4880691 93.7920561,84.22856 L93.7920561,77.4928618 L93.7920561,75.0290909 L98.600771,75.0290909 L103.564871,75.0290909 C105.825374,75.0290909 107.519241,72.3983964 107.519241,70.1405345 L107.519241,47.2593673 C107.518692,45.0031527 105.822629,43.7309091 103.564322,43.7309091 L103.564322,43.7309091 Z M100.929907,67.8909091 L86.6542056,67.8909091 L86.6542056,81.6181818 L69.6331776,81.6181818 L69.6331776,67.8909091 L55.3574766,67.8909091 L55.3574766,49.2218182 L69.6331776,49.2218182 L69.6331776,35.4945455 L86.6542056,35.4945455 L86.6542056,49.2218182 L100.929907,49.2218182 L100.929907,67.8909091 L100.929907,67.8909091 Z" id="Shape"></path>
                            <path d="M150.742068,127.995663 L186.675105,127.995663 L186.675105,173.407104 C186.675105,175.144856 187.875911,176.55908 189.351799,176.55908 L232.099287,176.55908 C233.573528,176.55908 234.772138,175.145502 234.772138,173.407104 C234.772138,172.566965 234.49486,171.777195 233.988621,171.181154 C233.48403,170.586405 232.813621,170.259003 232.101484,170.259003 L212.674451,170.259003 L212.674451,76.2906017 C212.674451,74.5547871 211.473645,73.1412089 209.997757,73.1412089 L130.101051,73.1412089 L130.101051,3.14616397 C130.101051,1.41099513 128.900245,-1.42108547e-14 127.424907,-1.42108547e-14 L26.6455958,-1.42108547e-14 C25.1680607,-1.42108547e-14 23.9661565,1.4116409 23.9661565,3.14616397 L23.9661565,170.262877 L3.2169743,170.262877 C1.74547897,170.262877 0.547418224,171.673873 0.547418224,173.407104 C0.547418224,175.144856 1.74547897,176.55908 3.2169743,176.55908 L25.3207009,176.55908 C25.4727921,176.55908 25.6188435,176.527438 25.7670911,176.500315 L25.9889136,176.460278 L26.2101869,176.501607 C26.3501986,176.529375 26.4924065,176.558434 26.6428505,176.558434 L148.065923,176.558434 C149.541811,176.558434 150.742068,175.144856 150.742068,173.406458 L150.742068,127.995663 L150.742068,127.995663 Z M207.328201,170.259003 L192.031787,170.259003 L192.031787,124.85079 C192.031787,123.114976 190.830432,121.702043 189.355093,121.702043 L148.069217,121.702043 C146.593329,121.702043 145.392523,123.114976 145.392523,124.85079 L145.392523,170.259003 L130.101051,170.259003 L130.101051,79.4354742 L207.327652,79.4354742 L207.327652,170.259003 L207.328201,170.259003 Z M124.749311,170.259003 L29.3189953,170.259003 L29.3189953,6.28974489 L124.749311,6.28974489 L124.749311,170.259003 L124.749311,170.259003 Z" id="Shape"></path>
                        </g>
                    </g>
                </g>
            </g>
        </g>
    </g>
</svg>