<?xml version="1.0" encoding="UTF-8" standalone="no"?>
<svg width="747px" height="747px" viewBox="0 0 747 747" version="1.1" xmlns="http://www.w3.org/2000/svg" xmlns:xlink="http://www.w3.org/1999/xlink" xmlns:sketch="http://www.bohemiancoding.com/sketch/ns">
    <!-- Generator: Sketch 3.5.1 (25234) - http://www.bohemiancoding.com/sketch -->
    <title>Bounding-Box</title>
    <desc>Created with Sketch.</desc>
    <defs></defs>
    <g id="Page-1" stroke="none" stroke-width="1" fill="none" fill-rule="evenodd" sketch:type="MSPage">
        <g id="icon-practice-management" sketch:type="MSLayerGroup" fill="#FFFFFF">
            <g id="Page-1" sketch:type="MSShapeGroup">
                <g id="Prescribing" transform="translate(66.000000, 46.000000)">
                    <path d="M377.35224,105.976499 L377.35224,105.976499 C374.918329,103.535841 319.655923,48.2767506 319.655923,48.2767506 L319.655923,48.278455 L326.095221,41.8223008 L326.09863,41.8240051 C326.09863,41.8240051 381.403646,97.1205913 383.808583,99.5288663 L383.806878,99.5305707 L377.35224,105.976499 L377.35224,105.976499 Z M323.270997,47.0700566 C330.755105,54.553946 370.837948,94.6356195 378.560674,102.359825 L380.191804,100.732152 C372.475895,93.0130591 332.387939,52.9296812 324.897014,45.4406787 L323.270997,47.0700566 L323.270997,47.0700566 Z" id="Shape" stroke="#FFFFFF" stroke-width="2"></path>
                    <path d="M413.228575,12.3997584 C397.295657,-3.53098972 371.453243,-3.53098972 355.523735,12.3997584 L290.234227,77.6907712 C274.296196,93.6283368 274.296196,119.456362 290.234227,135.393928 C306.167144,151.329789 332.00274,151.329789 347.940771,135.393928 L413.228575,70.1046195 C429.161492,54.1789846 429.161492,28.3441414 413.228575,12.3997584 L413.228575,12.3997584 Z M409.190804,66.0669666 L343.899591,131.357979 C330.194351,145.061116 307.977238,145.061116 294.26518,131.357979 C280.565052,117.659956 280.565052,95.4417866 294.26518,81.7301285 L359.561506,16.4442288 C373.265041,2.74279692 395.483859,2.74279692 409.190804,16.4442288 C422.899453,30.1405476 422.899453,52.3655347 409.190804,66.0669666 L409.190804,66.0669666 Z" id="Shape" stroke="#FFFFFF" stroke-width="2"></path>
                    <path d="M568.088757,105.974794 L568.088757,105.974794 C565.654845,103.535841 510.387326,48.2767506 510.387326,48.2767506 L510.383917,48.2750463 L516.830033,41.8205964 L516.835146,41.8240051 C516.835146,41.8240051 572.143572,97.1222956 574.543395,99.5305707 L574.539986,99.5305707 L568.088757,105.974794 L568.088757,105.974794 Z M514.002401,47.0717609 C521.486508,54.5556504 561.57276,94.6339152 569.295486,102.359825 L570.926616,100.732152 C563.217525,93.0181722 523.122751,52.9296812 515.631826,45.4406787 L514.002401,47.0717609 L514.002401,47.0717609 Z" id="Shape" stroke="#FFFFFF" stroke-width="2"></path>
                    <path d="M603.963387,12.3997584 C588.023652,-3.53098972 562.193169,-3.53098972 546.256843,12.3997584 L480.96563,77.6907712 C465.031008,93.6283368 465.031008,119.456362 480.96563,135.393928 C496.900251,151.329789 522.737552,151.329789 538.675583,135.393928 L603.963387,70.1046195 C619.892895,54.1789846 619.892895,28.3441414 603.963387,12.3997584 L603.963387,12.3997584 Z M599.929025,66.0669666 L534.632699,131.357979 C520.92405,145.061116 498.710345,145.061116 485.001696,131.357979 C471.303273,117.659956 471.303273,95.4417866 485.001696,81.7301285 L550.291204,16.4442288 C564.001558,2.74279692 586.220376,2.74279692 599.929025,16.4442288 C613.627448,30.1405476 613.627448,52.3655347 599.929025,66.0669666 L599.929025,66.0669666 Z" id="Shape" stroke="#FFFFFF" stroke-width="2"></path>
                    <path d="M118.757655,357.657434 C116.124326,358.830041 111.435467,360.875285 108.367511,362.049596 C115.244845,365.55719 121.682439,369.07501 126.076434,373.313779 L117.296967,373.313779 C115.974337,370.239095 112.901268,368.045571 109.391867,368.045571 C105.877354,368.045571 102.809398,370.239095 101.490177,373.313779 L83.634674,373.313779 C88.3167155,368.631874 95.4872099,364.822607 103.09574,361.165028 C103.971812,360.723596 104.847884,360.294095 105.729069,359.854368 C109.828199,357.798897 114.068796,355.753653 118.02305,353.555015 C126.223014,348.86118 134.654779,342.526036 137.780685,334.697864 C137.780685,334.697864 140.044155,330.235823 139.849851,325.901609 C139.640207,321.250383 137.175616,317.664388 137.175616,317.664388 C132.166326,306.504172 117.804884,299.183902 105.730773,293.268033 C96.5149751,288.725887 87.5838149,284.335429 82.4603287,278.482622 L104.121801,278.482622 C105.442727,281.562419 108.512387,283.60255 112.025196,283.60255 C115.53971,283.60255 118.612779,281.562419 119.926887,278.482622 L127.249075,278.482622 C123.593094,282.585041 118.026459,286.092635 111.004249,289.751918 C109.976483,290.34163 108.950423,290.776244 107.926066,291.367661 C109.393572,291.942033 111.152533,292.83001 112.902972,293.409496 C115.103378,294.437231 117.298671,295.309869 118.321323,295.751301 C130.025575,289.308781 140.270843,281.264154 140.270843,267.806447 L131.489671,267.806447 C131.489671,269.555131 131.193102,271.170874 130.763588,272.624702 L120.37174,272.624702 C119.347384,268.970532 115.976041,266.48556 112.026901,266.48556 C108.076055,266.48556 104.852997,268.970532 103.682061,272.624702 L78.954337,272.624702 C78.3611989,271.16917 78.0765608,269.411964 78.0765608,267.806447 L69.2936851,267.806447 C69.4419696,285.218293 86.7094475,293.700943 101.924804,301.159267 C107.348268,303.799337 112.758097,306.432589 117.300376,309.360697 L92.4175497,309.360697 C95.0508785,307.603491 97.9807762,306.142846 101.052141,304.530512 L92.2709696,299.25719 C83.9823757,303.887964 75.7142348,310.24356 72.3718674,318.049576 C72.3718674,318.049576 70.7407376,322.930892 70.6674475,326.377129 C70.5975663,329.66145 71.8520193,333.146887 71.8520193,333.146887 C75.0000829,341.401152 83.6500138,349.202054 92.1243895,353.98963 L100.905561,348.728239 C97.5410359,346.967625 94.3230912,345.217237 91.5431823,343.311751 L118.026459,343.311751 C114.515354,345.65526 110.564508,347.702208 106.463674,349.744044 C105.002986,350.475219 103.394014,351.209802 101.779928,352.089257 C98.2671188,353.849871 94.6077293,355.60026 91.0983287,357.502337 C85.2453508,360.721892 79.8287044,364.377766 75.731279,368.776746 C71.7872514,373.31037 69.1488094,378.721746 69.1488094,385.312545 L77.9282762,385.312545 C77.9282762,383.119021 78.3611989,381.066959 79.2440884,379.161473 L79.6872376,379.161473 L100.758981,379.161473 C101.778224,382.675884 105.147862,385.312545 108.948718,385.312545 C112.756392,385.312545 116.12603,382.67418 117.148682,379.161473 L129.73071,379.161473 C130.615304,381.066959 131.048227,383.119021 131.048227,385.312545 L139.832807,385.312545 C140.267434,372.001414 130.172155,363.951674 118.757655,357.657434 L118.757655,357.657434 Z M110.709384,272.624702 C111.149124,272.338368 111.580343,272.338368 112.023492,272.338368 C112.468345,272.338368 113.049552,272.47983 113.342713,272.624702 C114.21708,273.072951 114.805105,273.94218 114.805105,274.969915 C114.805105,276.432265 113.63076,277.748039 112.021787,277.748039 C110.561099,277.748039 109.246992,276.580545 109.246992,274.969915 C109.248696,273.94218 109.828199,273.072951 110.709384,272.624702 L110.709384,272.624702 Z M85.1004751,315.072041 L123.877732,315.072041 L124.465757,315.072041 C126.804221,317.557013 128.564887,320.331728 129.146094,323.552987 L103.971812,323.552987 C102.807693,320.197082 99.5846354,317.846756 95.9252459,317.846756 C92.2658564,317.846756 89.0445028,320.197082 87.8735663,323.552987 L80.5581961,323.552987 C81.1428122,320.485121 82.7551934,317.701884 85.1004751,315.072041 L85.1004751,315.072041 Z M98.7085635,326.482799 C98.7085635,327.948558 97.3893425,329.26774 95.9252459,329.26774 C94.464558,329.26774 93.1436326,328.095134 93.1436326,326.482799 C93.1436326,325.015337 94.3179779,323.704676 95.9252459,323.704676 C97.3893425,323.849548 98.7085635,325.013632 98.7085635,326.482799 L98.7085635,326.482799 Z M84.6607348,337.460648 C82.6052044,335.118843 81.1445166,332.480478 80.5599006,329.559188 L87.8752707,329.559188 C89.0462072,332.923614 92.2675608,335.267123 95.9269503,335.267123 C99.5863398,335.267123 102.809398,332.923614 103.973517,329.559188 L129.147798,329.559188 C128.566591,332.480478 127.10079,335.118843 125.055486,337.460648 L84.6607348,337.460648 L84.6607348,337.460648 Z M110.416224,379.164882 C110.121359,379.311458 109.679914,379.459738 109.246992,379.459738 C108.802138,379.459738 108.365807,379.311458 108.070942,379.164882 C107.191461,378.725154 106.460265,377.850812 106.460265,376.678206 C106.460265,375.214152 107.631202,373.903491 109.248696,373.903491 C110.709384,373.903491 112.023492,375.06928 112.023492,376.678206 C112.023492,377.850812 111.294,378.725154 110.416224,379.164882 L110.416224,379.164882 Z" id="Shape"></path>
                    <g id="Group" transform="translate(490.872928, 223.976864)">
                        <path d="M51.5881713,101.95372 C23.7311326,101.95372 1.08109669,79.3009357 1.08109669,51.451527 C1.08109669,23.5970051 23.7311326,0.937403599 51.5881713,0.937403599 C79.4452099,0.937403599 102.103768,23.5970051 102.103768,51.451527 C102.102064,79.3009357 79.4435055,101.95372 51.5881713,101.95372 L51.5881713,101.95372 Z M51.5881713,4.59498201 C25.7576878,4.59498201 4.74048619,25.6183882 4.74048619,51.451527 C4.74048619,77.2846658 25.7525746,98.3012545 51.5881713,98.3012545 C77.4254724,98.3012545 98.4477873,77.2846658 98.4477873,51.451527 C98.4477873,25.6183882 77.4254724,4.59498201 51.5881713,4.59498201 L51.5881713,4.59498201 Z M70.0998757,40.889545 L62.3464696,33.1312519 L51.903489,43.7375476 L41.4656215,33.1312519 L33.7122155,40.889545 L44.2915497,51.4753882 L33.7190331,62.2265553 L41.2508646,69.7632802 L51.903489,59.1041491 L62.5612265,69.7632802 L70.0998757,62.2265553 L59.518837,51.4753882 L70.0998757,40.889545 L70.0998757,40.889545 Z" id="Shape"></path>
                        <path d="M51.5881713,102.805905 C23.2692348,102.805905 0.22888674,79.7679332 0.22888674,51.451527 C0.22888674,23.1283033 23.2692348,0.085218509 51.5881713,0.085218509 C79.912221,0.085218509 102.955978,23.1283033 102.955978,51.451527 C102.954273,79.7696375 79.912221,102.805905 51.5881713,102.805905 L51.5881713,102.805905 Z M51.5881713,1.79129306 C24.2100746,1.79129306 1.93330663,24.0691157 1.93330663,51.4532314 C1.93330663,78.8288252 24.2083702,101.103239 51.5881713,101.103239 C78.9713812,101.103239 101.251558,78.8305296 101.251558,51.4532314 C101.249854,24.0691157 78.9713812,1.79129306 51.5881713,1.79129306 L51.5881713,1.79129306 Z M51.5881713,99.155144 C25.2855635,99.155144 3.88827624,77.755072 3.88827624,51.4532314 C3.88827624,25.1462776 25.287268,3.74450129 51.5881713,3.74450129 C77.8975967,3.74450129 99.2999972,25.147982 99.2999972,51.4532314 C99.2999972,77.755072 77.8958923,99.155144 51.5881713,99.155144 L51.5881713,99.155144 Z M51.5881713,5.4471671 C26.2264033,5.4471671 5.59269613,26.0836812 5.59269613,51.451527 C5.59269613,76.815964 26.2264033,97.4490694 51.5881713,97.4490694 C76.9567569,97.4490694 97.5955773,76.815964 97.5955773,51.451527 C97.5955773,26.0853856 76.9550525,5.4471671 51.5881713,5.4471671 L51.5881713,5.4471671 Z M41.2508646,70.9682699 L32.5191215,62.2316684 L43.0916381,51.4805013 L32.5071906,40.889545 L41.4707348,31.9211491 L51.903489,42.5223316 L62.3413564,31.9211491 L71.3049006,40.889545 L60.7187486,51.4805013 L71.2997873,62.2316684 L62.5612265,70.9682699 L51.903489,60.3091388 L41.2508646,70.9682699 L41.2508646,70.9682699 Z M51.903489,57.8991594 L62.5612265,68.5582905 L68.8999641,62.2214422 L58.3189254,51.4702751 L68.8948508,40.889545 L62.3515829,34.3413548 L51.903489,44.9527635 L41.4605083,34.3413548 L34.9172403,40.889545 L45.4914613,51.4702751 L34.9189448,62.2214422 L41.2508646,68.5582905 L51.903489,57.8991594 L51.903489,57.8991594 Z" id="Shape" stroke="#FFFFFF" stroke-width="2"></path>
                    </g>
                    <g id="Group" transform="translate(298.977901, 223.976864)">
                        <path d="M47.0453978,69.0934627 L29.1677376,51.1975758 L36.9262569,43.4409871 L47.0471022,53.5598329 L68.1410028,32.4648432 L75.891,40.2163188 L47.0453978,69.0934627 L47.0453978,69.0934627 Z M103.263983,51.451527 C103.263983,23.5970051 80.603721,0.937403599 52.7483867,0.937403599 C24.8947569,0.937403599 2.23449448,23.5970051 2.23449448,51.451527 C2.23449448,79.3009357 24.8947569,101.95372 52.7483867,101.95372 C80.603721,101.95372 103.263983,79.3009357 103.263983,51.451527 L103.263983,51.451527 Z M99.6062983,51.451527 C99.6062983,77.2846658 78.5873923,98.3012545 52.7483867,98.3012545 C26.9179033,98.3012545 5.89217956,77.2846658 5.89217956,51.451527 C5.89217956,25.6183882 26.9179033,4.59498201 52.7483867,4.59498201 C78.5873923,4.59498201 99.6062983,25.6183882 99.6062983,51.451527 L99.6062983,51.451527 Z" id="Shape"></path>
                        <path d="M52.7483867,102.805905 C24.4260414,102.805905 1.38228453,79.7679332 1.38228453,51.451527 C1.38228453,23.1283033 24.4260414,0.085218509 52.7483867,0.085218509 C81.0724365,0.085218509 104.116193,23.1283033 104.116193,51.451527 C104.116193,79.7696375 81.0724365,102.805905 52.7483867,102.805905 L52.7483867,102.805905 Z M52.7483867,1.79129306 C25.3651768,1.79129306 3.08670442,24.0691157 3.08670442,51.4532314 C3.08670442,78.8288252 25.3634724,101.103239 52.7483867,101.103239 C80.1333011,101.103239 102.411773,78.8305296 102.411773,51.4532314 C102.411773,24.0691157 80.1333011,1.79129306 52.7483867,1.79129306 L52.7483867,1.79129306 Z M52.7483867,99.155144 C26.4406657,99.155144 5.03996961,77.755072 5.03996961,51.4532314 C5.03996961,25.1462776 26.4423702,3.74450129 52.7483867,3.74450129 C79.0544033,3.74450129 100.458508,25.147982 100.458508,51.4532314 C100.458508,77.755072 79.0561077,99.155144 52.7483867,99.155144 L52.7483867,99.155144 Z M52.7483867,5.4471671 C27.3815055,5.4471671 6.7443895,26.0836812 6.7443895,51.451527 C6.7443895,76.815964 27.3815055,97.4490694 52.7483867,97.4490694 C78.1169724,97.4490694 98.7540884,76.815964 98.7540884,51.451527 C98.7540884,26.0853856 78.1169724,5.4471671 52.7483867,5.4471671 L52.7483867,5.4471671 Z M47.0453978,70.2984524 L27.9627127,51.1975758 L36.9262569,42.2359974 L47.0471022,52.3548432 L68.1410028,31.2598535 L77.0960249,40.2163188 L47.0453978,70.2984524 L47.0453978,70.2984524 Z M30.371058,51.1975758 L47.0436934,67.888473 L74.6825663,40.2163188 L68.1375939,33.6698329 L47.0436934,54.7648226 L36.9228481,44.6459769 L30.371058,51.1975758 L30.371058,51.1975758 Z" id="Shape" stroke="#FFFFFF" stroke-width="2"></path>
                    </g>
                    <g id="Group" transform="translate(489.872928, 387.596401)">
                        <path d="M52.5881713,102.367882 C24.7311326,102.367882 2.08109669,79.7082802 2.08109669,51.8605758 C2.08109669,24.006054 24.7311326,1.34474807 52.5881713,1.34474807 C80.4452099,1.34474807 103.103768,24.006054 103.103768,51.8605758 C103.102064,79.7082802 80.4435055,102.367882 52.5881713,102.367882 L52.5881713,102.367882 Z M52.5881713,5.00232648 C26.7576878,5.00232648 5.74048619,26.0172108 5.74048619,51.8605758 C5.74048619,77.6971234 26.7525746,98.7103033 52.5881713,98.7103033 C78.4254724,98.7103033 99.4477873,77.6971234 99.4477873,51.8605758 C99.4477873,26.0172108 78.4254724,5.00232648 52.5881713,5.00232648 L52.5881713,5.00232648 Z M71.0998757,41.2951851 L63.3464696,33.5385964 L52.903489,44.1500051 L42.4656215,33.5385964 L34.7122155,41.2951851 L45.2915497,51.8827326 L34.7190331,62.630491 L42.2508646,70.1672159 L52.903489,59.5097892 L63.5612265,70.1672159 L71.0998757,62.630491 L60.518837,51.8827326 L71.0998757,41.2951851 L71.0998757,41.2951851 Z" id="Shape"></path>
                        <path d="M52.5881713,103.220067 C24.2692348,103.220067 1.22888674,80.1803907 1.22888674,51.8605758 C1.22888674,23.5373522 24.2692348,0.492562982 52.5881713,0.492562982 C80.912221,0.492562982 103.955978,23.5373522 103.955978,51.8605758 C103.954273,80.1803907 80.912221,103.220067 52.5881713,103.220067 L52.5881713,103.220067 Z M52.5881713,2.19693316 C25.2100746,2.19693316 2.93330663,24.4747558 2.93330663,51.8605758 C2.93330663,79.2395784 25.2083702,101.515697 52.5881713,101.515697 C79.9713812,101.515697 102.251558,79.2412828 102.251558,51.8605758 C102.249854,24.4747558 79.9713812,2.19693316 52.5881713,2.19693316 L52.5881713,2.19693316 Z M52.5881713,99.5624884 C26.2855635,99.5624884 4.88827624,78.1624165 4.88827624,51.8605758 C4.88827624,25.5519177 26.287268,4.15014139 52.5881713,4.15014139 C78.8975967,4.15014139 100.299997,25.5536221 100.299997,51.8605758 C100.299997,78.1624165 78.8958923,99.5624884 52.5881713,99.5624884 L52.5881713,99.5624884 Z M52.5881713,5.85451157 C27.2264033,5.85451157 6.59269613,26.4927301 6.59269613,51.8605758 C6.59269613,77.2250129 27.2264033,97.8581183 52.5881713,97.8581183 C77.9567569,97.8581183 98.5955773,77.2250129 98.5955773,51.8605758 C98.5955773,26.4927301 77.9550525,5.85451157 52.5881713,5.85451157 L52.5881713,5.85451157 Z M42.2508646,71.3722057 L33.5191215,62.6356041 L44.0916381,51.8878458 L33.5071906,41.2951851 L42.4707348,32.3284936 L52.903489,42.9347892 L63.3413564,32.3284936 L72.3049006,41.2951851 L61.7187486,51.8878458 L72.2997873,62.6356041 L63.5612265,71.3722057 L52.903489,60.7147789 L42.2508646,71.3722057 L42.2508646,71.3722057 Z M52.903489,58.3047995 L63.5612265,68.9622262 L69.8999641,62.6253779 L59.3189254,51.8776195 L69.8948508,41.2951851 L63.3515829,34.7486992 L52.903489,45.3652211 L42.4605083,34.7486992 L35.9172403,41.2951851 L46.4914613,51.8776195 L35.9189448,62.6253779 L42.2508646,68.9622262 L52.903489,58.3047995 L52.903489,58.3047995 Z" id="Shape" stroke="#FFFFFF" stroke-width="2"></path>
                    </g>
                    <g id="Group" transform="translate(489.872928, 558.033419)">
                        <path d="M52.5881713,103.04963 C24.7311326,103.04963 2.08109669,80.3883239 2.08109669,52.5440283 C2.08109669,24.6895064 24.7311326,2.02820051 52.5881713,2.02820051 C80.4452099,2.02820051 103.103768,24.6895064 103.103768,52.5440283 C103.102064,80.3883239 80.4435055,103.04963 52.5881713,103.04963 L52.5881713,103.04963 Z M52.5881713,5.68918766 C26.7576878,5.68918766 5.74048619,26.7074807 5.74048619,52.5440283 C5.74048619,78.3822802 26.7525746,99.3920514 52.5881713,99.3920514 C78.4254724,99.3920514 99.4477873,78.3822802 99.4477873,52.5440283 C99.4477873,26.7074807 78.4254724,5.68918766 52.5881713,5.68918766 L52.5881713,5.68918766 Z M71.0998757,41.9871594 L63.3464696,34.2203445 L52.903489,44.8317532 L42.4656215,34.2203445 L34.7122155,41.9871594 L45.2915497,52.5661851 L34.7190331,63.3224653 L42.2508646,70.8557815 L52.903489,60.1898329 L63.5612265,70.8557815 L71.0998757,63.3224653 L60.518837,52.5661851 L71.0998757,41.9871594 L71.0998757,41.9871594 Z" id="Shape"></path>
                        <path d="M52.5881713,103.901815 C24.2692348,103.901815 1.22888674,80.8621388 1.22888674,52.5440283 C1.22888674,24.2208046 24.2692348,1.17601542 52.5881713,1.17601542 C80.912221,1.17601542 103.955978,24.2208046 103.955978,52.5440283 C103.954273,80.8621388 80.912221,103.901815 52.5881713,103.901815 L52.5881713,103.901815 Z M52.5881713,2.8803856 C25.2100746,2.8803856 2.93330663,25.1582082 2.93330663,52.5440283 C2.93330663,79.9213265 25.2083702,102.197445 52.5881713,102.197445 C79.9713812,102.197445 102.251558,79.9230308 102.251558,52.5440283 C102.249854,25.1599126 79.9713812,2.8803856 52.5881713,2.8803856 L52.5881713,2.8803856 Z M52.5881713,100.244237 C26.2855635,100.244237 4.88827624,78.8458689 4.88827624,52.5440283 C4.88827624,26.2370746 26.287268,4.83700257 52.5881713,4.83700257 C78.8975967,4.83700257 100.299997,26.2387789 100.299997,52.5440283 C100.299997,78.8475733 78.8958923,100.244237 52.5881713,100.244237 L52.5881713,100.244237 Z M52.5881713,6.54137275 C27.2264033,6.54137275 6.59269613,27.1778869 6.59269613,52.5440283 C6.59269613,77.9067609 27.2264033,98.5398663 52.5881713,98.5398663 C77.9567569,98.5398663 98.5955773,77.9067609 98.5955773,52.5440283 C98.5955773,27.1778869 77.9550525,6.54137275 52.5881713,6.54137275 L52.5881713,6.54137275 Z M42.2508646,72.0590668 L33.5191215,63.325874 L44.0916381,52.5695938 L33.5071906,41.985455 L42.4707348,33.0085373 L52.903489,43.6148329 L63.3413564,33.0085373 L72.3049006,41.985455 L61.7187486,52.5695938 L72.2997873,63.325874 L63.5612265,72.0590668 L52.903489,61.3931183 L42.2508646,72.0590668 L42.2508646,72.0590668 Z M52.903489,58.9831388 L63.5612265,69.6490874 L69.8999641,63.3156478 L59.3189254,52.5593676 L69.8948508,41.985455 L63.3515829,35.4287429 L52.903489,46.0452648 L42.4605083,35.4287429 L35.9172403,41.985455 L46.4914613,52.5593676 L35.9189448,63.3156478 L42.2508646,69.6490874 L52.903489,58.9831388 L52.903489,58.9831388 Z" id="Shape" stroke="#FFFFFF" stroke-width="2"></path>
                    </g>
                    <g id="Group" transform="translate(298.977901, 387.596401)">
                        <path d="M47.0453978,69.4973985 L29.1677376,51.5912853 L36.9262569,43.8415141 L47.0471022,53.9637686 L68.1410028,32.8687789 L75.891,40.6253676 L47.0453978,69.4973985 L47.0453978,69.4973985 Z M103.263983,51.8605758 C103.263983,23.9941234 80.603721,1.34474807 52.7483867,1.34474807 C24.8947569,1.34474807 2.23449448,24.006054 2.23449448,51.8605758 C2.23449448,79.7082802 24.8947569,102.367882 52.7483867,102.367882 C80.603721,102.367882 103.263983,79.7082802 103.263983,51.8605758 L103.263983,51.8605758 Z M99.6062983,51.8605758 C99.6062983,77.6971234 78.5873923,98.7103033 52.7483867,98.7103033 C26.9179033,98.7103033 5.89217956,77.6971234 5.89217956,51.8605758 C5.89217956,26.0172108 26.9179033,5.00232648 52.7483867,5.00232648 C78.5873923,5.00232648 99.6062983,26.0172108 99.6062983,51.8605758 L99.6062983,51.8605758 Z" id="Shape"></path>
                        <path d="M52.7483867,103.220067 C24.4260414,103.220067 1.38228453,80.1803907 1.38228453,51.8605758 C1.38228453,23.5373522 24.4260414,0.492562982 52.7483867,0.492562982 C81.0724365,0.492562982 104.116193,23.5373522 104.116193,51.8605758 C104.116193,80.1803907 81.0724365,103.220067 52.7483867,103.220067 L52.7483867,103.220067 Z M52.7483867,2.19693316 C25.3651768,2.19693316 3.08670442,24.4747558 3.08670442,51.8605758 C3.08670442,79.2395784 25.3634724,101.515697 52.7483867,101.515697 C80.1333011,101.515697 102.411773,79.2412828 102.411773,51.8605758 C102.411773,24.4747558 80.1333011,2.19693316 52.7483867,2.19693316 L52.7483867,2.19693316 Z M52.7483867,99.5624884 C26.4406657,99.5624884 5.03996961,78.1624165 5.03996961,51.8605758 C5.03996961,25.5519177 26.4423702,4.15014139 52.7483867,4.15014139 C79.0544033,4.15014139 100.458508,25.5536221 100.458508,51.8605758 C100.458508,78.1624165 79.0561077,99.5624884 52.7483867,99.5624884 L52.7483867,99.5624884 Z M52.7483867,5.85451157 C27.3815055,5.85451157 6.7443895,26.4927301 6.7443895,51.8605758 C6.7443895,77.2250129 27.3815055,97.8581183 52.7483867,97.8581183 C78.1169724,97.8581183 98.7540884,77.2250129 98.7540884,51.8605758 C98.7540884,26.4927301 78.1169724,5.85451157 52.7483867,5.85451157 L52.7483867,5.85451157 Z M47.0453978,70.7040925 L27.9627127,51.5912853 L36.9262569,42.6365244 L47.0471022,52.7587789 L68.1410028,31.6637892 L77.0960249,40.6253676 L47.0453978,70.7040925 L47.0453978,70.7040925 Z M30.371058,51.5929897 L47.0436934,68.2924087 L74.6825663,40.6287763 L68.1375939,34.0771774 L47.0436934,55.1721671 L36.9228481,45.0499126 L30.371058,51.5929897 L30.371058,51.5929897 Z" id="Shape" stroke="#FFFFFF" stroke-width="2"></path>
                    </g>
                    <g id="Group" transform="translate(297.273481, 558.033419)">
                        <path d="M45.8369641,70.1876684 L27.9575994,52.2781465 L35.7161188,44.526671 L45.8369641,54.6472211 L66.9376823,33.5573445 L74.6876796,41.3088201 L45.8369641,70.1876684 L45.8369641,70.1876684 Z M102.057254,52.5440283 C102.057254,24.6895064 79.3969917,2.02820051 51.539953,2.02820051 C23.6829144,2.02820051 1.02435635,24.6895064 1.02435635,52.5440283 C1.02435635,80.3883239 23.6829144,103.04963 51.539953,103.04963 C79.3969917,103.04963 102.057254,80.3951414 102.057254,52.5440283 L102.057254,52.5440283 Z M98.4012735,52.5440283 C98.4012735,78.3822802 77.3772541,99.3971645 51.539953,99.3971645 C25.7060608,99.3971645 4.68204144,78.3822802 4.68204144,52.5440283 C4.68204144,26.7074807 25.7060608,5.68918766 51.539953,5.68918766 C77.3772541,5.68918766 98.4012735,26.7074807 98.4012735,52.5440283 L98.4012735,52.5440283 Z" id="Shape"></path>
                        <path d="M51.539953,103.901815 C23.2159033,103.901815 0.172146409,80.8621388 0.172146409,52.5440283 C0.172146409,24.2208046 23.2159033,1.17601542 51.539953,1.17601542 C79.8640028,1.17601542 102.909464,24.2208046 102.909464,52.5440283 C102.909464,80.8621388 79.8640028,103.901815 51.539953,103.901815 L51.539953,103.901815 Z M51.539953,2.8803856 C24.1567431,2.8803856 1.8765663,25.1582082 1.8765663,52.5440283 C1.8765663,79.9213265 24.1550387,102.197445 51.539953,102.197445 C78.9248674,102.197445 101.205044,79.9230308 101.205044,52.5440283 C101.205044,25.1599126 78.9265718,2.8803856 51.539953,2.8803856 L51.539953,2.8803856 Z M51.539953,100.24935 C25.232232,100.24935 3.82983149,78.8475733 3.82983149,52.5440283 C3.82983149,26.2370746 25.2339365,4.83700257 51.539953,4.83700257 C77.8493785,4.83700257 99.2534834,26.2387789 99.2534834,52.5440283 C99.2534834,78.8492776 77.8493785,100.24935 51.539953,100.24935 L51.539953,100.24935 Z M51.539953,6.54137275 C26.1713674,6.54137275 5.53425138,27.1778869 5.53425138,52.5440283 C5.53425138,77.9101697 26.1713674,98.5449794 51.539953,98.5449794 C76.9102431,98.5449794 97.5490635,77.9101697 97.5490635,52.5440283 C97.5490635,27.1778869 76.9102431,6.54137275 51.539953,6.54137275 L51.539953,6.54137275 Z M45.8369641,71.3943625 L26.7525746,52.2781465 L35.7161188,43.3216812 L45.8369641,53.4422314 L66.9376823,32.3523548 L75.8927044,41.3088201 L45.8369641,71.3943625 L45.8369641,71.3943625 Z M29.1609199,52.2781465 L45.8352597,68.9809743 L73.4809503,41.3105244 L66.9359779,34.7640386 L45.8352597,55.8539152 L35.7144144,45.733365 L29.1609199,52.2781465 L29.1609199,52.2781465 Z" id="Shape" stroke="#FFFFFF" stroke-width="2"></path>
                    </g>
                    <path d="M73.04,653.941738 C58.2660884,653.941738 45.9925608,642.505414 45.0977403,627.905779 L45.0892182,627.593879 L44.9716133,286.259663 C44.8642348,286.246028 44.7381077,286.234098 44.593232,286.22728 C44.126221,286.690869 43.4257044,287.940172 43.3455967,289.09744 L43.3149171,289.56955 L43.1410663,415.725326 C43.1410663,426.829298 34.6496464,434.292735 22.0113729,434.292735 C10.3599586,434.292735 0.881679558,424.813028 0.881679558,413.163658 C0.862930939,406.969977 0.406146409,261.108272 0.406146409,259.540252 C0.406146409,236.495463 18.4508398,217.996229 41.4860746,217.421856 L162.963489,217.500257 C185.020387,218.955789 202.299796,237.562398 202.299796,259.860674 C202.299796,261.853082 201.681091,407.619342 201.65382,413.824954 C201.65382,425.603856 191.977829,435.572717 180.524127,435.572717 C168.477287,435.572717 159.394434,427.038936 159.394434,415.721918 L159.21547,289.54228 L159.179677,289.508193 C159.097865,288.342404 158.388826,287.03856 157.921815,287.03856 L157.551956,287.03856 L157.236638,627.627967 L157.226412,627.57854 C156.323069,642.328159 144.049541,653.781527 129.284152,653.781527 C114.518762,653.781527 102.245235,642.178175 101.341892,627.433668 L101.33337,627.116656 L101.099865,577.170087 C101.057254,596.219833 101.018052,613.735645 100.989077,627.210396 L100.978851,627.508661 C100.075508,642.333272 87.8019807,653.941738 73.04,653.941738 L73.04,653.941738 Z M55.317442,627.426851 C55.9531906,636.572501 63.7100055,643.717221 73.0417044,643.717221 C82.3614724,643.717221 90.1199917,636.396951 90.7659669,627.02462 C90.7796022,620.737198 91.2057072,429.970452 91.2057072,429.551177 C91.2057072,419.267008 98.9659309,418.459136 101.343597,418.455728 C104.762663,418.455728 106.884666,420.006704 108.064124,421.308843 C110.712793,424.228429 110.724724,428.203021 110.641207,429.549473 L111.563298,626.893383 C112.202456,636.189018 119.96268,643.453044 129.287561,643.453044 C138.610738,643.453044 146.367552,636.190722 147.011823,626.893383 L147.328845,284.301342 L147.340776,284.536545 C147.908348,276.404995 155.37882,276.814044 158.191113,276.814044 L158.361555,276.814044 C162.8135,276.814044 166.435392,279.435365 168.216511,283.631524 L169.389152,283.631524 L169.441989,288.737817 L169.617544,415.713396 C169.617544,422.33317 175.269401,425.344792 180.520718,425.344792 C186.329381,425.344792 191.423892,419.95046 191.423892,413.802797 C191.43071,412.262046 192.069867,261.830925 192.069867,259.860674 C192.069867,242.985704 179.071961,228.895676 162.44705,227.716252 L41.6070884,227.648077 C24.2935912,228.080987 10.6292569,242.092614 10.6292569,259.541956 C10.6292569,261.092933 11.0996768,411.628021 11.1047901,413.148319 C11.1047901,419.176676 15.9964751,424.068219 22.0079641,424.068219 C24.5662983,424.068219 32.9111381,423.464871 32.9111381,415.721918 L33.0918066,283.633229 L34.307058,283.633229 C36.0881768,279.437069 39.7100691,275.995946 44.1620138,275.995946 C51.8131547,275.995946 54.8725884,280.74773 55.1827928,285.194432 L55.1947238,285.548941 L55.317442,627.426851 L55.317442,627.426851 Z" id="Shape"></path>
                    <path d="M104.575177,208.180761 C78.9713812,208.180761 58.1399613,187.349949 58.1399613,161.7469 C58.1399613,136.143851 78.9713812,115.313039 104.575177,115.313039 C130.178972,115.313039 151.010392,136.143851 151.010392,161.7469 C151.010392,187.349949 130.180677,208.180761 104.575177,208.180761 L104.575177,208.180761 Z M104.575177,125.53926 C84.6096022,125.53926 68.3664807,141.781907 68.3664807,161.7469 C68.3664807,181.711892 84.6096022,197.95454 104.575177,197.95454 C124.540751,197.95454 140.783873,181.711892 140.783873,161.7469 C140.783873,141.781907 124.540751,125.53926 104.575177,125.53926 L104.575177,125.53926 Z" id="Shape"></path>
                </g>
            </g>
        </g>
    </g>
</svg>