<?xml version="1.0" encoding="UTF-8" standalone="no"?>
<svg width="286px" height="286px" viewBox="0 0 286 286" version="1.1" xmlns="http://www.w3.org/2000/svg" xmlns:xlink="http://www.w3.org/1999/xlink" xmlns:sketch="http://www.bohemiancoding.com/sketch/ns">
    <!-- Generator: Sketch 3.3.1 (12005) - http://www.bohemiancoding.com/sketch -->
    <title>Box Slice</title>
    <desc>Created with Sketch.</desc>
    <defs></defs>
    <g id="Page-1" stroke="none" stroke-width="1" fill="none" fill-rule="evenodd" sketch:type="MSPage">
        <g id="HCP" sketch:type="MSLayerGroup" transform="translate(52.946850, 39.500000)" fill="#FFFFFF">
            <path d="M60.0772677,119.832626 L56.8320945,119.832626 L56.8320945,206.370035 L60.0772677,206.370035 L60.0772677,173.857996 L60.3323504,174.074776 L67.234252,161.286413 L60.0748228,161.286413 L60.0748228,119.832626 L60.0772677,119.832626 L60.0772677,119.832626 Z M63.5710039,163.474583 L60.0772677,169.938035 L60.0772677,163.474583 L63.5710039,163.474583 L63.5710039,163.474583 Z" id="Shape" sketch:type="MSShapeGroup"></path>
            <path d="M123.078614,163.185272 L123.078614,119.832626 L119.830996,119.832626 L119.830996,167.019661 L123.078614,163.185272 Z" id="Shape" sketch:type="MSShapeGroup"></path>
            <path d="M43.6892244,120.407173 C33.6179409,124.100575 27.302811,126.445217 17.2755354,129.502134 C11.8438228,131.157319 5.28827953,134.100957 2.86377165,142.181291 C0.767692913,149.180173 0.356137795,202.696193 0.312129921,206.718024 L5.84815748,206.770996 C6.00870472,191.315268 6.75602362,148.505386 8.17324016,143.772909 C9.50488583,139.31752 12.6107008,136.722685 18.8940472,134.799378 C29.0500866,131.703343 24.6810827,132.951862 34.8151181,129.242161 L43.6892244,120.407173 L43.6892244,120.407173 Z" id="Shape" sketch:type="MSShapeGroup"></path>
            <path d="M171.445713,143.772909 C172.860484,148.505386 173.605358,191.315268 173.758571,206.770996 L179.294598,206.719654 C179.257925,202.701083 178.839035,149.182618 176.752736,142.183736 C174.330673,134.103402 167.774315,131.160579 162.331193,129.504579 C153.214228,126.712524 148.798772,125.086677 140.491878,122.035465 C138.90189,119.817957 137.04215,117.760996 134.872724,115.961563 C134.430201,115.596461 133.467732,115.40902 133.00565,115.058587 L135.206858,119.174953 C141.039531,124.261122 142.82348,130.729465 142.838965,138.154571 C142.82348,139.503331 142.715091,140.837421 142.481197,142.137283 L140.241685,142.137283 C140.263689,142.21715 140.292213,142.30761 140.319921,142.385031 L138.941823,142.385031 C136.964728,142.402146 135.538547,144.049996 135.538547,145.888547 L135.538547,151.701661 C135.538547,151.918441 135.562996,152.127886 135.589075,152.332441 C135.482315,152.419642 135.352736,152.480764 135.243531,152.580189 L135.265535,152.589969 L113.722866,177.71602 L113.379768,178.283232 C113.326795,178.436445 112.742469,179.901744 112.730244,182.05161 C112.577031,186.148417 115.442433,192.578457 126.100488,194.881535 C126.521823,194.979331 126.933378,194.905984 127.30989,194.750327 C127.30989,194.78211 127.30011,194.813894 127.30011,194.848122 C127.482661,196.138205 128.13463,196.244965 128.607307,196.654075 C130.189146,197.642622 132.872811,198.545598 132.925783,198.570047 L133.001575,198.604276 L133.043138,198.609165 C133.19635,198.632799 133.354453,198.658063 133.541894,198.658063 C134.912657,198.633614 135.930543,197.57661 136.168512,196.286528 L136.805811,193.02913 C136.840039,192.836799 136.871823,192.627354 136.871823,192.422799 C136.871823,191.234587 136.156287,190.008071 134.814862,189.713055 L134.707287,189.693496 L134.641276,189.693496 C134.619272,189.693496 133.876843,189.654378 132.934748,189.654378 C132.121417,189.654378 131.167098,189.676382 130.336654,189.786402 C129.915319,189.846709 129.537992,189.915165 129.138661,190.058598 C128.790673,190.214256 128.206346,190.399252 127.960228,191.297339 L127.93578,191.414693 C127.687217,191.17102 127.383236,190.966465 127.018134,190.886598 C117.628157,188.517508 116.998193,184.591028 116.824606,182.05161 C116.824606,181.358079 116.936256,180.766417 117.034051,180.347528 C117.06339,180.232618 117.084579,180.135638 117.094358,180.058217 L138.351791,155.255705 C138.392539,155.221476 138.392539,155.182358 138.417803,155.148945 C138.58813,155.175839 138.760902,155.201917 138.931228,155.201917 L145.435429,155.201917 C145.61798,155.201917 145.793197,155.172579 145.965969,155.148945 C145.995307,155.183173 145.995307,155.222291 146.029535,155.255705 L167.296748,180.075331 C167.318752,180.142972 167.340756,180.238323 167.35787,180.347528 C167.470335,180.766417 167.552646,181.358079 167.552646,182.05161 C167.392098,184.591028 166.778433,188.517508 157.377047,190.886598 C157.160268,190.935496 156.963047,191.044701 156.790276,191.15472 C156.519709,190.426146 156.011173,190.197957 155.702303,190.059413 C154.598846,189.677197 153.155551,189.677197 151.911921,189.655193 C150.960862,189.655193 150.227398,189.694311 150.202949,189.694311 L150.117378,189.694311 L150.020398,189.71387 C148.686307,190.008071 147.963437,191.235402 147.975661,192.423614 C147.975661,192.60861 147.987886,192.813165 148.029449,193.01935 L148.678972,196.298752 C148.92998,197.574165 149.922602,198.633614 151.306406,198.658063 C151.491402,198.658063 151.651134,198.633614 151.785602,198.60672 L151.877693,198.589606 L151.921701,198.572492 C151.948594,198.560268 153.167776,198.134043 154.422,197.588835 C155.050335,197.306043 155.699858,196.992283 156.236102,196.655705 C156.712854,196.247409 157.331409,196.12272 157.52374,194.905984 C157.784528,194.935323 158.046945,194.935323 158.302843,194.881535 C168.946228,192.580902 171.81652,186.149232 171.663307,182.05161 C171.643748,179.89278 171.066756,178.431555 171.010524,178.283232 L170.66498,177.71602 L149.13535,152.589969 C149.031035,152.480764 148.897382,152.414752 148.780028,152.324291 C148.814256,152.119736 148.843594,151.915996 148.843594,151.703291 L148.843594,145.885287 C148.843594,144.057331 147.426378,142.430669 145.469657,142.384217 C145.696217,140.999598 145.82498,139.584827 145.82498,138.151311 C145.82498,135.096024 145.272437,132.167055 144.308339,129.38478 C153.091984,132.603059 150.945378,131.821512 160.689862,134.798563 C166.996028,136.7235 170.101843,139.318335 171.445713,143.772909 L171.445713,143.772909 Z M130.235598,192.235358 C130.790587,192.128598 132.019547,192.043028 132.942898,192.050362 C133.581012,192.050362 134.118886,192.076441 134.367449,192.083776 C134.413902,192.118004 134.469319,192.20276 134.479098,192.420354 C134.479098,192.454583 134.469319,192.497776 134.447315,192.563787 L133.814906,195.840744 C133.761118,196.121091 133.603016,196.220516 133.559823,196.244965 C133.21428,196.121091 132.294189,195.784512 131.405067,195.382736 C130.835409,195.127654 130.258417,194.847307 129.903094,194.620748 C129.868866,194.598744 129.827303,194.567776 129.781665,194.548217 L130.235598,192.235358 L130.235598,192.235358 Z M153.031677,195.570992 C152.284358,195.872528 151.592457,196.133315 151.303146,196.240075 C151.237134,196.200957 151.105925,196.108866 151.043173,195.826075 L150.414839,192.559713 C150.405874,192.527929 150.396094,192.466807 150.396094,192.41628 C150.405874,192.187276 150.458846,192.113929 150.500409,192.079701 C150.760382,192.072366 151.294181,192.045472 151.92985,192.045472 C152.691839,192.045472 153.572811,192.079701 154.203591,192.164457 C154.376362,192.186461 154.51572,192.218244 154.624925,192.237803 L155.080488,194.535992 C154.674638,194.811449 153.798555,195.256417 153.031677,195.570992 L153.031677,195.570992 Z M156.113858,194.845677 L156.104894,194.845677 L156.350197,194.79189 L156.113858,194.845677 L156.113858,194.845677 Z M144.767161,146.489988 L144.767161,151.105925 L139.641874,151.105925 L139.641874,146.489988 L144.767161,146.489988 L144.767161,146.489988 Z" id="Shape" sketch:type="MSShapeGroup"></path>
            <path d="M38.5134094,154.536094 C38.5134094,156.094299 39.7823031,157.355043 41.3299134,157.355043 C42.890563,157.355043 44.153752,156.091039 44.153752,154.536094 C44.153752,152.973 42.8873031,151.717146 41.3299134,151.717146 C39.7814882,151.717146 38.5134094,152.973 38.5134094,154.536094 L38.5134094,154.536094 Z" id="Shape" sketch:type="MSShapeGroup"></path>
            <path d="M49.0638898,123.182929 C49.4852244,122.832496 49.5194528,122.216386 49.9725709,121.875732 L52.2780945,118.267902 C51.1746378,119.005441 49.4004685,119.646 48.3948071,120.478075 C41.6779016,126.070335 37.4278819,133.93063 37.4278819,142.661303 C37.4278819,143.267634 37.4596654,143.851146 37.5004134,144.433843 C33.1525984,145.820906 29.9832165,149.854961 29.9832165,154.673008 C29.9832165,160.605921 34.7980039,165.435378 40.7455866,165.435378 C46.6980591,165.435378 51.5104016,160.605921 51.5104016,154.673008 C51.5104016,149.497193 47.8732323,145.193386 43.0062874,144.156756 C43.0282913,144.083409 43.0380709,144.012508 43.0380709,143.947311 L40.4717598,143.947311 C40.4546457,143.525976 40.4310118,143.093232 40.4310118,142.664563 C40.4318268,135.021047 42.9199016,128.312291 49.0638898,123.182929 L49.0638898,123.182929 Z M41.088685,148.154953 C41.0813504,148.1085 41.0813504,148.057972 41.0593465,148.00663 C44.5848661,148.1085 47.4062598,150.988571 47.4062598,154.536094 C47.4062598,158.143925 44.4748465,161.072894 40.8743504,161.072894 C37.2616299,161.072894 34.3399961,158.14637 34.3399961,154.536094 C34.3399961,151.41235 36.5240906,148.797957 39.4571339,148.154953 L41.088685,148.154953 L41.088685,148.154953 Z" id="Shape" sketch:type="MSShapeGroup"></path>
            <path d="M116.510031,94.3585866 L116.546705,94.329248 C119.207551,91.184315 121.953154,87.9309921 124.570807,83.8439646 C126.432992,80.937 126.930118,77.5655079 127.372642,74.5395591 C127.569862,73.2828898 127.762193,71.9805827 128.044984,70.7777008 L128.802083,67.730563 C130.252713,61.9288583 131.623476,56.4441732 131.623476,50.0687362 C131.623476,22.7814094 114.100193,0.576992126 92.5607835,0.576992126 C71.0140394,0.576992126 53.4899409,22.7814094 53.4899409,50.0687362 C53.4899409,55.787315 54.2470394,61.3860945 55.7490118,66.7004528 C56.3113346,68.7402992 56.5598976,70.9023898 56.822315,73.1687953 C57.2632087,76.9542874 57.7497402,81.2417953 60.2516693,85.1707205 C61.7006693,87.4395709 63.2906575,89.6994567 65.1210591,92.0701772 L65.5106102,92.528185 L65.7371693,92.8028268 L65.6157402,117.176669 C65.6157402,130.468677 76.4367874,141.288909 89.7312402,141.288909 L92.7376299,141.288909 C106.032083,141.288909 116.845795,130.467862 116.845795,117.176669 L116.510031,94.3585866 L116.510031,94.3585866 Z M92.736,137.358354 L89.7296102,137.358354 C78.5964331,137.358354 69.5430354,128.304957 69.5430354,117.174224 L69.6750591,97.5499724 L70.5413622,98.5214055 C73.4898898,101.892898 77.5475787,106.503945 83.0787165,106.503945 L99.4251969,106.503945 C100.766622,106.503945 102.05263,106.214634 103.303594,105.77374 C103.350047,105.752551 103.379386,105.744402 103.425024,105.727287 C103.80235,105.591189 104.174787,105.433087 104.53989,105.26928 C104.936776,105.086728 105.337736,104.894398 105.728102,104.684953 C105.835677,104.626276 105.944882,104.563524 106.054087,104.507291 C108.56172,103.08274 110.791453,101.086902 112.500425,99.2369409 L112.92176,117.174224 C112.919315,128.306587 103.865917,137.358354 92.736,137.358354 L92.736,137.358354 Z M113.101866,92.3187402 L112.722094,92.7743031 C112.033453,93.5794843 111.341551,94.4050394 110.63824,95.262378 C109.60161,96.5255669 106.623744,99.8636457 103.220469,101.555504 C103.096594,101.621516 102.976795,101.684268 102.848031,101.736425 C102.643476,101.838295 102.414472,101.894528 102.198508,101.976839 C101.368063,102.271039 100.511539,102.470705 99.6590906,102.470705 L83.3142402,102.470705 C79.550752,102.470705 76.3153583,98.7854528 73.5762756,95.6739331 L73.133752,95.1670276 L72.6056575,94.5729213 C71.5323543,93.3969331 70.5169134,92.1044055 69.2537244,90.521752 L65.7673228,86.1152598 L65.7673228,86.3320394 C64.9865906,85.2269528 64.2539409,84.146315 63.5612244,83.0526378 C61.5482717,79.8930354 61.1513858,76.4090787 60.7056024,72.5429055 C60.4456299,70.2960591 60.1872874,67.978311 59.5279843,65.6434488 C58.1327717,60.6697441 57.4172362,55.4213976 57.4172362,50.0654764 C57.4172362,24.9394252 73.1802047,4.50265748 92.5632283,4.50265748 C111.938917,4.50265748 127.701886,24.9402402 127.701886,50.0654764 C127.701886,55.9592717 126.392244,61.2125079 124.999476,66.7632047 L124.233413,69.8551654 C123.916394,71.1794764 123.699614,72.5869134 123.48365,74.0155394 C123.072909,76.8516024 122.670319,79.529563 121.268587,81.7332165 C118.800071,85.5912402 116.127,88.7443228 113.522386,91.8338386 L113.101866,92.3187402 L113.101866,92.3187402 Z" id="Shape" sketch:type="MSShapeGroup"></path>
        </g>
    </g>
</svg>