<?xml version="1.0" encoding="UTF-8" standalone="no"?>
<svg width="217px" height="217px" viewBox="0 0 217 217" version="1.1" xmlns="http://www.w3.org/2000/svg" xmlns:xlink="http://www.w3.org/1999/xlink" xmlns:sketch="http://www.bohemiancoding.com/sketch/ns">
    <!-- Generator: Sketch 3.4.4 (17249) - http://www.bohemiancoding.com/sketch -->
    <title>Shape</title>
    <desc>Created with Sketch.</desc>
    <defs></defs>
    <g id="Page-1" stroke="none" stroke-width="1" fill="none" fill-rule="evenodd" sketch:type="MSPage">
        <g id="HCP-hero_2_black" sketch:type="MSLayerGroup" transform="translate(-739.000000, -279.000000)">
            <g id="Holding_shapes_copy" transform="translate(252.000000, 282.000000)" fill="#FFFFFF" sketch:type="MSShapeGroup">
                <path d="M700.773,180.637 C700.773,196.967 687.537,210.204 671.206,210.204 L520.299,210.204 C503.967,210.204 490.731,196.967 490.731,180.637 L490.731,29.728 C490.731,13.398 503.967,0.16 520.299,0.16 L671.206,0.16 C687.537,0.16 700.773,13.398 700.773,29.728 L700.773,180.637 L700.773,180.637 Z" id="Shape"></path>
            </g>
            <g id="match" transform="translate(760.000000, 297.000000)" sketch:type="MSShapeGroup">
                <path d="M39.822,44.993 C39.822,51.768 34.329,57.261 27.551,57.261 C20.78,57.261 15.29,51.768 15.29,44.993 C15.29,38.218 20.782,32.725 27.551,32.725 C34.329,32.725 39.822,38.218 39.822,44.993 L39.822,44.993 Z" id="Shape" stroke="#000000" stroke-width="5"></path>
                <path d="M54.589,72.248 L54.589,114.063 C54.589,116.993 52.221,119.361 49.335,119.361 C46.408,119.361 44.08,116.993 44.08,114.063 L44.08,78.406 C44.08,77.933 43.69,77.546 43.22,77.546 C42.786,77.546 42.4,77.934 42.4,78.406 L42.4,174.527 L42.36,174.527 C42.36,178.4 39.214,181.546 35.382,181.546 C31.503,181.546 28.361,178.4 28.361,174.527 C28.361,174.355 28.361,174.224 28.404,174.051 L28.404,118.5 C28.404,118.068 28.018,117.682 27.588,117.682 C27.111,117.682 26.726,118.069 26.726,118.5 L26.726,174.527 C26.726,178.4 23.579,181.546 19.705,181.546 C15.829,181.546 12.687,178.4 12.687,174.527 C12.687,174.355 12.687,174.224 12.728,174.051 L12.728,117.683 L12.687,117.683 L12.687,78.406 C12.687,77.933 12.341,77.546 11.867,77.546 C11.391,77.546 11.047,77.934 11.047,78.406 L11.047,114.063 C11.047,116.993 8.681,119.361 5.795,119.361 C2.867,119.361 0.542,116.993 0.542,114.063 L0.542,72.248 C0.542,66.091 5.104,61.011 11.047,60.232 C11.564,60.145 12.123,60.105 12.688,60.105 L42.399,60.105 C42.96,60.105 43.517,60.145 44.081,60.232 C50.026,61.051 54.589,66.091 54.589,72.248 L54.589,72.248 Z" id="Shape" stroke="#000000" stroke-width="5"></path>
                <path d="M102.94,29.311 C102.27,28.641 87.056,13.425 87.056,13.425 L88.167,12.314 C88.167,12.314 103.391,27.538 104.053,28.199 L102.94,29.311 L102.94,29.311 Z" id="Shape" stroke="#000000" stroke-width="5"></path>
                <path d="M112.483,3.882 C108.096,-0.504 100.984,-0.504 96.598,3.882 L78.625,21.855 C74.238,26.242 74.238,33.354 78.625,37.741 C83.011,42.127 90.123,42.127 94.511,37.741 L112.483,19.768 C116.869,15.382 116.869,8.27 112.483,3.882 L112.483,3.882 Z M111.372,18.657 L93.398,36.629 C89.626,40.401 83.509,40.401 79.736,36.629 C75.965,32.857 75.965,26.74 79.736,22.967 L97.71,4.995 C101.482,1.223 107.599,1.223 111.372,4.995 C115.145,8.767 115.145,14.884 111.372,18.657 L111.372,18.657 Z" id="Shape" stroke="#000000" stroke-width="5"></path>
                <path d="M155.444,29.311 C154.774,28.641 139.56,13.425 139.56,13.425 L140.671,12.314 C140.671,12.314 155.895,27.538 156.557,28.199 L155.444,29.311 L155.444,29.311 Z" id="Shape" stroke="#000000" stroke-width="5"></path>
                <path d="M164.987,3.882 C160.6,-0.504 153.488,-0.504 149.101,3.882 L131.129,21.855 C126.742,26.242 126.742,33.354 131.129,37.741 C135.515,42.127 142.627,42.127 147.015,37.741 L164.987,19.768 C169.373,15.382 169.373,8.27 164.987,3.882 L164.987,3.882 Z M163.876,18.657 L145.902,36.629 C142.13,40.401 136.013,40.401 132.24,36.629 C128.469,32.857 128.469,26.74 132.24,22.967 L150.214,4.995 C153.986,1.223 160.103,1.223 163.876,4.995 C167.648,8.767 167.648,14.884 163.876,18.657 L163.876,18.657 Z" id="Shape" stroke="#000000" stroke-width="5"></path>
                <path d="M31.423,98.924 C30.698,99.246 29.408,99.811 28.564,100.133 C30.457,101.099 32.23,102.067 33.438,103.235 L31.021,103.235 C30.658,102.389 29.812,101.785 28.845,101.785 C27.878,101.785 27.033,102.389 26.67,103.235 L21.755,103.235 C23.044,101.946 25.018,100.898 27.112,99.891 C27.354,99.77 27.595,99.649 27.838,99.529 C28.966,98.965 30.134,98.401 31.222,97.796 C33.479,96.503 35.8,94.761 36.661,92.605 C36.661,92.605 36.523,92.376 36.215,91.544 C36.095,91.222 36.07,90.413 36.074,90.344 C36.142,89.152 36.493,87.916 36.493,87.916 C35.114,84.845 31.161,82.829 27.838,81.199 C25.3,79.95 22.842,78.741 21.432,77.13 L27.395,77.13 C27.758,77.976 28.604,78.54 29.571,78.54 C30.538,78.54 31.383,77.976 31.746,77.13 L33.761,77.13 C32.754,78.258 31.223,79.225 29.289,80.232 C29.007,80.393 28.725,80.514 28.442,80.675 C28.845,80.836 29.329,81.078 29.812,81.238 C30.416,81.52 31.021,81.762 31.303,81.883 C34.525,80.111 37.345,77.895 37.345,74.189 L34.928,74.189 C34.928,74.672 34.847,75.115 34.727,75.518 L31.867,75.518 C31.585,74.511 30.658,73.826 29.571,73.826 C28.483,73.826 27.596,74.511 27.274,75.518 L20.466,75.518 C20.304,75.115 20.224,74.632 20.224,74.189 L17.807,74.189 C17.847,78.982 22.601,81.319 26.79,83.374 C28.281,84.099 29.771,84.824 31.02,85.63 L24.171,85.63 C24.897,85.147 25.702,84.743 26.548,84.3 L24.131,82.849 C21.849,84.123 19.574,85.872 18.653,88.022 C18.653,88.022 19.029,89.234 19.029,90.181 C19.029,91.035 18.509,92.177 18.509,92.177 C19.375,94.448 21.757,96.596 24.09,97.915 L26.506,96.466 C25.58,95.982 24.694,95.498 23.929,94.975 L31.22,94.975 C30.253,95.621 29.166,96.184 28.037,96.747 C27.635,96.948 27.191,97.15 26.748,97.392 C25.781,97.876 24.773,98.359 23.808,98.882 C22.197,99.769 20.705,100.776 19.578,101.985 C18.491,103.234 17.766,104.724 17.766,106.538 L20.183,106.538 C20.183,105.934 20.303,105.369 20.545,104.846 L20.666,104.846 L26.467,104.846 C26.749,105.813 27.676,106.538 28.723,106.538 C29.771,106.538 30.698,105.812 30.979,104.846 L34.444,104.846 C34.686,105.369 34.806,105.934 34.806,106.538 L37.224,106.538 C37.345,102.872 34.565,100.656 31.423,98.924 L31.423,98.924 Z M29.207,75.518 C29.328,75.437 29.449,75.437 29.57,75.437 C29.691,75.437 29.851,75.477 29.932,75.518 C30.173,75.639 30.335,75.88 30.335,76.163 C30.335,76.566 30.012,76.928 29.569,76.928 C29.167,76.928 28.803,76.606 28.803,76.163 C28.805,75.88 28.966,75.639 29.207,75.518 L29.207,75.518 Z M22.158,87.201 L32.833,87.201 L32.994,87.201 C33.639,87.886 34.122,88.651 34.283,89.537 L27.354,89.537 C27.032,88.611 26.145,87.966 25.138,87.966 C24.131,87.966 23.244,88.611 22.922,89.537 L20.907,89.537 C21.07,88.691 21.513,87.926 22.158,87.201 L22.158,87.201 Z M25.904,90.344 C25.904,90.746 25.541,91.109 25.138,91.109 C24.735,91.109 24.372,90.787 24.372,90.344 C24.372,89.94 24.694,89.578 25.138,89.578 C25.541,89.617 25.904,89.939 25.904,90.344 L25.904,90.344 Z M22.037,93.364 C21.473,92.719 21.07,91.994 20.908,91.189 L22.923,91.189 C23.245,92.115 24.132,92.759 25.139,92.759 C26.146,92.759 27.033,92.114 27.355,91.189 L34.284,91.189 C34.123,91.994 33.72,92.719 33.156,93.364 L22.037,93.364 L22.037,93.364 Z M29.127,104.846 C29.046,104.886 28.926,104.926 28.805,104.926 C28.684,104.926 28.564,104.886 28.483,104.846 C28.241,104.725 28.04,104.483 28.04,104.16 C28.04,103.758 28.362,103.395 28.806,103.395 C29.208,103.395 29.572,103.717 29.572,104.16 C29.57,104.482 29.369,104.725 29.127,104.846 L29.127,104.846 Z" id="Shape" fill="#000000"></path>
                <path d="M148.057,90.192 C140.39,90.192 134.154,83.955 134.154,76.288 C134.154,68.621 140.39,62.383 148.057,62.383 C155.725,62.383 161.963,68.621 161.963,76.288 C161.963,83.955 155.725,90.192 148.057,90.192 L148.057,90.192 Z M148.057,63.39 C140.947,63.39 135.161,69.176 135.161,76.288 C135.161,83.4 140.946,89.186 148.057,89.186 C155.169,89.186 160.957,83.399 160.957,76.288 C160.957,69.177 155.169,63.39 148.057,63.39 L148.057,63.39 Z M153.152,73.381 L151.017,71.246 L148.144,74.165 L145.271,71.246 L143.136,73.381 L146.048,76.295 L143.138,79.253 L145.211,81.329 L148.144,78.394 L151.078,81.329 L153.152,79.253 L150.24,76.295 L153.152,73.381 L153.152,73.381 Z" id="Shape" stroke="#000000" stroke-width="3"></path>
                <path d="M93.983,81.146 L89.061,76.217 L91.197,74.082 L93.983,76.869 L99.79,71.063 L101.924,73.197 L93.983,81.146 L93.983,81.146 Z M109.459,76.288 C109.459,68.621 103.221,62.383 95.554,62.383 C87.886,62.383 81.649,68.621 81.649,76.288 C81.649,83.955 87.886,90.192 95.554,90.192 C103.221,90.192 109.459,83.956 109.459,76.288 L109.459,76.288 Z M108.453,76.288 C108.453,83.4 102.666,89.186 95.554,89.186 C88.443,89.186 82.656,83.399 82.656,76.288 C82.656,69.177 88.443,63.39 95.554,63.39 C102.666,63.39 108.453,69.176 108.453,76.288 L108.453,76.288 Z" id="Shape" stroke="#000000" stroke-width="3"></path>
                <path d="M148.057,135.346 C140.39,135.346 134.154,129.108 134.154,121.442 C134.154,113.775 140.39,107.537 148.057,107.537 C155.725,107.537 161.963,113.775 161.963,121.442 C161.963,129.107 155.725,135.346 148.057,135.346 L148.057,135.346 Z M148.057,108.543 C140.947,108.543 135.161,114.329 135.161,121.441 C135.161,128.553 140.946,134.338 148.057,134.338 C155.169,134.338 160.957,128.553 160.957,121.441 C160.957,114.329 155.169,108.543 148.057,108.543 L148.057,108.543 Z M153.152,118.534 L151.017,116.398 L148.144,119.318 L145.271,116.398 L143.136,118.534 L146.048,121.448 L143.138,124.407 L145.211,126.481 L148.144,123.547 L151.078,126.481 L153.152,124.407 L150.24,121.448 L153.152,118.534 L153.152,118.534 Z" id="Shape" stroke="#000000" stroke-width="3"></path>
                <path d="M148.057,182.452 C140.39,182.452 134.154,176.214 134.154,168.548 C134.154,160.881 140.39,154.643 148.057,154.643 C155.725,154.643 161.963,160.881 161.963,168.548 C161.963,176.214 155.725,182.452 148.057,182.452 L148.057,182.452 Z M148.057,155.649 C140.947,155.649 135.161,161.435 135.161,168.547 C135.161,175.659 140.946,181.444 148.057,181.444 C155.169,181.444 160.957,175.659 160.957,168.547 C160.957,161.435 155.169,155.649 148.057,155.649 L148.057,155.649 Z M153.152,165.641 L151.017,163.505 L148.144,166.425 L145.271,163.505 L143.136,165.641 L146.048,168.555 L143.138,171.514 L145.211,173.588 L148.144,170.654 L151.078,173.588 L153.152,171.514 L150.24,168.555 L153.152,165.641 L153.152,165.641 Z" id="Shape" stroke="#000000" stroke-width="3"></path>
                <path d="M93.983,126.298 L89.061,121.369 L91.197,119.235 L93.983,122.021 L99.79,116.213 L101.924,118.349 L93.983,126.298 L93.983,126.298 Z M109.459,121.441 C109.459,113.773 103.221,107.536 95.554,107.536 C87.886,107.536 81.649,113.774 81.649,121.441 C81.649,129.107 87.886,135.345 95.554,135.345 C103.221,135.346 109.459,129.108 109.459,121.441 L109.459,121.441 Z M108.453,121.441 C108.453,128.553 102.666,134.338 95.554,134.338 C88.443,134.338 82.656,128.553 82.656,121.441 C82.656,114.329 88.443,108.543 95.554,108.543 C102.666,108.543 108.453,114.329 108.453,121.441 L108.453,121.441 Z" id="Shape" stroke="#000000" stroke-width="3"></path>
                <path d="M93.182,173.404 L88.26,168.475 L90.397,166.341 L93.182,169.127 L98.99,163.32 L101.124,165.455 L93.182,173.404 L93.182,173.404 Z M108.657,168.548 C108.657,160.881 102.42,154.643 94.752,154.643 C87.084,154.643 80.847,160.882 80.847,168.548 C80.847,176.214 87.084,182.452 94.752,182.452 C102.42,182.452 108.657,176.216 108.657,168.548 L108.657,168.548 Z M107.651,168.548 C107.651,175.66 101.864,181.446 94.752,181.446 C87.641,181.446 81.854,175.66 81.854,168.548 C81.854,161.436 87.641,155.651 94.752,155.651 C101.864,155.65 107.651,161.436 107.651,168.548 L107.651,168.548 Z" id="Shape" stroke="#000000" stroke-width="3"></path>
            </g>
        </g>
    </g>
</svg>