<?xml version="1.0" encoding="UTF-8" standalone="no"?>
<svg width="217px" height="217px" viewBox="0 0 217 217" version="1.1" xmlns="http://www.w3.org/2000/svg" xmlns:xlink="http://www.w3.org/1999/xlink" xmlns:sketch="http://www.bohemiancoding.com/sketch/ns">
    <!-- Generator: Sketch 3.4.4 (17249) - http://www.bohemiancoding.com/sketch -->
    <title>Shape</title>
    <desc>Created with Sketch.</desc>
    <defs></defs>
    <g id="Page-1" stroke="none" stroke-width="1" fill="none" fill-rule="evenodd" sketch:type="MSPage">
        <g id="HCP-hero_2_black" sketch:type="MSLayerGroup" transform="translate(-494.000000, -279.000000)">
            <g id="Holding_shapes_copy" transform="translate(252.000000, 282.000000)" fill="#FFFFFF" sketch:type="MSShapeGroup">
                <path d="M455.715,180.637 C455.715,196.967 442.477,210.204 426.148,210.204 L275.238,210.204 C258.909,210.204 245.671,196.967 245.671,180.637 L245.671,29.728 C245.671,13.398 258.909,0.16 275.238,0.16 L426.148,0.16 C442.477,0.16 455.715,13.398 455.715,29.728 L455.715,180.637 L455.715,180.637 Z" id="Shape"></path>
            </g>
            <g id="Analysis" transform="translate(549.000000, 293.000000)" fill="#000000" sketch:type="MSShapeGroup">
                <path d="M76.033,77.523 L31.35,77.523 L31.35,86.637 L34.762,86.637 L34.762,170.42 C34.762,180.859 43.254,189.349 53.69,189.349 C64.131,189.349 72.626,180.86 72.626,170.42 L72.626,86.637 L76.034,86.637 L76.034,77.523 L76.033,77.523 Z M67.064,170.421 C67.064,177.792 61.064,183.789 53.691,183.789 C46.32,183.789 40.322,177.792 40.322,170.421 L40.322,165.555 L49.512,165.555 L49.512,160.212 L40.322,160.212 L40.322,150.783 L49.512,150.783 L49.512,150.649 L49.512,145.438 L49.512,145.304 L40.322,145.304 L40.322,135.871 L49.512,135.871 L49.512,135.737 L49.512,130.526 L49.512,130.393 L40.322,130.393 L40.322,120.962 L49.512,120.962 L49.512,115.619 L40.322,115.619 L40.322,106.188 L49.512,106.188 L49.512,100.845 L40.322,100.845 L40.322,86.635 L67.064,86.635 L67.064,170.421 L67.064,170.421 Z" id="Shape"></path>
                <path d="M68.381,56.561 C68.381,51.59 66.008,47.296 62.392,44.472 L59.455,6.624 C59.228,3.799 57.309,1.314 54.483,0.749 C50.754,0.071 47.479,2.783 47.253,6.285 L44.202,44.473 C40.473,47.298 37.988,51.817 38.214,57.014 C38.441,64.923 44.993,71.476 52.902,71.701 C61.376,71.927 68.381,65.035 68.381,56.561 L68.381,56.561 Z M47.141,56.561 C47.141,53.171 49.852,50.46 53.242,50.46 C56.632,50.46 59.344,53.171 59.344,56.561 C59.344,59.95 56.632,62.662 53.242,62.662 C49.852,62.662 47.141,59.837 47.141,56.561 L47.141,56.561 Z M94.705,39.388 C93.801,37.129 94.818,34.643 97.078,33.739 C99.338,32.835 101.823,33.852 102.726,36.112 C102.952,36.677 103.066,37.242 103.066,37.807 C103.066,39.502 102.048,41.197 100.354,41.874 C98.208,42.664 95.609,41.535 94.705,39.388 L94.705,39.388 Z M73.803,7.075 C75.499,7.753 76.515,9.448 76.515,11.142 C76.515,11.707 76.403,12.272 76.176,12.837 C75.272,15.097 72.674,16.113 70.414,15.209 C68.154,14.306 67.138,11.707 68.042,9.447 C68.945,7.188 71.544,6.059 73.803,7.075 L73.803,7.075 Z M91.089,18.599 C91.993,19.503 92.332,20.52 92.332,21.649 C92.332,22.779 91.88,23.909 91.089,24.7 C89.395,26.395 86.569,26.395 84.876,24.7 C83.181,23.006 83.181,20.294 84.876,18.486 C86.684,16.904 89.395,16.904 91.089,18.599 L91.089,18.599 Z M105.551,53.397 C106.342,54.188 106.794,55.318 106.794,56.448 C106.794,57.577 106.342,58.707 105.551,59.498 C104.76,60.29 103.63,60.741 102.5,60.741 C101.37,60.741 100.241,60.29 99.45,59.498 C97.869,57.916 97.869,54.979 99.45,53.285 C100.241,52.493 101.37,52.041 102.5,52.041 C103.63,52.155 104.76,52.606 105.551,53.397 L105.551,53.397 Z M35.276,18.825 C35.276,18.825 34.485,19.277 33.017,20.068 C32.678,20.294 32.225,20.52 31.774,20.746 C31.323,20.972 30.757,21.311 30.419,21.537 C29.628,22.102 28.724,22.667 27.707,23.345 C27.595,23.459 27.481,23.571 27.368,23.571 C26.351,24.362 25.222,25.266 24.092,26.283 C23.979,26.396 23.865,26.396 23.865,26.509 C23.302,27.074 22.735,27.639 22.171,28.204 C21.832,28.543 21.494,28.882 21.154,29.221 C20.815,29.56 20.589,30.012 20.25,30.35 C17.652,33.288 15.279,37.129 13.358,41.536 C11.437,46.055 10.082,51.252 9.856,56.788 L9.856,56.788 C9.743,59.048 7.936,60.742 5.788,60.742 L4.659,60.742 C2.399,60.742 0.592,58.935 0.592,56.788 L0.592,56.562 C0.592,49.783 1.835,43.343 3.868,37.694 C5.902,32.045 8.613,27.187 11.664,23.345 C12.003,22.893 12.342,22.329 12.794,21.877 C13.133,21.425 13.585,20.973 13.924,20.521 C14.715,19.617 15.393,18.826 16.184,18.035 C17.653,16.566 19.121,15.324 20.364,14.194 C20.477,14.081 20.59,13.968 20.704,13.968 C22.172,12.951 23.415,11.934 24.545,11.143 C25.109,10.691 25.675,10.465 26.127,10.126 C26.578,9.899 27.03,9.561 27.369,9.448 C28.838,8.544 29.629,8.093 29.629,8.093 C29.742,8.093 29.856,7.98 29.968,7.98 C32.905,6.398 36.634,7.527 38.215,10.579 C39.457,13.628 38.327,17.243 35.276,18.825 L35.276,18.825 Z" id="Shape"></path>
            </g>
        </g>
    </g>
</svg>