<?xml version="1.0" encoding="UTF-8" standalone="no"?>
<svg width="460px" height="512px" viewBox="0 0 460 512" version="1.1" xmlns="http://www.w3.org/2000/svg" xmlns:xlink="http://www.w3.org/1999/xlink" xmlns:sketch="http://www.bohemiancoding.com/sketch/ns">
    <!-- Generator: Sketch 3.4.4 (17249) - http://www.bohemiancoding.com/sketch -->
    <title>noun_266804_cc</title>
    <desc>Created with Sketch.</desc>
    <defs></defs>
    <g id="Page-1" stroke="none" stroke-width="1" fill="none" fill-rule="evenodd" sketch:type="MSPage">
        <g id="noun_190521_cc" sketch:type="MSLayerGroup" transform="translate(39.000000, 0.000000)" fill="#145EA8">
            <path d="M369.321429,28.4444444 L300.928571,28.4444444 L300.928571,14.2222222 C300.928571,6.25777778 294.91,0 287.25,0 L95.75,0 C88.09,0 82.0714286,6.25777778 82.0714286,14.2222222 L82.0714286,28.4444444 L13.6785714,28.4444444 C6.01857143,28.4444444 0,34.7022222 0,42.6666667 L0,497.777778 C0,505.742222 6.01857143,512 13.6785714,512 L369.321429,512 C376.981429,512 383,505.742222 383,497.777778 L383,42.6666667 C383,34.7022222 376.981429,28.4444444 369.321429,28.4444444 L369.321429,28.4444444 Z M355.642857,483.555556 L27.3571429,483.555556 L27.3571429,56.8888889 L95.75,56.8888889 C103.41,56.8888889 109.428571,50.6311111 109.428571,42.6666667 L109.428571,28.4444444 L273.571429,28.4444444 L273.571429,42.6666667 C273.571429,50.6311111 279.59,56.8888889 287.25,56.8888889 L355.642857,56.8888889 L355.642857,483.555556 L355.642857,483.555556 Z" id="Shape" sketch:type="MSShapeGroup"></path>
            <path d="M191.5,135.395556 C229.252857,135.395556 259.892857,103.537778 259.892857,64.2844444 L259.892857,50.0622222 C259.892857,46.08 256.61,42.6666667 252.78,42.6666667 L130.22,42.6666667 C126.39,42.6666667 123.107143,46.08 123.107143,50.0622222 L123.107143,64.2844444 C123.107143,102.968889 153.747143,135.395556 191.5,135.395556 L191.5,135.395556 Z M136.785714,56.8888889 L246.214286,56.8888889 L246.214286,64.2844444 C246.214286,95.5733333 221.592857,121.173333 191.5,121.173333 C161.407143,121.173333 136.785714,95.5733333 136.785714,64.2844444 L136.785714,56.8888889 L136.785714,56.8888889 Z" id="Shape" sketch:type="MSShapeGroup"></path>
            <path d="M273.571429,92.7288889 C273.571429,96.7111111 276.854286,100.124444 280.684286,100.124444 L315.154286,100.124444 L315.154286,441.457778 L68.94,441.457778 L68.94,100.124444 L103.41,100.124444 C107.24,100.124444 110.522857,96.7111111 110.522857,92.7288889 C110.522857,88.7466667 106.145714,85.3333333 102.862857,85.3333333 L61.8271429,85.3333333 C57.9971429,85.3333333 54.7142857,88.7466667 54.7142857,92.7288889 L54.7142857,448.284444 C54.7142857,452.266667 57.9971429,455.68 61.8271429,455.68 L321.72,455.68 C325.55,455.68 328.832857,452.266667 328.832857,448.284444 L328.832857,92.7288889 C328.832857,88.7466667 325.55,85.3333333 321.72,85.3333333 L280.684286,85.3333333 C276.854286,85.3333333 273.571429,88.7466667 273.571429,92.7288889 L273.571429,92.7288889 Z" id="Shape" sketch:type="MSShapeGroup"></path>
            <path d="M154.294286,337.351111 C157.03,340.195556 160.312857,341.333333 164.142857,341.333333 C167.972857,341.333333 171.255714,340.195556 173.991429,337.351111 L256.062857,252.017778 C261.534286,246.328889 261.534286,237.226667 256.062857,232.106667 C250.591429,226.417778 241.837143,226.417778 236.912857,232.106667 L164.142857,307.2 L146.634286,288.995556 C141.162857,283.306667 132.408571,283.306667 127.484286,288.995556 C122.012857,294.684444 122.012857,303.786667 127.484286,308.906667 L154.294286,337.351111 L154.294286,337.351111 Z" id="Shape" sketch:type="MSShapeGroup"></path>
        </g>
    </g>
</svg>