<?xml version="1.0" encoding="UTF-8" standalone="no"?>
<svg width="211px" height="211px" viewBox="0 0 211 211" version="1.1" xmlns="http://www.w3.org/2000/svg" xmlns:xlink="http://www.w3.org/1999/xlink" xmlns:sketch="http://www.bohemiancoding.com/sketch/ns">
    <!-- Generator: Sketch 3.4.4 (17249) - http://www.bohemiancoding.com/sketch -->
    <title>Shape</title>
    <desc>Created with Sketch.</desc>
    <defs></defs>
    <g id="Page-1" stroke="none" stroke-width="1" fill="none" fill-rule="evenodd" sketch:type="MSPage">
        <g id="HCP-hero" sketch:type="MSLayerGroup" transform="translate(-490.000000, 0.000000)">
            <g id="Holding_shapes" fill="#FFFFFF" sketch:type="MSShapeGroup">
                <path d="M700.773,180.637 C700.773,196.967 687.537,210.204 671.206,210.204 L520.299,210.204 C503.967,210.204 490.731,196.967 490.731,180.637 L490.731,29.728 C490.731,13.398 503.967,0.16 520.299,0.16 L671.206,0.16 C687.537,0.16 700.773,13.398 700.773,29.728 L700.773,180.637 L700.773,180.637 Z" id="Shape"></path>
            </g>
            <g id="Right" transform="translate(553.000000, 7.000000)" stroke="#4D4D4D" sketch:type="MSShapeGroup">
                <circle id="Oval" stroke-width="4" cx="39.19" cy="16.919" r="16.684"></circle>
                <path d="M29.93,100.102 L29.93,58.317 C29.93,53.735 33.654,50.006 38.233,50.006 L77.903,50.006 L77.903,48.913 L77.903,48.318 C77.903,41.849 72.66,36.613 66.193,36.613 L50.022,36.613 L28.947,36.613 L12.042,36.613 C5.578,36.613 0.335,41.849 0.335,48.318 L0.335,48.913 L0.335,53.596 L0.335,105.933 C0.335,109.816 3.48,112.961 7.359,112.961 C11.237,112.961 14.385,109.817 14.385,105.933 L14.385,65.307 L17.238,65.307 L17.238,110.37 C17.238,111.116 17.315,111.837 17.445,112.535 C17.313,113.133 17.238,113.744 17.238,114.378 L17.238,188.524 C17.238,193.192 21.019,196.972 25.686,196.972 C30.349,196.972 34.132,193.192 34.132,188.524 L34.132,122.085 L44.839,122.085 L44.839,188.527 C44.839,193.195 48.621,196.975 53.283,196.975 C57.949,196.975 61.731,193.195 61.731,188.527 L61.731,114.381 C61.731,113.746 61.655,113.136 61.522,112.538 C61.655,111.837 61.731,111.118 61.731,110.372 L61.731,108.408 L38.232,108.408 C33.653,108.406 29.93,104.678 29.93,100.102 L29.93,100.102 Z" id="Shape" stroke-width="4"></path>
                <path d="M101.418,58.316 L101.418,100.098 C101.418,102.834 99.193,105.057 96.455,105.057 L38.232,105.057 C35.497,105.057 33.274,102.836 33.274,100.098 L33.274,58.316 C33.274,55.575 35.497,53.358 38.232,53.358 L96.455,53.358 C99.193,53.358 101.418,55.575 101.418,58.316 L101.418,58.316 Z" id="Shape" stroke-width="2"></path>
                <path d="M49.536,90.013 C49.536,89.942 49.522,89.876 49.499,89.815 L44.975,94.336 C44.1,95.209 42.94,95.692 41.704,95.692 C41.704,95.692 41.704,95.692 41.702,95.692 L41.702,96.092 C41.702,96.409 41.959,96.667 42.273,96.667 L48.961,96.667 C49.278,96.667 49.539,96.409 49.539,96.092 L49.539,90.012 L49.536,90.012 L49.536,90.013 Z" id="Shape" stroke-width="2"></path>
                <path d="M58.657,84.344 C58.657,84.335 58.652,84.326 58.652,84.318 L54.997,84.318 L50.819,88.494 L50.819,96.097 C50.819,96.414 51.075,96.672 51.394,96.672 L58.077,96.672 C58.392,96.672 58.657,96.414 58.657,96.097 L58.657,84.344 L58.657,84.344 Z" id="Shape" stroke-width="2"></path>
                <path d="M67.773,84.317 L59.935,84.317 L59.935,96.095 C59.935,96.412 60.193,96.67 60.512,96.67 L67.197,96.67 C67.513,96.67 67.773,96.412 67.773,96.095 L67.773,84.317 L67.773,84.317 Z" id="Shape" stroke-width="2"></path>
                <path d="M76.89,84.214 C76.577,84.28 76.259,84.316 75.937,84.316 L69.057,84.316 L69.057,96.093 C69.057,96.41 69.312,96.668 69.626,96.668 L76.317,96.668 C76.63,96.668 76.89,96.41 76.89,96.093 L76.89,84.214 L76.89,84.214 L76.89,84.214 Z" id="Shape" stroke-width="2"></path>
                <path d="M86.01,76.374 C86.01,76.309 85.995,76.249 85.978,76.191 L79.207,82.96 C78.897,83.271 78.544,83.535 78.173,83.738 L78.173,96.092 C78.173,96.409 78.431,96.667 78.747,96.667 L85.436,96.667 C85.752,96.667 86.01,96.409 86.01,96.092 L86.01,76.374 L86.01,76.374 Z" id="Shape" stroke-width="2"></path>
                <path d="M93.268,64.621 C93.268,63.034 91.984,61.748 90.398,61.748 L81.619,61.748 C80.029,61.748 78.747,63.034 78.747,64.621 C78.747,66.204 80.029,67.49 81.619,67.49 L83.466,67.49 L74.099,76.212 L52.43,76.212 C52.317,76.212 51.586,76.514 51.048,77.051 L39.673,88.428 C38.55,89.55 38.55,91.366 39.673,92.487 C40.232,93.049 40.968,93.327 41.703,93.327 C42.436,93.327 43.173,93.049 43.735,92.487 L54.266,81.953 L75.936,81.953 C76.699,81.953 77.429,81.649 77.966,81.113 L87.526,71.548 L87.526,73.399 C87.526,74.983 88.812,76.272 90.397,76.272 C91.983,76.272 93.267,74.983 93.267,73.399 L93.267,64.621 L93.268,64.621 L93.268,64.621 Z" id="Shape" stroke-width="2"></path>
            </g>
        </g>
    </g>
</svg>