<?xml version="1.0" encoding="UTF-8" standalone="no"?>
<svg width="460px" height="512px" viewBox="0 0 460 512" version="1.1" xmlns="http://www.w3.org/2000/svg" xmlns:xlink="http://www.w3.org/1999/xlink" xmlns:sketch="http://www.bohemiancoding.com/sketch/ns">
    <!-- Generator: Sketch 3.4.4 (17249) - http://www.bohemiancoding.com/sketch -->
    <title>noun_266804_cc</title>
    <desc>Created with Sketch.</desc>
    <defs></defs>
    <g id="Page-1" stroke="none" stroke-width="1" fill="none" fill-rule="evenodd" sketch:type="MSPage">
        <g id="noun_206192_cc" sketch:type="MSLayerGroup" transform="translate(-1.000000, 27.000000)" fill="#145EA8">
            <g id="Group" sketch:type="MSShapeGroup">
                <path d="M453.332967,126.204444 C438.578022,129.257778 416.7,133.837778 392.786813,136.891111 L325.117582,68.7 C328.17033,42.7466667 333.258242,18.8288889 336.310989,4.58 C336.81978,1.01777778 332.749451,-1.01777778 330.205495,1.52666667 L305.274725,26.4622222 C298.66044,33.0777778 294.081319,41.22 292.046154,49.8711111 C286.449451,72.7711111 279.326374,121.624444 292.554945,195.413333 C292.554945,195.413333 293.572527,206.1 293.572527,220.857778 L241.167033,167.424444 C256.430769,167.424444 266.606593,168.442222 266.606593,168.442222 C271.694505,169.46 276.782418,169.968889 281.87033,170.986667 C279.835165,156.737778 278.817582,143.506667 278.308791,131.802222 C237.605495,128.24 205.551648,136.891111 193.340659,140.962222 L193.340659,144.015556 C192.831868,145.542222 192.323077,148.086667 191.814286,151.14 C190.796703,156.228889 189.27033,162.844444 187.743956,171.495556 C198.937363,169.46 210.130769,168.442222 220.815385,167.933333 L294.081319,241.213333 C293.063736,264.113333 289.502198,290.575556 279.835165,308.895556 C279.326374,309.913333 280.852747,311.44 281.87033,310.422222 L314.941758,277.344444 C317.485714,274.8 319.520879,271.746667 320.538462,268.184444 C325.626374,253.426667 337.328571,209.662222 325.626374,156.228889 C321.047253,136.382222 321.047253,111.955556 323.082418,88.0377778 L373.961538,138.926667 C359.206593,139.944444 344.451648,140.453333 330.205495,139.944444 C330.714286,145.033333 331.731868,150.122222 332.749451,154.702222 C334.275824,162.335556 335.802198,169.46 336.310989,176.584444 C371.926374,177.602222 397.365934,173.531111 412.120879,169.968889 C421.279121,167.933333 428.910989,163.353333 435.525275,156.737778 L457.403297,134.855556 C460.964835,130.784444 457.912088,125.186667 453.332967,126.204444 L453.332967,126.204444 Z" id="Shape"></path>
                <path d="M238.114286,286.504444 L171.971429,220.348889 C175.532967,189.306667 182.147253,160.808889 185.2,147.577778 C185.708791,146.051111 183.673626,145.033333 182.656044,146.051111 L151.61978,177.093333 C146.023077,182.691111 142.461538,189.306667 140.426374,196.431111 C134.82967,217.804444 126.689011,267.675556 140.426374,344.517778 C140.426374,344.517778 141.443956,355.204444 141.443956,370.98 L87.5120879,317.037778 C102.775824,317.037778 113.969231,318.055556 113.969231,318.055556 C119.057143,319.073333 124.145055,319.582222 129.232967,320.6 C127.197802,306.351111 126.18022,293.12 125.671429,281.415556 C92.0912088,278.362222 64.1076923,283.96 48.843956,288.031111 C40.7032967,290.066667 33.5802198,294.646667 27.4747253,300.753333 L1.52637363,326.706667 C1.27675648e-14,328.233333 1.52637363,330.268889 3.56153846,329.76 C21.3692308,321.617778 45.7912088,318.564444 67.1604396,317.546667 L140.935165,391.335556 C139.917582,412.708889 136.864835,437.644444 128.215385,455.455556 C127.197802,456.982222 129.741758,458.508889 130.759341,457.491111 L160.269231,427.975556 C163.830769,424.413333 166.374725,420.342222 167.901099,415.762222 C172.989011,398.968889 183.673626,357.24 172.48022,306.351111 C167.901099,287.013333 167.901099,263.095556 169.936264,239.686667 L219.289011,289.048889 C205.042857,290.066667 190.796703,290.575556 177.568132,289.557778 C178.076923,294.646667 179.094505,299.735556 180.112088,304.315556 C181.638462,311.948889 183.164835,319.073333 183.673626,326.197778 C258.974725,326.197778 267.115385,314.493333 267.115385,314.493333 C274.238462,306.86 279.326374,294.137778 281.87033,279.888889 C269.150549,281.924444 253.886813,284.468889 238.114286,286.504444 L238.114286,286.504444 Z" id="Shape"></path>
                <path d="M186.726374,194.904444 L265.08022,273.273333 C266.606593,274.8 268.132967,275.308889 270.168132,275.308889 C272.203297,275.308889 273.72967,274.8 275.256044,273.273333 C278.308791,270.22 278.308791,265.64 275.256044,263.095556 L196.902198,184.726667 C193.849451,181.673333 189.27033,181.673333 186.726374,184.726667 C183.673626,187.271111 183.673626,191.851111 186.726374,194.904444 L186.726374,194.904444 Z" id="Shape"></path>
                <path d="M420.77033,124.168889 C422.296703,125.695556 423.823077,126.204444 425.858242,126.204444 C427.893407,126.204444 429.41978,125.695556 430.946154,124.168889 C433.998901,121.115556 433.998901,116.535556 430.946154,113.991111 L352.592308,35.1133333 C349.53956,32.06 344.96044,32.06 342.416484,35.1133333 C339.363736,38.1666667 339.363736,42.7466667 342.416484,45.2911111 L420.77033,124.168889 L420.77033,124.168889 Z" id="Shape"></path>
                <path d="M44.2648352,335.357778 C41.2120879,332.304444 36.632967,332.304444 34.089011,335.357778 C31.0362637,338.411111 31.0362637,342.991111 34.089011,345.535556 L112.442857,423.904444 C113.969231,425.431111 115.495604,425.94 117.530769,425.94 C119.565934,425.94 121.092308,425.431111 122.618681,423.904444 C125.671429,420.851111 125.671429,416.271111 122.618681,413.726667 L44.2648352,335.357778 L44.2648352,335.357778 Z" id="Shape"></path>
            </g>
        </g>
    </g>
</svg>