<?xml version="1.0" encoding="UTF-8" standalone="no"?>
<svg width="460px" height="512px" viewBox="0 0 460 512" version="1.1" xmlns="http://www.w3.org/2000/svg" xmlns:xlink="http://www.w3.org/1999/xlink" xmlns:sketch="http://www.bohemiancoding.com/sketch/ns">
    <!-- Generator: Sketch 3.4.4 (17249) - http://www.bohemiancoding.com/sketch -->
    <title>noun_266804_cc</title>
    <desc>Created with Sketch.</desc>
    <defs></defs>
    <g id="Page-1" stroke="none" stroke-width="1" fill="none" fill-rule="evenodd" sketch:type="MSPage">
        <g id="noun_266804_cc" sketch:type="MSLayerGroup" fill="#145EA8">
            <g id="Group" sketch:type="MSShapeGroup">
                <path d="M32.668,362.672 L0.668,512 L405.996,512 L373.996,362.672 L32.668,362.672 L32.668,362.672 Z M27.059,490.672 L49.918,384 L356.746,384 L379.621,490.672 L27.059,490.672 L27.059,490.672 Z" id="Shape"></path>
                <path d="M203.332,405.328 C167.988,405.328 139.332,419.656 139.332,437.328 C139.332,455.016 167.988,469.328 203.332,469.328 C238.684,469.328 267.34,455.016 267.34,437.328 C267.34,419.656 238.684,405.328 203.332,405.328 L203.332,405.328 Z M234.676,442.797 C225.957,446.141 214.824,448 203.332,448 C191.84,448 180.715,446.141 171.996,442.797 C166.91,440.828 163.754,438.797 162.012,437.328 C163.754,435.875 166.91,433.828 171.996,431.859 C180.715,428.515 191.84,426.671 203.332,426.671 C214.824,426.671 225.957,428.515 234.676,431.859 C239.762,433.828 242.918,435.875 244.66,437.328 C242.918,438.797 239.762,440.828 234.676,442.797 L234.676,442.797 Z" id="Shape"></path>
                <path d="M456.215,48.375 L410.965,3.125 L410.965,3.125 L410.965,3.125 C408.871,1.039 406.152,0 403.402,0 C400.683,0 397.964,1.039 395.871,3.125 C391.715,7.289 391.715,14.047 395.871,18.211 L395.871,18.211 L210.879,203.203 L203.332,256 L256.121,248.453 L441.121,63.461 L441.121,63.461 C443.215,65.547 445.933,66.586 448.668,66.586 C451.403,66.586 454.121,65.547 456.215,63.461 C460.371,59.297 460.371,52.547 456.215,48.375 L456.215,48.375 Z M246.074,228.344 L228.472,230.86 L230.988,213.258 L294.918,149.336 L325.09,149.336 L246.074,228.344 L246.074,228.344 Z M346.418,128 L316.246,128 L410.965,33.297 L426.043,48.375 L346.418,128 L346.418,128 Z" id="Shape"></path>
                <path d="M172.121,309.359 C172.34,328.609 186.035,340.968 203.332,341.328 C220.637,340.969 234.332,328.609 234.551,309.359 C235.293,282.984 205.668,257.859 203.332,256 C200.996,257.859 171.371,282.984 172.121,309.359 L172.121,309.359 Z M203.332,286.672 C203.387,286.766 203.449,286.828 203.504,286.891 C209.934,295.282 213.387,303.047 213.223,308.75 L213.223,308.922 L213.215,309.11 C213.176,313.032 211.817,319.579 203.332,319.985 C194.855,319.579 193.496,313.032 193.449,309.11 L193.449,308.922 L193.441,308.75 C193.285,303.047 196.738,295.297 203.168,286.906 C203.223,286.828 203.277,286.766 203.332,286.672 L203.332,286.672 Z" id="Shape"></path>
            </g>
        </g>
    </g>
</svg>