<?xml version="1.0" encoding="UTF-8" standalone="no"?>
<svg width="211px" height="211px" viewBox="0 0 211 211" version="1.1" xmlns="http://www.w3.org/2000/svg" xmlns:xlink="http://www.w3.org/1999/xlink" xmlns:sketch="http://www.bohemiancoding.com/sketch/ns">
    <!-- Generator: Sketch 3.4.4 (17249) - http://www.bohemiancoding.com/sketch -->
    <title>Shape</title>
    <desc>Created with Sketch.</desc>
    <defs></defs>
    <g id="Page-1" stroke="none" stroke-width="1" fill="none" fill-rule="evenodd" sketch:type="MSPage">
        <g id="HCP-hero" sketch:type="MSLayerGroup">
            <g id="Holding_shapes" fill="#FFFFFF" sketch:type="MSShapeGroup">
                <path d="M210.655,180.637 C210.655,196.967 197.418,210.204 181.087,210.204 L30.179,210.204 C13.849,210.204 0.611,196.967 0.611,180.637 L0.611,29.728 C0.611,13.398 13.849,0.16 30.179,0.16 L181.088,0.16 C197.419,0.16 210.656,13.398 210.656,29.728 L210.656,180.637 L210.655,180.637 Z" id="Shape"></path>
            </g>
            <g id="test" transform="translate(7.000000, 21.000000)" stroke="#666666" sketch:type="MSShapeGroup">
                <path d="M0.344,51.642 C2.472,26.528 28.034,10.749 28.034,10.749 C92.999,-22.247 125.127,34.515 125.127,34.515 L132.405,58.789 L126.015,66.176 L141.991,106.613 C141.991,106.613 146.252,110.84 126.015,112.97 L127.613,123.266 C127.613,123.266 112.171,124.685 126.015,133.206 L124.952,139.596 C124.952,139.596 129.213,145.164 124.952,149.18 C117.64,156.073 81.286,149.18 81.286,149.18 L74.894,171.546 L17.916,147.05 L23.131,125.713 C23.133,125.713 -1.783,76.761 0.344,51.642 L0.344,51.642 Z" id="Shape" stroke-width="4"></path>
                <path d="M196.464,162.681 C196.694,162.235 196.716,161.693 196.532,161.119 C196.073,159.687 194.385,158.077 192.126,156.917 C189.522,155.578 187.042,155.256 185.712,155.968 L145.857,135.422 C145.837,135.27 145.806,135.114 145.755,134.956 C145.297,133.527 143.608,131.919 141.348,130.756 C139.868,129.994 138.337,129.529 137.038,129.449 C135.588,129.359 134.557,129.761 134.137,130.579 C133.907,131.025 133.885,131.565 134.069,132.142 C134.527,133.569 136.215,135.179 138.475,136.341 C141.081,137.683 143.559,138.003 144.889,137.292 L184.743,157.833 C184.762,157.986 184.794,158.142 184.845,158.302 C185.304,159.732 186.992,161.339 189.251,162.501 C190.73,163.262 192.262,163.727 193.561,163.808 C195.013,163.9 196.043,163.498 196.464,162.681 L196.464,162.681 Z M138.958,135.406 C136.999,134.398 135.437,132.955 135.073,131.819 C134.974,131.511 134.975,131.255 135.076,131.06 C135.288,130.65 135.997,130.439 136.975,130.499 C138.131,130.57 139.515,130.994 140.87,131.69 C142.828,132.699 144.39,134.14 144.753,135.277 C144.853,135.585 144.852,135.84 144.751,136.036 C144.3,136.912 141.727,136.829 138.958,135.406 L138.958,135.406 Z M193.629,162.76 C192.472,162.689 191.088,162.264 189.734,161.567 C187.776,160.56 186.215,159.12 185.85,157.982 C185.75,157.673 185.753,157.42 185.852,157.221 C186.303,156.346 188.877,156.428 191.644,157.854 C193.603,158.862 195.165,160.303 195.53,161.441 C195.63,161.75 195.628,162.003 195.528,162.199 C195.316,162.611 194.606,162.821 193.629,162.76 L193.629,162.76 Z" id="Shape" fill="#666666"></path>
            </g>
        </g>
    </g>
</svg>