<?xml version="1.0" encoding="UTF-8" standalone="no"?>
<svg width="211px" height="211px" viewBox="0 0 211 211" version="1.1" xmlns="http://www.w3.org/2000/svg" xmlns:xlink="http://www.w3.org/1999/xlink" xmlns:sketch="http://www.bohemiancoding.com/sketch/ns">
    <!-- Generator: Sketch 3.4.4 (17249) - http://www.bohemiancoding.com/sketch -->
    <title>Shape</title>
    <desc>Created with Sketch.</desc>
    <defs></defs>
    <g id="Page-1" stroke="none" stroke-width="1" fill="none" fill-rule="evenodd" sketch:type="MSPage">
        <g id="HCP-hero" sketch:type="MSLayerGroup" transform="translate(-245.000000, 0.000000)">
            <g id="Holding_shapes" fill="#FFFFFF" sketch:type="MSShapeGroup">
                <path d="M455.715,180.637 C455.715,196.967 442.477,210.204 426.148,210.204 L275.238,210.204 C258.909,210.204 245.671,196.967 245.671,180.637 L245.671,29.728 C245.671,13.398 258.909,0.16 275.238,0.16 L426.148,0.16 C442.477,0.16 455.715,13.398 455.715,29.728 L455.715,180.637 L455.715,180.637 Z" id="Shape"></path>
            </g>
            <g id="match" transform="translate(260.000000, 15.000000)" sketch:type="MSShapeGroup">
                <path d="M39.282,44.993 C39.282,51.768 33.789,57.261 27.011,57.261 C20.24,57.261 14.75,51.768 14.75,44.993 C14.75,38.218 20.242,32.725 27.011,32.725 C33.789,32.725 39.282,38.218 39.282,44.993 L39.282,44.993 Z" id="Shape" stroke="#4D4D4D" stroke-width="4"></path>
                <path d="M54.049,72.248 L54.049,114.063 C54.049,116.993 51.681,119.361 48.795,119.361 C45.868,119.361 43.54,116.993 43.54,114.063 L43.54,78.406 C43.54,77.933 43.15,77.546 42.68,77.546 C42.246,77.546 41.86,77.934 41.86,78.406 L41.86,174.527 L41.82,174.527 C41.82,178.4 38.674,181.546 34.842,181.546 C30.963,181.546 27.821,178.4 27.821,174.527 C27.821,174.355 27.821,174.224 27.864,174.051 L27.864,118.5 C27.864,118.068 27.478,117.682 27.048,117.682 C26.571,117.682 26.186,118.069 26.186,118.5 L26.186,174.527 C26.186,178.4 23.039,181.546 19.165,181.546 C15.289,181.546 12.147,178.4 12.147,174.527 C12.147,174.355 12.147,174.224 12.188,174.051 L12.188,117.683 L12.147,117.683 L12.147,78.406 C12.147,77.933 11.801,77.546 11.327,77.546 C10.851,77.546 10.507,77.934 10.507,78.406 L10.507,114.063 C10.507,116.993 8.141,119.361 5.255,119.361 C2.327,119.361 0.002,116.993 0.002,114.063 L0.002,72.248 C0.002,66.091 4.564,61.011 10.507,60.232 C11.024,60.145 11.583,60.105 12.148,60.105 L41.859,60.105 C42.42,60.105 42.977,60.145 43.541,60.232 C49.486,61.051 54.049,66.091 54.049,72.248 L54.049,72.248 Z" id="Shape" stroke="#4D4D4D" stroke-width="4"></path>
                <path d="M96.499,23.171 C95.973,22.645 84.011,10.682 84.011,10.682 L84.885,9.808 C84.885,9.808 96.854,21.777 97.374,22.297 L96.499,23.171 L96.499,23.171 Z" id="Shape" fill="#000000"></path>
                <path d="M104.002,3.179 C100.553,-0.27 94.961,-0.27 91.513,3.179 L77.383,17.309 C73.934,20.758 73.934,26.35 77.383,29.798 C80.831,33.247 86.423,33.247 89.872,29.798 L104.002,15.668 C107.45,12.22 107.45,6.628 104.002,3.179 L104.002,3.179 Z M103.128,14.795 L88.997,28.925 C86.031,31.891 81.223,31.891 78.256,28.925 C75.291,25.959 75.291,21.15 78.256,18.184 L92.387,4.054 C95.353,1.088 100.161,1.088 103.128,4.054 C106.094,7.02 106.094,11.829 103.128,14.795 L103.128,14.795 Z" id="Shape" fill="#4D4D4D"></path>
                <path d="M137.778,23.171 C137.252,22.645 125.29,10.682 125.29,10.682 L126.164,9.808 C126.164,9.808 138.133,21.777 138.653,22.297 L137.778,23.171 L137.778,23.171 Z" id="Shape" fill="#000000"></path>
                <path d="M145.281,3.179 C141.832,-0.27 136.24,-0.27 132.792,3.179 L118.662,17.309 C115.213,20.758 115.213,26.35 118.662,29.798 C122.11,33.247 127.702,33.247 131.151,29.798 L145.281,15.668 C148.729,12.22 148.729,6.628 145.281,3.179 L145.281,3.179 Z M144.407,14.795 L130.276,28.925 C127.31,31.891 122.502,31.891 119.535,28.925 C116.57,25.959 116.57,21.15 119.535,18.184 L133.666,4.054 C136.632,1.088 141.44,1.088 144.407,4.054 C147.373,7.02 147.373,11.829 144.407,14.795 L144.407,14.795 Z" id="Shape" fill="#4D4D4D"></path>
                <path d="M178.336,23.171 C177.81,22.645 165.848,10.682 165.848,10.682 L166.722,9.808 C166.722,9.808 178.691,21.777 179.211,22.297 L178.336,23.171 L178.336,23.171 Z" id="Shape" fill="#000000"></path>
                <path d="M185.839,3.179 C182.39,-0.27 176.798,-0.27 173.35,3.179 L159.22,17.309 C155.771,20.758 155.771,26.35 159.22,29.798 C162.668,33.247 168.26,33.247 171.709,29.798 L185.839,15.668 C189.287,12.22 189.287,6.628 185.839,3.179 L185.839,3.179 Z M184.965,14.795 L170.834,28.925 C167.868,31.891 163.06,31.891 160.093,28.925 C157.128,25.959 157.128,21.15 160.093,18.184 L174.224,4.054 C177.19,1.088 181.998,1.088 184.965,4.054 C187.931,7.02 187.931,11.829 184.965,14.795 L184.965,14.795 Z" id="Shape" fill="#4D4D4D"></path>
                <path d="M30.883,98.924 C30.158,99.246 28.868,99.811 28.024,100.133 C29.917,101.099 31.69,102.067 32.898,103.235 L30.481,103.235 C30.118,102.389 29.272,101.785 28.305,101.785 C27.338,101.785 26.493,102.389 26.13,103.235 L21.215,103.235 C22.504,101.946 24.478,100.898 26.572,99.891 C26.814,99.77 27.055,99.649 27.298,99.529 C28.426,98.965 29.594,98.401 30.682,97.796 C32.939,96.503 35.26,94.761 36.121,92.605 C36.121,92.605 35.983,92.376 35.675,91.544 C35.555,91.222 35.53,90.413 35.534,90.344 C35.602,89.152 35.953,87.916 35.953,87.916 C34.574,84.845 30.621,82.829 27.298,81.199 C24.76,79.95 22.302,78.741 20.892,77.13 L26.855,77.13 C27.218,77.976 28.064,78.54 29.031,78.54 C29.998,78.54 30.843,77.976 31.206,77.13 L33.221,77.13 C32.214,78.258 30.683,79.225 28.749,80.232 C28.467,80.393 28.185,80.514 27.902,80.675 C28.305,80.836 28.789,81.078 29.272,81.238 C29.876,81.52 30.481,81.762 30.763,81.883 C33.985,80.111 36.805,77.895 36.805,74.189 L34.388,74.189 C34.388,74.672 34.307,75.115 34.187,75.518 L31.327,75.518 C31.045,74.511 30.118,73.826 29.031,73.826 C27.943,73.826 27.056,74.511 26.734,75.518 L19.926,75.518 C19.764,75.115 19.684,74.632 19.684,74.189 L17.267,74.189 C17.307,78.982 22.061,81.319 26.25,83.374 C27.741,84.099 29.231,84.824 30.48,85.63 L23.631,85.63 C24.357,85.147 25.162,84.743 26.008,84.3 L23.591,82.849 C21.309,84.123 19.034,85.872 18.113,88.022 C18.113,88.022 18.489,89.234 18.489,90.181 C18.489,91.035 17.969,92.177 17.969,92.177 C18.835,94.448 21.217,96.596 23.55,97.915 L25.966,96.466 C25.04,95.982 24.154,95.498 23.389,94.975 L30.68,94.975 C29.713,95.621 28.626,96.184 27.497,96.747 C27.095,96.948 26.651,97.15 26.208,97.392 C25.241,97.876 24.233,98.359 23.268,98.882 C21.657,99.769 20.165,100.776 19.038,101.985 C17.951,103.234 17.226,104.724 17.226,106.538 L19.643,106.538 C19.643,105.934 19.763,105.369 20.005,104.846 L20.126,104.846 L25.927,104.846 C26.209,105.813 27.136,106.538 28.183,106.538 C29.231,106.538 30.158,105.812 30.439,104.846 L33.904,104.846 C34.146,105.369 34.266,105.934 34.266,106.538 L36.684,106.538 C36.805,102.872 34.025,100.656 30.883,98.924 L30.883,98.924 Z M28.667,75.518 C28.788,75.437 28.909,75.437 29.03,75.437 C29.151,75.437 29.311,75.477 29.392,75.518 C29.633,75.639 29.795,75.88 29.795,76.163 C29.795,76.566 29.472,76.928 29.029,76.928 C28.627,76.928 28.263,76.606 28.263,76.163 C28.265,75.88 28.426,75.639 28.667,75.518 L28.667,75.518 Z M21.618,87.201 L32.293,87.201 L32.454,87.201 C33.099,87.886 33.582,88.651 33.743,89.537 L26.814,89.537 C26.492,88.611 25.605,87.966 24.598,87.966 C23.591,87.966 22.704,88.611 22.382,89.537 L20.367,89.537 C20.53,88.691 20.973,87.926 21.618,87.201 L21.618,87.201 Z M25.364,90.344 C25.364,90.746 25.001,91.109 24.598,91.109 C24.195,91.109 23.832,90.787 23.832,90.344 C23.832,89.94 24.154,89.578 24.598,89.578 C25.001,89.617 25.364,89.939 25.364,90.344 L25.364,90.344 Z M21.497,93.364 C20.933,92.719 20.53,91.994 20.368,91.189 L22.383,91.189 C22.705,92.115 23.592,92.759 24.599,92.759 C25.606,92.759 26.493,92.114 26.815,91.189 L33.744,91.189 C33.583,91.994 33.18,92.719 32.616,93.364 L21.497,93.364 L21.497,93.364 Z M28.587,104.846 C28.506,104.886 28.386,104.926 28.265,104.926 C28.144,104.926 28.024,104.886 27.943,104.846 C27.701,104.725 27.5,104.483 27.5,104.16 C27.5,103.758 27.822,103.395 28.266,103.395 C28.668,103.395 29.032,103.717 29.032,104.16 C29.03,104.482 28.829,104.725 28.587,104.846 L28.587,104.846 Z" id="Shape" stroke="#FFFFFF" fill="#4D4D4D"></path>
                <path d="M131.97,71.038 C125.943,71.038 121.039,66.134 121.039,60.106 C121.039,54.078 125.942,49.174 131.97,49.174 C137.999,49.174 142.904,54.078 142.904,60.106 C142.904,66.134 137.999,71.038 131.97,71.038 L131.97,71.038 Z M131.97,49.965 C126.38,49.965 121.831,54.514 121.831,60.106 C121.831,65.698 126.379,70.247 131.97,70.247 C137.562,70.247 142.113,65.698 142.113,60.106 C142.113,54.514 137.562,49.965 131.97,49.965 L131.97,49.965 Z M135.977,57.82 L134.298,56.141 L132.039,58.436 L129.78,56.141 L128.101,57.82 L130.391,60.111 L128.103,62.437 L129.733,64.069 L132.039,61.761 L134.346,64.069 L135.977,62.437 L133.687,60.111 L135.977,57.82 L135.977,57.82 Z" id="Shape" fill="#666666"></path>
                <path d="M172.527,71.038 C166.5,71.038 161.596,66.134 161.596,60.106 C161.596,54.078 166.499,49.174 172.527,49.174 C178.556,49.174 183.461,54.078 183.461,60.106 C183.461,66.134 178.557,71.038 172.527,71.038 L172.527,71.038 Z M172.527,49.965 C166.937,49.965 162.388,54.514 162.388,60.106 C162.388,65.698 166.936,70.247 172.527,70.247 C178.119,70.247 182.67,65.698 182.67,60.106 C182.67,54.514 178.119,49.965 172.527,49.965 L172.527,49.965 Z M176.534,57.82 L174.855,56.141 L172.596,58.436 L170.337,56.141 L168.658,57.82 L170.948,60.111 L168.66,62.437 L170.29,64.069 L172.596,61.761 L174.903,64.069 L176.534,62.437 L174.244,60.111 L176.534,57.82 L176.534,57.82 Z" id="Shape" fill="#666666"></path>
                <path d="M89.457,63.924 L85.587,60.049 L87.267,58.37 L89.457,60.561 L94.022,55.996 L95.7,57.674 L89.457,63.924 L89.457,63.924 Z M101.624,60.105 C101.624,54.077 96.72,49.173 90.691,49.173 C84.662,49.173 79.758,54.077 79.758,60.105 C79.758,66.133 84.662,71.037 90.691,71.037 C96.72,71.037 101.624,66.134 101.624,60.105 L101.624,60.105 Z M100.833,60.105 C100.833,65.696 96.283,70.246 90.691,70.246 C85.1,70.246 80.55,65.697 80.55,60.105 C80.55,54.513 85.1,49.964 90.691,49.964 C96.283,49.965 100.833,54.514 100.833,60.105 L100.833,60.105 Z" id="Shape" fill="#666666"></path>
                <path d="M131.97,106.537 C125.943,106.537 121.039,101.633 121.039,95.605 C121.039,89.577 125.942,84.673 131.97,84.673 C137.999,84.673 142.904,89.578 142.904,95.605 C142.904,101.632 137.999,106.537 131.97,106.537 L131.97,106.537 Z M131.97,85.465 C126.38,85.465 121.831,90.014 121.831,95.606 C121.831,101.198 126.379,105.747 131.97,105.747 C137.562,105.747 142.113,101.198 142.113,95.606 C142.113,90.014 137.562,85.465 131.97,85.465 L131.97,85.465 Z M135.977,93.32 L134.298,91.64 L132.039,93.936 L129.78,91.64 L128.101,93.32 L130.391,95.611 L128.103,97.937 L129.733,99.568 L132.039,97.261 L134.346,99.568 L135.977,97.937 L133.687,95.611 L135.977,93.32 L135.977,93.32 Z" id="Shape" fill="#666666"></path>
                <path d="M89.457,99.424 L85.587,95.549 L87.267,93.871 L89.457,96.061 L94.022,91.496 L95.7,93.175 L89.457,99.424 L89.457,99.424 Z M101.624,95.605 C101.624,89.577 96.72,84.673 90.691,84.673 C84.662,84.673 79.758,89.578 79.758,95.605 C79.758,101.632 84.662,106.537 90.691,106.537 C96.72,106.537 101.624,101.634 101.624,95.605 L101.624,95.605 Z M100.833,95.605 C100.833,101.197 96.283,105.746 90.691,105.746 C85.1,105.746 80.55,101.197 80.55,95.605 C80.55,90.013 85.1,85.464 90.691,85.464 C96.283,85.465 100.833,90.014 100.833,95.605 L100.833,95.605 Z" id="Shape" fill="#666666"></path>
                <path d="M171.295,99.424 L167.425,95.549 L169.105,93.871 L171.295,96.061 L175.86,91.496 L177.538,93.175 L171.295,99.424 L171.295,99.424 Z M183.462,95.605 C183.462,89.577 178.558,84.673 172.529,84.673 C166.5,84.673 161.596,89.578 161.596,95.605 C161.596,101.632 166.5,106.537 172.529,106.537 C178.558,106.537 183.462,101.634 183.462,95.605 L183.462,95.605 Z M182.671,95.605 C182.671,101.197 178.121,105.746 172.529,105.746 C166.938,105.746 162.388,101.197 162.388,95.605 C162.388,90.013 166.938,85.464 172.529,85.464 C178.121,85.465 182.671,90.014 182.671,95.605 L182.671,95.605 Z" id="Shape" fill="#666666"></path>
                <path d="M172.527,143.573 C166.5,143.573 161.596,138.669 161.596,132.641 C161.596,126.613 166.499,121.708 172.527,121.708 C178.556,121.708 183.461,126.613 183.461,132.641 C183.461,138.669 178.557,143.573 172.527,143.573 L172.527,143.573 Z M172.527,122.501 C166.937,122.501 162.388,127.05 162.388,132.642 C162.388,138.234 166.936,142.783 172.527,142.783 C178.119,142.783 182.67,138.234 182.67,132.642 C182.67,127.05 178.119,122.501 172.527,122.501 L172.527,122.501 Z M176.534,130.356 L174.855,128.676 L172.596,130.972 L170.337,128.676 L168.658,130.356 L170.948,132.647 L168.66,134.973 L170.29,136.604 L172.596,134.297 L174.903,136.604 L176.534,134.973 L174.244,132.647 L176.534,130.356 L176.534,130.356 Z" id="Shape" fill="#666666"></path>
                <path d="M90.691,143.573 C84.664,143.573 79.76,138.669 79.76,132.641 C79.76,126.613 84.663,121.708 90.691,121.708 C96.72,121.708 101.625,126.613 101.625,132.641 C101.625,138.669 96.721,143.573 90.691,143.573 L90.691,143.573 Z M90.691,122.501 C85.101,122.501 80.552,127.05 80.552,132.642 C80.552,138.234 85.1,142.783 90.691,142.783 C96.283,142.783 100.834,138.234 100.834,132.642 C100.834,127.05 96.283,122.501 90.691,122.501 L90.691,122.501 Z M94.698,130.356 L93.019,128.676 L90.76,130.972 L88.501,128.676 L86.822,130.356 L89.112,132.647 L86.824,134.973 L88.454,136.604 L90.76,134.297 L93.067,136.604 L94.698,134.973 L92.408,132.647 L94.698,130.356 L94.698,130.356 Z" id="Shape" fill="#666666"></path>
                <path d="M130.737,136.46 L126.867,132.585 L128.547,130.907 L130.737,133.097 L135.302,128.532 L136.98,130.211 L130.737,136.46 L130.737,136.46 Z M142.904,132.642 C142.904,126.614 138,121.709 131.971,121.709 C125.942,121.709 121.038,126.614 121.038,132.642 C121.038,138.67 125.942,143.574 131.971,143.574 C138,143.574 142.904,138.67 142.904,132.642 L142.904,132.642 Z M142.113,132.642 C142.113,138.234 137.563,142.783 131.971,142.783 C126.38,142.783 121.83,138.234 121.83,132.642 C121.83,127.05 126.38,122.501 131.971,122.501 C137.563,122.501 142.113,127.05 142.113,132.642 L142.113,132.642 Z" id="Shape" fill="#666666"></path>
                <path d="M131.97,181.546 C125.943,181.546 121.039,176.642 121.039,170.614 C121.039,164.586 125.942,159.681 131.97,159.681 C137.999,159.681 142.904,164.586 142.904,170.614 C142.904,176.642 137.999,181.546 131.97,181.546 L131.97,181.546 Z M131.97,160.474 C126.38,160.474 121.831,165.023 121.831,170.615 C121.831,176.207 126.379,180.756 131.97,180.756 C137.562,180.756 142.113,176.207 142.113,170.615 C142.113,165.023 137.562,160.474 131.97,160.474 L131.97,160.474 Z M135.977,168.329 L134.298,166.649 L132.039,168.945 L129.78,166.649 L128.101,168.329 L130.391,170.62 L128.103,172.946 L129.733,174.577 L132.039,172.27 L134.346,174.577 L135.977,172.946 L133.687,170.62 L135.977,168.329 L135.977,168.329 Z" id="Shape" fill="#666666"></path>
                <path d="M172.527,181.546 C166.5,181.546 161.596,176.642 161.596,170.614 C161.596,164.586 166.499,159.681 172.527,159.681 C178.556,159.681 183.461,164.586 183.461,170.614 C183.461,176.642 178.557,181.546 172.527,181.546 L172.527,181.546 Z M172.527,160.474 C166.937,160.474 162.388,165.023 162.388,170.615 C162.388,176.207 166.936,180.756 172.527,180.756 C178.119,180.756 182.67,176.207 182.67,170.615 C182.67,165.023 178.119,160.474 172.527,160.474 L172.527,160.474 Z M176.534,168.329 L174.855,166.649 L172.596,168.945 L170.337,166.649 L168.658,168.329 L170.948,170.62 L168.66,172.946 L170.29,174.577 L172.596,172.27 L174.903,174.577 L176.534,172.946 L174.244,170.62 L176.534,168.329 L176.534,168.329 Z" id="Shape" fill="#666666"></path>
                <path d="M89.457,174.433 L85.587,170.558 L87.267,168.88 L89.457,171.07 L94.022,166.505 L95.7,168.184 L89.457,174.433 L89.457,174.433 Z M101.624,170.614 C101.624,164.586 96.72,159.681 90.691,159.681 C84.662,159.681 79.758,164.586 79.758,170.614 C79.758,176.642 84.662,181.546 90.691,181.546 C96.72,181.546 101.624,176.643 101.624,170.614 L101.624,170.614 Z M100.833,170.614 C100.833,176.206 96.283,180.755 90.691,180.755 C85.1,180.755 80.55,176.206 80.55,170.614 C80.55,165.022 85.1,160.473 90.691,160.473 C96.283,160.474 100.833,165.022 100.833,170.614 L100.833,170.614 Z" id="Shape" fill="#666666"></path>
            </g>
        </g>
    </g>
</svg>